{"glyphs":{"0":{"ha":997,"x_min":-76,"x_max":1063,"o":"m 403 21 q 355 -47 376 -4 q 332 -126 333 -90 q 317 -62 319 -101 q 322 8 314 -24 q 297 -32 313 -12 q 265 -62 281 -51 q 283 -4 279 -40 q 279 57 288 32 q 230 27 257 49 q 194 -17 203 6 q 196 35 192 4 q 213 86 200 67 q 157 34 192 60 q 92 6 122 8 q 142 65 119 24 q 168 139 165 106 q 124 115 153 124 q 74 110 94 107 q 110 144 92 121 q 133 189 129 168 q 78 194 111 196 q 25 182 44 193 q 54 224 32 201 q 99 254 76 246 q 19 247 65 244 q -54 268 -26 250 q 23 291 -19 269 q 89 338 65 313 q 9 354 57 354 q -74 342 -39 354 q -3 369 -46 360 q 74 371 39 378 q 32 391 54 376 q 0 418 10 406 q 47 439 19 421 q 85 474 74 457 q 8 513 57 497 q -76 522 -40 528 q -30 550 -58 539 q 30 566 -1 561 q 86 568 61 571 q 22 613 65 593 q -54 635 -21 632 q -10 660 -37 649 q 45 676 17 671 q 94 678 74 682 q 23 724 68 704 q -58 740 -22 744 q 25 748 -25 754 q 106 721 75 742 q 68 777 96 747 q 15 819 40 807 q 83 826 40 831 q 147 806 125 821 q 104 862 125 825 q 83 928 83 899 q 140 889 101 906 q 208 871 179 872 q 183 904 194 882 q 171 946 172 926 q 196 910 178 928 q 232 886 214 893 q 187 958 206 913 q 172 1042 168 1004 q 212 967 182 1006 q 275 911 242 928 q 240 988 250 939 q 236 1072 229 1036 q 265 994 238 1036 q 322 931 292 953 q 322 996 315 957 q 340 1058 328 1035 q 368 999 344 1032 q 414 953 392 967 q 435 999 426 969 q 439 1050 444 1029 q 467 1007 454 1035 q 481 958 479 979 q 516 1016 500 979 q 531 1081 532 1053 q 558 1033 546 1064 q 571 976 569 1003 q 591 1034 575 1004 q 626 1079 607 1064 q 618 1010 614 1051 q 635 942 622 968 q 673 1014 643 975 q 732 1071 703 1053 q 713 991 715 1040 q 724 910 711 942 q 756 947 733 928 q 797 972 778 967 q 778 926 785 956 q 776 878 771 897 q 827 897 800 879 q 868 935 854 915 q 853 882 867 911 q 822 836 839 853 q 878 840 846 833 q 938 858 910 846 q 985 889 967 871 q 939 815 971 854 q 875 758 907 776 q 936 764 899 767 q 996 750 974 761 q 941 721 971 744 q 901 674 911 697 q 956 647 921 658 q 1017 640 992 636 q 967 606 1001 621 q 908 589 933 590 q 958 559 925 572 q 1013 549 990 546 q 966 517 999 531 q 910 504 933 503 q 952 476 925 489 q 1008 458 979 464 q 1058 456 1036 451 q 1010 426 1040 439 q 950 411 979 414 q 1010 396 979 407 q 1063 369 1042 385 q 981 372 1029 379 q 906 343 933 364 q 963 307 926 322 q 1029 294 1000 292 q 964 278 1003 282 q 897 283 925 275 q 958 247 925 276 q 1003 190 992 217 q 933 202 976 204 q 861 189 889 200 q 888 149 867 169 q 928 124 908 129 q 881 131 907 122 q 840 157 854 140 q 866 113 854 142 q 879 65 878 85 q 835 89 864 78 q 786 100 807 100 q 782 35 776 75 q 803 -26 788 -4 q 751 -3 779 -21 q 707 38 724 15 q 728 -17 721 14 q 729 -71 735 -47 q 712 -10 729 -43 q 674 40 694 22 q 674 -9 669 26 q 689 -87 679 -44 q 710 -164 699 -129 q 729 -210 721 -199 q 704 -167 719 -200 q 674 -93 689 -133 q 650 -18 660 -53 q 642 31 640 17 q 628 -25 629 10 q 638 -82 628 -60 q 607 -39 621 -67 q 605 -90 608 -64 q 590 -135 601 -115 q 585 -55 594 -100 q 553 17 575 -10 q 554 -51 560 -12 q 531 -114 549 -90 q 526 -70 535 -94 q 490 -22 518 -46 q 403 21 461 1 m 397 651 q 419 638 406 643 q 449 629 433 632 q 470 639 456 633 q 503 650 485 644 q 513 697 511 669 q 508 744 514 725 q 493 703 497 729 q 496 660 489 678 q 480 699 485 674 q 479 744 475 725 q 476 699 474 725 q 482 674 482 686 q 493 653 486 661 q 469 681 481 663 q 418 708 446 701 q 435 685 424 697 q 458 671 447 674 q 435 671 449 668 q 456 653 449 663 q 426 658 444 658 q 397 651 408 657 m 575 710 q 553 702 565 708 q 532 688 540 696 q 507 651 521 667 q 559 664 533 658 q 594 669 585 669 q 560 672 581 674 q 528 663 540 671 q 547 690 532 676 q 575 710 561 704 m 467 301 q 431 254 457 271 q 465 281 447 264 q 493 317 482 299 q 492 344 490 332 q 497 328 494 336 q 501 340 499 331 q 501 321 503 331 q 533 275 513 297 q 514 314 517 296 q 548 294 525 303 q 588 288 571 285 q 563 309 579 299 q 533 321 547 319 q 557 326 543 325 q 515 340 536 332 q 486 353 493 349 q 519 353 494 351 q 569 358 544 354 q 601 365 593 363 q 578 380 593 374 q 551 385 563 386 q 575 397 560 392 q 601 400 590 401 q 567 418 590 411 q 526 424 544 425 q 563 440 540 433 q 603 444 586 447 q 581 461 597 454 q 554 469 565 468 q 576 486 561 478 q 603 494 592 494 q 569 508 590 504 q 533 508 549 511 q 576 524 550 521 q 524 544 543 529 q 565 550 540 543 q 603 568 589 557 q 566 580 588 575 q 528 579 544 585 q 563 594 540 590 q 601 596 585 597 q 567 610 589 604 q 531 613 546 617 q 563 631 542 624 q 600 636 583 638 q 560 640 589 640 q 499 636 531 639 q 451 629 467 633 q 476 626 464 626 q 422 614 456 614 q 464 592 451 606 q 426 588 449 594 q 392 571 404 582 q 433 567 410 574 q 472 550 457 561 q 430 549 454 554 q 392 532 406 543 q 419 519 401 524 q 449 515 436 514 q 422 502 439 507 q 392 499 404 497 q 415 488 400 492 q 442 485 431 483 q 408 471 431 475 q 460 457 439 469 q 424 456 444 460 q 392 443 404 453 q 411 430 399 436 q 433 424 424 424 q 415 410 428 417 q 393 403 401 404 q 419 395 403 403 q 442 379 435 388 q 416 371 432 379 q 394 353 400 363 q 428 353 408 356 q 460 343 447 350 q 427 335 446 342 q 399 318 408 328 q 434 315 413 314 q 469 322 456 315 q 444 295 463 308 q 411 281 426 282 q 440 286 424 279 q 467 301 457 293 m 526 235 q 496 297 506 258 q 489 276 493 286 q 501 253 493 264 q 526 235 510 242 z "},"1":{"ha":774,"x_min":-39,"x_max":996,"o":"m 376 88 q 322 89 353 83 q 263 107 292 94 q 218 138 235 119 q 301 149 254 133 q 376 186 349 164 q 324 206 357 201 q 268 206 292 211 q 315 225 286 219 q 265 247 283 232 q 324 247 290 242 q 376 269 357 253 q 331 299 361 285 q 278 311 300 313 q 324 340 293 328 q 376 351 354 351 q 324 365 363 360 q 238 372 285 369 q 152 372 192 374 q 99 365 113 371 q 151 377 113 372 q 237 384 190 382 q 322 385 283 386 q 376 379 361 385 q 323 411 358 397 q 263 424 288 425 q 302 448 278 436 q 349 465 326 460 q 290 475 321 465 q 240 501 258 485 q 274 499 254 497 q 243 518 261 510 q 211 528 225 526 q 199 483 201 511 q 203 436 197 456 q 172 472 186 447 q 156 515 157 496 q 87 463 132 486 q 4 442 42 440 q 72 494 38 457 q 115 568 106 532 q 41 558 85 571 q -26 525 -3 544 q 1 595 -22 556 q 51 651 25 635 q 8 665 35 661 q -39 663 -19 668 q 3 681 -24 675 q 50 682 31 688 q 31 765 50 718 q -15 835 13 811 q 59 795 21 826 q 115 733 97 764 q 103 791 117 758 q 69 838 89 824 q 121 810 93 831 q 160 767 149 790 q 154 817 163 788 q 133 864 146 847 q 177 851 153 864 q 215 822 201 838 q 193 867 201 839 q 188 915 185 896 q 227 878 199 896 q 278 858 256 861 q 258 903 265 875 q 254 951 250 932 q 292 922 265 935 q 339 907 319 910 q 296 975 311 929 q 281 1057 281 1021 q 329 991 294 1024 q 396 944 364 958 q 417 1018 413 974 q 410 1093 422 1063 q 431 1021 428 1065 q 424 944 433 976 q 444 1003 439 967 q 440 1065 449 1040 q 456 1028 449 1050 q 481 1106 463 1075 q 477 1023 468 1071 q 506 944 486 975 q 509 991 503 964 q 529 1032 515 1018 q 534 986 526 1013 q 554 944 542 960 q 571 1008 554 971 q 607 1064 588 1046 q 621 1000 604 1038 q 658 944 638 963 q 739 949 693 936 q 811 986 785 963 q 769 949 796 967 q 713 924 742 932 q 801 904 764 924 q 733 910 772 914 q 668 890 693 907 q 708 869 682 878 q 753 860 733 860 q 713 837 739 847 q 668 829 688 826 q 715 814 688 828 q 754 785 742 800 q 708 770 735 785 q 668 740 681 756 q 715 722 686 728 q 765 721 744 715 q 718 703 747 710 q 668 703 689 697 q 721 681 688 686 q 779 681 754 675 q 726 658 760 664 q 668 658 693 653 q 715 646 682 651 q 790 638 747 640 q 874 633 832 635 q 950 635 917 632 q 996 644 983 638 q 937 629 981 635 q 840 622 893 624 q 742 621 786 619 q 771 606 760 614 q 717 603 749 611 q 668 581 685 596 q 738 565 697 582 q 800 528 779 549 q 731 511 771 528 q 668 475 690 494 q 709 460 683 464 q 754 461 735 457 q 740 454 749 457 q 828 431 792 450 q 746 435 793 439 q 668 414 699 432 q 728 384 689 394 q 796 375 767 374 q 735 344 775 356 q 668 336 696 332 q 711 322 679 329 q 782 310 743 315 q 853 304 821 306 q 899 306 886 303 q 847 290 886 299 q 763 277 807 282 q 689 274 718 272 q 733 256 711 268 q 768 232 756 244 q 714 217 746 231 q 668 188 682 204 q 743 179 700 192 q 810 146 786 167 q 735 138 779 151 q 668 104 692 125 q 730 78 690 86 q 799 76 769 69 q 736 51 775 58 q 668 49 697 43 q 712 6 683 40 q 770 -71 740 -28 q 822 -153 800 -114 q 849 -208 844 -192 q 817 -156 843 -192 q 756 -81 790 -121 q 689 -11 721 -42 q 642 28 657 19 q 632 -16 643 10 q 608 -56 621 -42 q 600 -11 611 -37 q 575 28 589 15 q 561 -44 578 -3 q 522 -108 544 -86 q 508 -36 525 -78 q 469 28 490 6 q 449 -18 456 11 q 444 -68 442 -47 q 424 -22 432 -50 q 419 28 415 7 q 398 -34 403 4 q 403 -100 393 -72 q 381 -30 389 -75 q 376 88 374 15 m 342 629 q 347 599 346 619 q 358 607 353 603 q 342 629 346 618 m 264 568 q 277 538 271 557 q 283 500 283 518 q 335 512 310 503 q 376 535 360 521 q 342 550 363 536 l 342 549 q 304 565 331 558 q 264 568 278 572 z "},"2":{"ha":978,"x_min":-60,"x_max":1204,"o":"m 76 65 q 29 94 61 83 q -25 104 -3 104 q 22 133 -10 121 q 76 143 54 146 q 12 176 53 163 q -60 181 -29 189 q 8 206 -35 199 q 79 207 50 214 q 55 259 64 224 q 51 317 46 294 q 101 289 68 301 q 158 276 135 276 q 147 335 161 303 q 113 383 132 368 q 145 367 128 379 q 176 340 163 356 q 159 384 165 361 q 154 425 153 407 q 197 378 168 401 q 253 346 226 354 q 230 388 240 361 q 222 435 219 414 q 256 400 232 417 q 299 378 279 383 q 274 456 296 414 q 225 519 253 497 q 292 474 257 507 q 339 408 328 442 q 313 484 338 443 q 263 549 289 525 q 331 504 296 536 q 378 439 367 472 q 368 488 378 460 q 344 531 358 515 q 390 510 365 528 q 426 476 414 493 q 409 524 425 499 q 376 561 393 549 q 419 537 397 556 q 451 499 442 518 q 436 538 449 517 q 407 569 424 560 q 450 546 428 565 q 426 615 426 586 q 390 631 407 624 q 368 643 374 639 q 349 606 365 629 q 318 575 332 583 q 298 613 315 590 q 268 643 281 635 q 246 590 253 624 q 243 533 239 557 q 220 586 228 553 q 218 643 213 619 q 197 586 203 621 q 199 525 192 551 q 178 600 182 554 q 166 558 174 579 q 149 524 158 538 q 146 586 156 550 q 118 643 136 622 q 68 617 94 636 q 28 576 42 597 q 52 628 32 601 q 94 667 72 656 q 39 699 69 675 q -3 747 8 724 q 62 749 24 743 q 121 769 100 756 q 99 829 119 796 q 56 876 78 863 q 120 874 82 882 q 179 851 158 865 q 140 897 157 865 q 121 953 122 928 q 160 908 133 931 q 213 881 188 886 q 195 939 211 907 q 158 985 179 971 q 205 948 182 974 q 236 897 228 922 q 238 955 244 921 q 219 1010 232 989 q 261 981 239 1001 q 296 940 283 961 q 288 981 289 957 q 294 1019 288 1004 q 313 977 299 1000 q 343 944 326 954 q 347 1013 351 974 q 325 1076 342 1051 q 358 1019 346 1056 q 371 957 371 983 q 383 1008 372 979 q 410 1049 394 1036 q 433 1001 413 1028 q 471 964 453 974 q 471 1009 468 976 q 479 1080 474 1042 q 492 1150 485 1118 q 506 1193 499 1182 q 501 1149 500 1182 q 508 1077 503 1117 q 519 1006 513 1038 q 532 963 525 974 q 567 1032 556 988 q 575 1111 579 1076 q 592 1058 586 1089 q 596 999 599 1028 q 621 1066 606 1028 q 653 1141 636 1104 q 687 1206 671 1178 q 713 1244 703 1235 q 697 1185 704 1229 q 687 1090 690 1142 q 684 993 683 1038 q 690 932 685 949 q 727 977 701 953 q 775 1007 753 1001 q 760 952 763 988 q 765 894 757 917 q 803 930 778 913 q 855 959 828 947 q 906 969 882 971 q 857 906 879 949 q 832 828 835 863 q 880 812 849 818 q 929 810 911 806 q 906 766 925 792 q 871 731 888 740 q 937 705 896 713 q 1008 703 978 697 q 945 670 986 682 q 875 661 904 658 q 946 615 900 635 q 1029 594 992 596 q 945 580 996 578 q 861 596 894 582 q 901 533 871 567 q 960 490 931 500 q 900 488 936 483 q 838 506 864 492 q 876 465 858 489 q 903 419 894 440 q 853 462 888 443 q 790 482 818 481 q 799 431 788 461 q 825 386 810 401 q 774 398 804 386 q 729 424 744 410 q 732 385 726 408 q 747 350 738 361 q 710 360 732 350 q 678 382 689 371 q 690 340 678 363 q 715 304 701 317 q 679 328 699 311 q 651 361 660 344 q 644 331 646 350 q 651 335 649 333 q 647 293 654 319 q 650 286 649 289 q 663 342 663 315 q 685 302 675 328 q 693 258 694 276 q 724 290 707 267 q 742 331 740 314 q 773 298 756 321 q 792 258 790 275 q 795 295 789 274 q 811 328 801 317 q 815 292 810 313 q 831 258 821 271 q 880 294 854 268 q 914 346 906 321 q 915 283 919 319 q 896 226 911 247 q 953 209 910 217 q 1048 197 996 201 q 1144 192 1100 192 q 1204 196 1188 192 q 1150 181 1190 189 q 1061 167 1110 172 q 971 160 1013 161 q 1028 132 1008 150 q 958 126 999 135 q 896 99 918 118 q 951 71 917 82 q 1011 60 985 60 q 956 34 992 42 q 893 31 919 26 q 901 -33 903 4 q 885 -94 899 -69 q 882 -31 889 -67 q 858 28 875 6 q 824 -52 838 -3 q 819 -137 810 -101 q 783 -54 794 -107 q 767 -103 778 -83 q 772 -37 778 -76 q 753 28 767 1 q 725 -17 738 13 q 714 -68 713 -47 q 685 -24 697 -54 q 675 28 674 6 q 648 -35 658 4 q 644 -101 638 -74 q 624 -65 632 -87 q 614 -19 617 -43 q 594 -85 608 -53 q 561 -137 581 -118 q 556 -81 563 -112 q 538 -19 550 -49 q 508 28 525 10 q 511 -53 519 -6 q 483 -131 503 -100 q 484 -49 492 -96 q 458 28 476 -3 q 455 -20 461 7 q 436 -62 449 -47 q 432 -16 439 -43 q 414 28 425 11 q 381 -32 394 7 q 367 -100 367 -71 q 333 -40 349 -78 q 319 28 318 -1 q 303 -17 307 11 q 303 -65 299 -44 q 286 -20 292 -47 q 286 28 281 7 q 251 -44 263 3 q 247 -124 239 -90 q 213 -47 225 -92 q 205 -128 211 -87 q 192 -181 199 -168 q 196 -140 196 -169 q 193 -76 196 -111 q 185 -12 190 -42 q 175 28 181 17 q 160 -19 174 8 q 131 -60 146 -47 q 115 -8 129 -40 q 76 65 100 25 m 454 740 q 459 706 453 725 q 475 669 465 688 q 483 679 479 675 q 471 715 479 697 q 454 740 463 732 m 499 594 q 476 599 492 594 q 440 611 460 604 q 488 588 461 597 q 533 582 514 579 q 490 608 513 588 q 458 650 467 629 q 501 621 474 632 q 551 610 529 610 q 522 639 542 625 q 483 656 501 653 q 497 639 490 646 q 444 658 474 642 q 401 693 414 674 q 425 661 404 683 q 467 619 446 639 q 499 594 489 599 m 475 669 q 483 656 479 663 q 488 657 485 657 q 486 669 488 661 q 475 669 479 669 m 567 651 q 541 663 556 658 q 511 668 526 667 q 497 660 504 664 q 534 662 514 664 q 567 651 554 660 m 632 258 q 647 279 640 265 q 643 281 646 279 q 632 258 638 267 z "},"3":{"ha":985,"x_min":-86,"x_max":1051,"o":"m 378 21 q 348 -19 361 8 q 336 -68 335 -47 q 323 -19 325 -49 q 329 31 321 10 q 298 -10 313 15 q 285 -58 283 -36 q 283 22 271 -21 q 258 -13 274 4 q 226 -37 242 -31 q 237 13 236 -18 q 228 64 238 44 q 200 -4 224 32 q 149 -57 176 -40 q 186 7 171 -33 q 199 79 201 47 q 132 33 165 67 q 85 -35 99 -1 q 96 25 86 -8 q 122 85 106 58 q 85 58 106 69 q 44 43 64 46 q 86 91 67 60 q 111 149 106 122 q 33 140 78 154 q -39 103 -12 125 q 6 168 -28 136 q 72 215 40 200 q -12 226 35 211 q -86 265 -58 242 q -1 256 -51 254 q 79 278 49 258 q 115 326 97 293 q 131 383 132 360 q 166 335 149 368 q 183 278 183 301 q 196 346 182 306 q 232 404 210 386 q 246 336 232 376 q 282 278 260 296 q 279 343 275 306 q 297 404 283 381 q 293 340 288 378 q 314 278 299 301 q 346 315 331 290 q 364 357 361 339 q 340 388 351 369 q 328 418 329 406 q 281 408 310 408 q 233 417 251 407 q 274 442 253 422 q 301 482 294 463 q 240 484 275 476 q 183 508 204 492 q 246 509 210 501 q 301 535 282 517 q 260 606 290 569 q 200 661 231 643 q 235 654 215 660 q 221 692 225 671 q 218 729 217 714 q 191 689 204 715 q 179 643 178 663 q 152 683 165 657 q 140 729 139 710 q 78 744 117 740 q 14 739 39 749 q 60 785 28 763 q 119 810 93 807 q 38 816 85 806 q -37 847 -10 826 q 45 853 -3 843 q 119 886 93 863 q 65 885 96 881 q 13 903 33 890 q 67 901 36 894 q 119 918 99 907 q 93 954 106 931 q 82 997 81 978 q 113 965 92 981 q 151 944 133 949 q 167 1001 151 968 q 201 1051 183 1035 q 218 994 201 1028 q 251 944 235 961 q 250 997 247 958 q 260 1080 253 1035 q 276 1162 267 1125 q 293 1211 285 1199 q 290 1159 288 1197 q 300 1076 293 1121 q 317 994 307 1031 q 335 944 326 957 q 357 1010 351 969 q 357 1079 363 1050 q 380 1013 372 1053 q 379 944 388 974 q 405 1017 397 972 q 401 1093 413 1061 q 424 1020 417 1064 q 424 944 432 976 q 451 1013 442 971 q 454 1086 460 1054 q 481 1018 472 1060 q 485 944 489 976 q 511 1011 504 969 q 507 1082 518 1053 q 528 1015 522 1056 q 529 944 535 975 q 553 1005 544 968 q 554 1068 563 1042 q 578 1008 569 1044 q 579 944 588 971 q 610 1008 600 967 q 613 1081 619 1050 q 635 1037 625 1063 q 647 985 644 1011 q 658 1024 651 1004 q 676 1054 665 1043 q 683 997 675 1029 q 707 944 692 964 q 743 1015 728 971 q 757 1092 758 1058 q 785 1050 774 1076 q 803 995 797 1024 q 807 944 810 967 q 858 947 828 940 q 906 963 888 953 q 885 917 901 943 q 850 879 868 890 q 894 860 865 865 q 944 857 924 854 q 899 838 928 844 q 850 836 871 831 q 897 815 867 821 q 949 817 928 810 q 915 801 936 807 q 1011 774 972 796 q 928 778 976 786 q 850 751 881 771 q 867 690 851 725 q 903 639 883 656 q 843 660 876 642 q 793 699 810 678 q 806 653 793 686 q 833 590 819 619 q 850 593 843 593 q 843 572 847 585 q 863 544 856 550 q 840 561 856 547 q 836 519 836 540 q 843 483 836 497 q 902 501 869 485 q 951 538 935 518 q 929 496 944 518 q 896 458 914 474 q 962 481 925 474 q 1028 483 999 488 q 955 448 993 474 q 897 393 917 422 q 974 374 928 378 q 1051 382 1019 371 q 985 338 1026 358 q 910 321 943 318 q 953 278 922 300 q 1006 250 983 257 q 953 222 990 232 q 892 213 915 213 q 936 185 914 207 q 968 143 958 163 q 920 165 950 156 q 868 169 890 174 q 874 115 865 149 q 899 67 883 82 q 845 74 878 64 q 797 99 813 85 q 786 45 789 79 q 792 -7 783 11 q 744 14 772 -6 q 703 50 715 33 q 683 -8 689 29 q 682 -69 676 -46 q 642 -38 664 -61 q 611 8 621 -15 q 613 -70 619 -26 q 593 -144 607 -114 q 582 -59 599 -107 q 539 15 565 -11 q 515 -53 522 -11 q 517 -125 508 -94 q 490 -83 503 -108 q 453 -31 478 -58 q 378 21 428 -3 m 274 729 q 253 694 261 717 q 244 651 246 672 q 292 629 268 643 q 273 678 279 649 q 274 729 267 708 m 400 729 q 392 704 400 719 q 401 704 396 704 q 403 714 403 710 q 400 729 401 722 m 313 729 q 292 681 297 711 q 292 629 288 650 q 344 588 325 610 q 325 644 331 608 q 328 706 319 681 q 356 667 336 686 q 338 701 353 682 q 313 729 324 721 m 417 626 q 403 683 406 649 q 383 692 392 686 q 358 664 369 669 q 387 641 371 651 q 417 626 403 631 m 750 663 q 753 636 753 653 q 751 607 754 619 q 767 638 760 621 q 750 663 754 653 m 769 585 q 789 569 779 578 q 817 583 803 578 q 778 624 796 603 q 769 585 774 603 m 717 554 q 735 578 724 558 q 713 582 724 581 q 717 554 713 565 m 753 540 q 779 563 763 551 q 764 568 772 565 q 753 540 758 547 m 376 346 q 369 353 372 349 q 376 308 376 333 q 369 264 375 282 q 400 308 378 285 q 442 336 422 331 q 427 378 432 356 q 425 418 422 401 q 394 385 411 408 q 376 346 378 363 m 465 294 q 473 259 465 281 q 492 228 481 238 q 503 274 501 246 q 501 325 506 301 q 463 306 471 313 q 500 333 469 315 q 497 343 499 339 l 499 342 q 495 383 494 361 q 501 418 496 404 q 470 364 482 400 q 463 303 458 328 q 443 333 451 314 q 428 283 432 313 q 429 233 424 254 q 442 267 431 247 q 465 294 453 288 m 590 378 q 588 378 589 378 l 590 378 m 585 376 q 579 375 582 376 q 585 376 582 375 m 575 258 q 571 268 574 263 q 575 258 574 263 z "},"4":{"ha":1021,"x_min":-49,"x_max":1111,"o":"m 517 60 q 484 65 503 58 q 450 79 465 71 q 390 56 418 61 q 429 96 411 71 l 428 97 l 431 97 q 456 140 446 117 q 467 183 467 164 q 435 144 451 172 q 417 96 419 115 q 385 136 401 108 q 367 183 368 164 q 349 134 365 163 q 317 92 333 106 q 301 142 318 113 q 268 183 283 171 q 258 122 271 157 q 226 68 244 86 q 214 129 226 94 q 185 183 201 164 q 158 112 164 157 q 160 33 153 67 q 133 107 142 63 q 135 183 124 151 q 111 122 118 160 q 113 56 104 83 q 90 117 96 79 q 90 183 83 156 q 44 158 75 167 q -10 151 13 150 q 35 181 13 158 q 64 226 57 204 q 11 257 46 244 q -49 265 -24 269 q 4 294 -31 283 q 64 303 39 306 q 15 328 47 319 q -40 333 -17 338 q -5 353 -26 344 q 38 365 17 363 q -10 379 14 368 q -49 404 -35 390 q 11 397 -25 393 q 71 414 47 401 q 28 449 49 424 q 1 497 8 474 q 47 466 17 479 q 100 453 76 453 q 36 510 68 471 q -3 583 4 549 q 69 539 22 557 q 151 519 115 521 q 88 567 119 532 q 46 635 56 601 q 108 584 65 606 q 185 563 150 563 q 131 620 158 582 q 99 692 103 658 q 168 653 124 669 q 244 642 213 638 q 219 697 242 668 q 174 735 196 725 q 232 724 199 738 q 282 690 265 710 q 258 753 279 718 q 214 801 238 788 q 280 794 242 807 q 339 765 318 782 q 313 828 335 793 q 265 876 290 863 q 333 867 294 881 q 393 835 372 854 q 352 907 383 869 q 289 957 321 944 q 367 935 324 956 q 433 888 410 915 q 422 964 436 919 q 383 1031 407 1008 q 452 998 415 1025 q 507 944 489 971 q 536 990 524 961 q 555 1049 549 1018 q 557 1103 561 1079 q 594 1033 579 1078 q 608 954 610 989 q 622 994 611 972 q 646 1028 633 1017 q 658 983 644 1010 q 685 944 671 957 q 713 1008 703 968 q 718 1078 724 1049 q 747 1014 738 1054 q 751 944 757 974 q 792 944 767 942 q 831 957 817 947 q 819 917 831 940 q 794 885 807 894 q 855 858 817 868 q 921 851 893 847 q 860 823 899 833 q 794 818 822 813 q 835 802 810 808 q 878 803 860 796 q 854 790 868 796 q 926 767 897 785 q 858 768 897 772 q 794 747 819 764 q 842 731 813 735 q 893 731 871 726 q 863 715 881 721 q 943 686 911 708 q 865 685 910 692 q 794 658 821 678 q 877 646 829 663 q 953 606 925 629 q 868 593 917 608 q 794 553 819 578 q 842 528 814 539 q 899 514 871 518 q 893 569 900 546 q 917 511 910 547 q 944 513 932 510 q 919 494 935 503 q 915 410 928 446 q 961 460 942 425 q 983 526 981 496 q 980 458 989 497 q 954 394 971 419 q 1001 378 972 382 q 1051 378 1031 374 q 1003 361 1032 365 q 1057 340 1036 356 q 1003 338 1035 343 q 954 318 972 332 q 1001 299 971 304 q 1054 297 1032 293 q 986 274 1028 276 q 1053 256 1018 269 q 1111 225 1089 243 q 1027 220 1076 231 q 951 186 978 210 q 935 150 942 172 q 943 146 939 149 q 935 147 939 147 q 928 101 928 124 q 944 106 936 103 q 928 96 938 100 q 932 74 929 83 q 921 92 925 82 q 876 79 900 83 q 864 63 871 69 q 864 78 865 71 q 794 81 825 72 q 801 35 793 63 q 819 -7 808 7 q 775 3 801 -8 q 735 28 749 14 q 738 -20 743 8 q 721 -67 732 -49 q 723 -18 726 -46 q 708 28 719 10 q 710 -56 717 -7 q 683 -133 704 -104 q 686 -50 692 -99 q 658 28 681 -1 q 632 -49 639 -3 q 633 -131 625 -96 q 605 -55 611 -103 q 608 28 599 -7 q 576 -30 589 8 q 568 -96 563 -68 q 536 -33 550 -75 q 517 60 522 8 m 526 611 q 508 604 518 610 q 507 597 508 601 q 526 611 519 604 m 413 450 q 415 421 411 438 q 426 394 418 404 q 444 424 438 404 q 451 460 451 444 q 467 438 460 453 q 506 446 486 446 q 457 469 475 453 q 494 476 472 469 q 526 494 515 483 q 501 508 518 503 q 472 511 485 513 q 507 526 483 522 q 446 544 471 528 q 488 545 463 540 q 526 561 513 550 q 494 567 513 561 q 486 556 490 560 q 486 569 488 563 q 458 586 468 576 q 478 588 467 586 q 481 594 479 592 q 447 599 461 601 q 460 570 450 586 q 481 547 469 554 q 450 550 468 544 q 421 564 432 556 q 433 538 424 551 q 451 518 442 524 q 406 528 429 514 q 424 505 415 519 q 436 478 433 490 q 406 493 425 488 q 374 497 386 499 q 390 476 382 490 q 399 451 397 461 q 374 460 390 457 q 347 461 357 464 q 369 444 358 456 q 379 458 374 453 q 381 432 376 447 q 399 403 396 414 q 413 450 400 435 m 871 410 q 896 483 889 439 q 879 478 888 479 q 871 469 875 474 q 871 410 878 435 m 833 410 q 846 436 840 421 q 833 410 838 422 m 476 394 q 492 425 488 406 q 469 429 481 429 q 476 394 476 410 m 360 394 q 361 422 357 406 q 340 428 351 426 q 350 407 344 415 q 357 397 354 401 l 360 394 m 399 394 l 399 400 q 392 406 394 403 q 394 400 394 400 q 399 394 394 400 m 886 101 q 917 100 903 99 q 900 151 904 125 l 899 151 q 886 101 894 125 m 794 129 q 856 106 821 114 q 825 142 843 126 q 794 129 807 138 z "},"5":{"ha":958,"x_min":-67,"x_max":996,"o":"m 450 11 q 445 -73 456 -25 q 414 -150 435 -121 q 423 -67 428 -117 q 400 15 418 -17 q 356 -28 378 3 q 328 -82 335 -58 q 303 -33 314 -65 q 294 24 293 0 q 277 -29 290 -1 q 244 -71 264 -57 q 266 -15 260 -49 q 264 44 272 19 q 222 -2 254 21 q 165 -33 190 -25 q 178 29 178 -10 q 171 93 179 68 q 113 65 143 89 q 69 17 82 42 q 97 92 74 54 q 13 47 57 57 q 72 90 43 58 q 110 150 100 121 q 64 134 93 139 q 15 133 35 129 q 53 165 33 143 q 78 208 72 188 q 3 210 47 200 q -67 238 -40 221 q 6 257 -36 240 q 68 297 47 274 q 85 346 69 317 q 118 386 101 375 q 128 351 118 372 q 111 426 128 397 q 66 431 92 425 q 25 450 40 438 q 70 442 43 442 q 115 454 97 443 q 61 474 92 457 q 17 510 31 492 q 73 517 39 507 q 125 542 107 526 q 63 582 104 565 q -10 596 22 599 q 60 619 17 613 q 133 619 103 626 q 58 656 106 644 q -26 665 10 668 q 17 681 -8 675 q 68 686 42 686 q 28 708 44 696 q 88 703 53 701 q 144 718 122 706 q 100 757 131 738 q 46 779 69 776 q 90 805 61 793 q 143 818 119 817 q 101 831 124 821 q 67 856 78 842 q 117 856 88 851 q 161 872 146 860 q 100 888 135 874 q 49 922 65 901 q 110 916 72 911 q 171 935 147 921 q 165 1007 163 964 q 183 1075 167 1050 q 198 1004 182 1044 q 238 944 214 964 q 233 1017 228 975 q 254 1088 239 1058 q 249 1014 244 1057 q 271 944 253 971 q 286 986 281 961 q 288 1031 292 1011 q 303 993 297 1017 q 321 1046 307 1025 q 319 993 315 1024 q 338 944 324 963 q 358 1001 353 965 q 354 1061 363 1036 q 369 1024 364 1046 q 374 979 374 1001 q 387 1015 378 999 q 407 1042 396 1032 q 415 989 404 1019 q 443 944 426 958 q 460 997 444 967 q 493 1042 475 1028 q 509 988 493 1019 q 542 944 525 957 q 574 1007 563 967 q 583 1076 585 1047 q 617 1014 603 1054 q 625 944 632 974 q 658 1019 646 972 q 661 1100 671 1067 q 683 1053 674 1081 q 696 1000 692 1026 q 719 1067 701 1042 q 719 1003 711 1040 q 742 944 726 967 q 757 1026 739 981 q 801 1097 775 1072 q 798 1015 789 1064 q 824 935 807 965 q 867 930 842 939 q 908 910 893 921 q 863 906 889 913 q 824 886 838 899 q 878 870 846 886 q 925 838 911 854 q 871 821 903 838 q 824 788 839 804 q 888 775 851 790 q 942 738 924 760 q 877 747 917 749 q 814 729 838 744 q 795 686 803 713 q 792 640 788 660 q 769 694 776 663 q 750 635 765 657 q 749 683 756 656 q 731 729 743 711 q 712 690 718 715 q 707 647 706 665 q 687 686 694 661 q 682 729 679 711 q 653 682 665 714 q 657 644 653 664 q 669 610 661 624 q 703 630 685 614 q 729 658 721 646 q 740 622 738 646 q 736 583 742 597 q 798 626 768 593 q 836 690 828 660 q 820 617 838 658 q 779 556 803 576 q 819 578 799 560 q 849 617 840 597 q 813 549 840 579 q 884 585 840 571 q 961 600 928 599 q 917 565 939 589 q 881 512 896 540 q 861 458 865 483 q 914 482 882 474 q 971 488 946 490 q 919 464 946 483 q 878 424 892 444 q 940 415 903 428 q 996 386 978 403 q 939 358 972 379 q 894 315 906 338 q 939 308 914 318 q 979 286 964 299 q 933 288 960 290 q 890 276 907 285 q 945 247 915 269 q 988 200 975 224 q 925 208 963 208 q 864 197 888 208 q 937 158 899 186 q 993 97 975 129 q 926 146 971 126 q 843 164 881 165 q 865 91 846 132 q 908 29 885 50 q 834 47 876 28 q 774 93 792 67 q 790 24 775 63 q 829 -36 806 -15 q 788 -8 808 -28 q 754 33 768 11 q 768 -30 765 4 q 767 -90 771 -64 q 731 -17 761 -54 q 669 40 700 21 q 654 -37 654 10 q 667 -117 654 -85 q 613 -56 638 -99 q 589 19 589 -14 q 579 -22 583 10 q 573 -92 575 -54 q 572 -161 571 -129 q 576 -204 574 -193 q 558 -165 569 -196 q 537 -98 547 -135 q 521 -32 526 -61 q 516 -78 521 -56 q 500 -117 511 -100 q 498 -51 508 -89 q 450 11 488 -12 m 593 729 q 585 718 589 725 q 596 700 590 711 q 593 729 592 717 m 499 631 q 465 693 476 654 l 461 692 q 476 651 464 672 q 500 617 488 629 q 515 650 508 629 q 518 686 521 671 q 539 656 529 675 q 550 622 549 636 q 574 664 565 636 q 581 713 582 692 q 565 657 565 685 q 544 690 553 667 q 538 729 536 713 q 510 683 522 714 q 499 631 499 653 m 461 703 q 461 697 460 699 q 465 697 463 696 q 464 697 467 697 q 461 714 461 706 q 458 697 460 706 l 461 703 m 443 656 q 456 646 450 650 q 456 686 451 668 q 443 656 451 671 m 389 683 q 414 672 400 679 q 411 681 413 678 q 389 683 399 681 m 608 664 l 610 657 q 610 624 613 636 q 617 646 611 635 q 608 664 613 654 m 468 608 q 460 628 463 617 q 451 626 456 626 q 468 608 463 617 m 368 592 q 389 589 378 592 q 389 606 389 599 q 368 592 376 599 m 382 557 q 383 563 383 560 q 379 560 381 561 l 382 557 m 469 326 q 459 276 458 306 q 468 226 460 247 q 484 264 479 239 q 485 304 489 289 q 511 272 500 293 q 511 306 508 294 q 546 293 522 297 q 582 292 569 289 q 515 304 554 290 q 457 340 476 318 q 525 348 485 336 q 585 381 565 360 q 542 376 567 383 q 501 357 517 368 q 506 369 503 364 q 481 353 492 357 q 470 403 482 372 q 443 449 458 435 q 460 405 454 432 q 463 358 467 378 q 442 400 458 378 q 407 432 425 422 q 406 386 401 413 q 421 343 411 360 q 408 354 414 347 q 415 306 414 335 q 410 256 415 276 q 432 294 417 275 q 463 318 447 313 q 469 326 465 322 m 164 419 q 158 376 164 400 q 139 332 151 351 q 167 297 153 308 q 188 333 178 311 q 181 380 188 356 q 164 419 175 404 m 203 419 q 204 381 207 403 q 221 349 215 368 q 217 387 222 367 q 203 419 213 407 m 313 419 q 286 385 299 410 q 295 335 288 360 q 315 297 303 311 q 365 320 338 300 q 406 357 393 340 q 384 387 393 369 q 374 419 375 404 q 349 367 358 400 q 343 308 339 333 q 318 361 328 328 q 313 419 308 394 m 244 375 q 260 339 254 360 q 263 354 260 346 q 238 407 244 376 q 235 372 239 390 q 225 338 232 353 q 228 297 231 314 q 244 335 239 311 q 244 375 249 358 m 440 231 q 440 246 439 239 q 440 231 439 239 z "},"6":{"ha":961,"x_min":-69,"x_max":1043,"o":"m 469 14 q 459 -66 474 -21 q 421 -137 444 -111 q 424 -57 432 -104 q 396 19 415 -10 q 382 -27 394 -1 q 351 -75 369 -53 q 314 -108 332 -97 q 320 -60 321 -89 q 313 -3 319 -31 q 293 43 306 25 q 263 -15 288 15 q 214 -58 238 -44 q 235 3 231 -36 q 231 68 239 42 q 207 27 226 54 q 160 -32 188 0 q 104 -95 133 -64 q 51 -149 75 -126 q 13 -176 26 -171 q 41 -139 24 -167 q 78 -74 58 -111 q 116 3 99 -36 q 145 72 133 42 q 157 118 157 103 q 124 83 147 100 q 81 64 101 67 q 115 97 99 74 q 132 142 131 121 q 85 119 117 126 q 31 114 53 111 q 68 152 49 126 q 90 200 88 178 q 13 190 56 207 q -58 150 -31 174 q 2 202 -37 179 q 76 231 42 225 q -1 228 43 238 q -69 196 -44 218 q -8 239 -49 222 q 68 257 33 256 q 11 265 44 267 q -46 253 -22 264 q 3 284 -29 272 q 60 296 35 296 q 17 333 47 314 q -36 353 -14 353 q 9 388 -24 371 q 63 404 42 404 q -12 441 28 411 q -69 501 -53 471 q 11 483 -37 486 q 94 489 60 479 q 35 524 67 499 q -7 576 4 549 q 53 544 15 557 q 121 539 92 532 q 92 586 113 561 q 49 622 71 611 q 101 617 71 624 q 150 596 131 610 q 122 633 135 608 q 108 675 110 657 q 153 658 125 664 q 201 654 182 651 q 180 685 197 664 q 139 731 163 707 q 94 772 115 754 q 64 793 74 790 q 101 781 75 793 q 156 753 126 769 q 207 721 185 736 q 154 811 167 764 q 215 776 176 790 q 285 763 254 761 q 255 805 268 775 q 240 856 242 835 q 289 838 257 843 q 342 836 321 832 q 296 887 318 853 q 271 950 274 921 q 331 919 292 932 q 397 910 369 907 q 351 965 372 928 q 326 1033 331 1003 q 372 978 338 1004 q 438 944 406 951 q 472 998 457 961 q 489 1061 488 1035 q 525 1008 510 1044 q 542 944 540 971 q 560 989 554 961 q 561 1036 567 1017 q 578 991 572 1018 q 581 944 585 964 q 609 984 596 956 q 624 1032 622 1013 q 653 992 639 1019 q 668 944 668 964 q 692 1016 688 971 q 689 1093 697 1061 q 715 1021 707 1065 q 711 944 724 976 q 772 892 731 915 q 846 863 813 868 q 767 865 813 854 q 692 896 721 876 q 721 835 696 867 q 771 788 746 803 q 700 803 739 788 q 731 767 718 786 q 733 778 733 772 q 740 754 738 767 q 747 740 744 747 q 740 750 744 746 q 741 695 744 725 q 731 640 738 665 q 768 692 743 667 q 818 726 793 717 q 782 664 796 704 q 771 593 768 624 q 847 620 804 597 q 910 669 889 643 q 888 592 908 635 q 844 525 868 549 q 913 544 876 525 q 971 588 950 564 q 928 529 958 558 q 867 492 897 500 q 944 497 900 488 q 1015 529 989 507 q 960 474 997 500 q 890 442 924 447 q 968 439 924 431 q 1043 464 1013 447 q 977 422 1021 439 q 899 408 933 406 q 949 374 915 392 q 1007 358 982 357 q 959 321 993 339 q 900 304 925 303 q 944 273 919 296 q 975 231 968 250 q 922 231 954 236 q 871 214 889 226 q 945 181 907 210 q 1001 119 983 151 q 934 167 978 146 q 854 185 890 188 q 861 134 851 165 q 883 88 871 103 q 833 90 865 82 q 783 107 800 97 q 825 33 808 81 q 838 -50 842 -14 q 811 -3 831 -28 q 767 41 792 22 q 718 65 742 60 q 742 15 733 47 q 744 -42 751 -18 q 722 10 742 -17 q 682 50 703 36 q 694 -10 692 26 q 685 -68 696 -46 q 660 -12 679 -43 q 618 29 642 18 q 625 -41 626 0 q 608 -108 624 -82 q 591 -41 608 -78 q 553 18 574 -4 q 547 -29 556 -1 q 525 -72 538 -57 q 512 -25 526 -51 q 469 14 497 1 m 646 725 q 638 713 643 719 q 675 679 656 690 q 729 763 715 717 q 682 797 710 783 q 629 813 654 811 q 662 783 646 804 q 683 744 678 763 q 646 768 669 757 q 603 778 622 779 q 633 717 607 750 q 646 725 640 721 m 639 653 q 667 672 653 660 q 626 675 649 671 q 639 653 632 660 m 506 231 q 497 271 499 247 q 503 310 496 294 q 519 274 506 293 q 549 246 533 254 q 531 271 539 254 q 525 300 524 288 q 544 277 529 288 q 571 263 558 267 q 544 285 557 268 q 528 317 532 301 q 558 297 539 306 q 590 288 576 289 q 562 315 581 303 q 526 331 543 326 q 566 332 543 335 q 603 319 589 329 q 572 338 592 329 q 538 343 551 346 q 579 360 554 356 q 554 369 563 363 q 576 382 564 371 q 593 403 589 393 q 560 379 582 389 q 521 371 538 369 q 553 394 536 378 q 578 426 571 410 q 550 415 565 424 q 528 394 535 406 q 533 424 528 407 q 547 450 538 442 q 521 423 533 442 q 504 389 508 404 q 500 426 499 403 q 510 463 501 449 q 492 441 500 457 q 485 414 485 425 q 468 444 475 424 q 470 406 469 428 q 468 376 471 383 q 463 401 469 383 q 449 436 457 418 q 436 458 440 454 q 444 432 442 449 q 442 406 446 415 q 425 426 438 415 q 401 440 413 438 q 417 421 410 433 q 425 397 425 408 q 405 413 418 406 q 382 421 392 419 q 408 404 394 417 q 426 379 421 392 q 399 392 417 388 q 368 396 381 397 q 404 387 378 396 q 456 366 431 378 q 488 347 481 354 q 452 358 479 353 q 397 365 425 363 q 360 364 368 367 q 393 349 372 354 q 429 347 414 343 q 390 331 414 336 q 414 324 404 328 q 390 309 403 321 q 374 286 378 297 q 403 306 383 299 q 439 315 424 314 q 415 288 426 307 q 403 254 404 268 q 422 278 408 265 q 446 294 435 290 q 437 266 439 283 q 438 236 435 249 q 449 259 439 246 q 467 278 458 272 q 474 253 465 268 q 506 231 482 238 z "},"7":{"ha":868,"x_min":-97,"x_max":967,"o":"m 183 31 q 144 87 172 57 q 88 124 115 117 q 155 130 114 135 q 221 111 196 125 q 186 158 211 133 q 138 189 161 182 q 195 192 161 197 q 251 176 229 188 q 197 230 235 206 q 126 260 158 254 q 179 257 150 264 q 235 238 208 250 q 203 276 211 257 q 245 260 218 265 q 290 263 272 256 q 246 288 269 268 q 211 326 222 307 q 260 309 229 314 q 313 307 290 304 q 251 331 283 310 q 203 376 218 353 q 261 345 225 358 q 326 338 297 332 q 283 391 314 364 q 225 424 253 418 q 292 426 253 433 q 357 403 332 419 q 309 460 342 432 q 247 500 276 489 q 303 506 269 508 q 364 493 336 504 q 283 568 317 524 q 278 560 281 564 q 281 572 279 565 q 267 594 272 585 q 281 588 274 592 q 274 655 282 619 q 253 715 267 690 q 216 657 231 697 q 200 588 201 617 q 164 647 181 608 q 149 715 147 686 q 119 645 129 689 q 121 571 110 601 q 93 641 103 597 q 93 715 83 685 q 33 709 69 707 q -26 722 -3 711 q 26 752 -3 729 q 67 797 54 775 q -14 822 35 815 q -97 817 -62 828 q -17 840 -65 835 q 67 835 32 846 q 16 853 47 849 q -37 851 -15 858 q 13 869 -18 865 q 67 868 43 874 q 50 904 64 883 q 22 932 36 925 q 60 944 35 940 q 99 944 85 947 q 124 993 113 963 q 132 1046 136 1024 q 157 998 147 1029 q 165 944 167 967 q 189 990 179 961 q 197 1042 199 1019 q 224 997 214 1026 q 231 944 235 967 q 263 994 249 961 q 278 1053 276 1028 q 310 1002 294 1035 q 325 946 326 969 q 343 1006 326 972 q 378 1057 360 1039 q 393 997 375 1032 q 431 944 411 961 q 460 1007 450 967 q 463 1076 469 1047 q 492 1014 482 1054 q 496 944 501 974 q 528 1004 515 965 q 538 1072 542 1043 q 565 1024 553 1054 q 579 965 576 993 q 591 1031 581 996 q 621 1085 601 1067 q 628 1010 617 1053 q 663 944 640 968 q 694 1008 682 967 q 703 1079 706 1049 q 738 1013 725 1057 q 749 1066 740 1040 q 769 1110 757 1092 q 767 1026 757 1075 q 794 944 776 976 q 853 935 818 946 q 903 906 888 924 q 849 884 879 903 q 804 846 818 865 q 879 849 836 854 q 953 829 922 844 q 877 835 921 840 q 804 813 833 829 q 887 821 838 826 q 967 796 936 815 q 884 803 932 808 q 804 779 836 797 q 889 766 842 785 q 964 724 936 747 q 878 731 929 738 q 796 707 828 725 q 843 685 818 703 q 878 649 868 668 q 831 670 860 663 q 779 672 801 678 q 839 631 808 661 q 882 572 869 600 q 812 592 856 589 q 740 586 768 596 q 788 521 753 556 q 854 475 822 486 q 785 467 826 464 q 711 482 743 469 q 774 435 743 465 q 818 375 804 404 q 767 396 797 389 q 705 403 736 403 q 650 396 674 403 q 695 341 664 369 q 754 301 726 313 q 683 301 725 294 q 615 321 642 307 q 646 271 622 297 q 690 233 669 244 q 633 223 669 222 q 575 235 596 224 q 636 178 596 206 q 711 150 676 151 q 618 165 667 149 q 638 142 631 154 q 592 163 621 156 q 543 165 564 169 q 595 95 557 131 q 668 47 633 60 q 613 42 644 42 q 549 49 581 42 q 497 69 518 56 q 488 26 490 54 q 490 -18 486 -1 q 449 -1 474 -15 q 415 28 425 14 q 410 -44 421 -3 q 381 -112 399 -86 q 377 -40 389 -82 q 344 28 365 3 q 319 -35 328 4 q 318 -104 311 -75 q 290 -40 300 -79 q 290 28 281 0 q 267 -13 276 14 q 260 -60 257 -40 q 237 -19 246 -46 q 231 28 228 8 q 210 -22 217 8 q 208 -76 203 -53 q 187 -26 194 -57 q 183 31 179 6 m 375 715 q 361 696 368 707 q 376 703 368 700 q 375 715 375 710 m 421 617 q 401 644 411 626 q 383 681 390 663 q 353 682 367 682 q 339 639 343 660 q 398 619 367 626 q 454 614 429 613 q 424 632 440 618 q 421 617 421 624 m 310 657 q 318 651 314 654 q 307 681 311 665 q 304 631 308 657 q 292 583 300 606 q 367 568 325 572 q 436 574 408 564 q 386 590 413 576 q 339 624 360 604 l 339 619 q 329 632 333 625 q 310 657 317 644 m 471 650 q 435 668 456 660 q 428 650 431 660 q 471 650 453 646 z "},"8":{"ha":989,"x_min":-53,"x_max":1040,"o":"m 421 17 q 372 -56 394 -10 q 351 -139 350 -101 q 331 -87 338 -118 q 324 -25 324 -57 q 332 31 324 7 q 290 -4 313 18 q 251 -52 268 -26 q 232 -101 235 -78 q 217 -33 218 -74 q 225 40 217 7 q 193 -12 214 14 q 150 -50 172 -37 q 190 10 174 -29 q 203 81 206 50 q 147 49 176 74 q 106 -3 117 24 q 119 57 106 24 q 153 110 133 90 q 107 88 136 96 q 57 82 78 79 q 92 124 76 94 q 110 175 108 153 q 38 152 82 157 q -37 157 -7 147 q 31 189 -6 164 q 85 242 68 214 q 31 259 63 242 q -12 294 0 276 q 40 315 10 297 q 83 350 71 332 q 21 397 61 376 q -53 424 -19 418 q 26 425 -19 431 q 96 400 71 419 q 57 447 75 415 q 35 504 39 479 q 78 482 51 492 q 129 469 106 472 q 147 524 142 493 q 147 576 153 556 q 84 568 119 579 q 28 538 49 557 q 69 585 40 563 q 126 617 99 608 q 83 628 110 626 q 38 625 56 631 q 71 656 47 642 q 114 672 94 669 q 38 677 81 667 q -32 706 -4 688 q 44 706 0 699 q 115 732 88 713 q 67 763 92 738 q 31 811 42 789 q 89 806 53 803 q 146 821 125 810 q 108 894 140 857 q 44 951 75 932 q 97 940 68 951 q 151 910 126 928 q 189 871 176 892 q 163 938 172 896 q 158 1011 154 981 q 207 956 174 985 q 269 919 240 926 q 280 997 283 950 q 258 1071 276 1043 q 311 1015 288 1054 q 339 942 335 975 q 354 996 351 963 q 350 1053 357 1029 q 382 1006 367 1036 q 399 953 397 976 q 424 1001 415 968 q 431 1057 433 1035 q 458 1018 444 1043 q 475 971 472 993 q 484 1047 474 1006 q 517 1110 494 1088 q 519 1031 510 1076 q 549 957 529 985 q 552 999 546 975 q 571 1039 558 1024 q 565 995 564 1021 q 576 954 567 969 q 592 1027 575 986 q 633 1089 608 1068 q 626 1015 622 1058 q 643 943 629 971 q 699 988 669 957 q 738 1046 729 1018 q 752 977 750 1021 q 743 907 754 933 q 797 935 768 914 q 839 978 826 957 q 831 918 842 953 q 803 864 821 883 q 884 875 838 863 q 957 910 931 888 q 918 838 951 875 q 854 785 885 801 q 919 786 882 779 q 981 810 957 793 q 914 767 957 782 q 974 756 951 768 q 919 748 950 760 q 868 719 888 736 q 905 685 879 703 q 950 663 931 667 q 908 636 938 649 q 860 622 879 624 q 888 574 865 600 q 932 535 911 547 q 889 532 915 529 q 872 513 881 524 q 943 485 911 489 q 856 481 904 472 q 850 454 850 467 q 933 472 886 456 q 1004 515 981 488 q 957 446 990 482 q 892 394 924 410 q 968 388 924 385 q 1040 410 1013 392 q 984 365 1021 385 q 915 340 947 346 q 972 336 940 343 q 1022 314 1004 329 q 963 308 997 319 q 910 279 929 297 q 968 260 936 276 q 1015 224 1000 244 q 955 231 992 233 q 897 214 918 228 q 944 187 918 206 q 979 147 969 168 q 928 166 960 158 q 875 168 897 174 q 897 97 875 138 q 946 40 919 57 q 873 56 914 38 q 811 99 832 75 q 803 42 801 79 q 817 -15 806 6 q 769 5 796 -12 q 729 42 743 22 q 747 -10 742 19 q 744 -62 751 -40 q 729 -6 746 -37 q 692 40 713 25 q 667 -36 675 11 q 669 -114 658 -83 q 618 -54 643 -94 q 588 19 593 -14 q 555 -51 565 -6 q 549 -131 544 -97 q 518 -90 533 -115 q 480 -35 503 -64 q 421 17 457 -7 m 517 575 q 522 608 522 589 q 517 642 522 628 q 542 613 531 632 q 539 643 538 631 q 563 626 546 635 q 592 619 581 618 q 571 635 582 622 q 557 658 560 649 q 583 658 567 656 q 610 665 600 660 q 581 669 597 664 q 556 682 564 675 q 583 692 567 682 q 604 711 599 701 q 569 708 590 714 q 536 694 547 703 q 552 726 540 708 q 576 751 564 743 q 548 734 563 746 q 529 710 533 722 q 531 741 526 722 q 542 771 535 760 q 523 753 533 767 q 510 731 513 740 q 497 753 503 738 q 493 779 492 769 q 482 742 483 765 q 485 701 481 718 q 465 736 472 714 q 458 775 457 758 q 457 742 454 761 q 467 711 460 724 q 445 735 456 719 q 431 764 435 751 q 438 731 431 750 q 457 703 444 713 q 426 719 443 707 q 404 744 410 731 q 415 719 406 733 q 433 700 424 704 q 411 694 425 696 q 444 675 433 688 q 411 667 431 675 q 382 647 392 658 q 413 646 394 644 q 442 654 432 647 q 438 639 442 647 q 461 654 450 650 q 440 623 449 643 q 432 588 431 603 q 451 603 442 592 q 461 625 460 615 q 464 596 467 613 q 482 621 471 613 q 486 597 479 611 q 517 575 493 582 m 819 556 q 840 535 828 544 q 850 540 844 538 q 819 556 831 546 m 850 528 q 860 521 854 524 q 878 533 868 528 q 860 538 868 535 q 850 528 854 533 m 824 476 q 829 488 826 482 l 828 488 q 824 476 825 482 m 407 385 q 428 342 410 364 q 497 308 465 326 q 508 369 501 338 q 521 408 515 400 q 504 381 510 400 q 500 347 499 361 q 488 378 492 360 q 476 346 485 358 q 468 378 478 360 q 447 404 458 396 q 443 381 443 396 q 446 357 443 365 q 424 368 438 360 q 407 385 411 376 m 550 201 q 548 235 551 215 q 536 265 544 254 q 564 249 549 261 q 588 226 579 238 q 572 254 583 239 q 550 275 561 269 q 576 274 561 278 q 565 286 568 279 q 592 283 575 282 q 618 290 608 283 q 583 294 603 289 q 550 307 563 299 q 584 316 565 307 q 613 336 603 325 q 584 338 603 340 q 557 329 565 336 q 567 356 558 342 q 586 378 576 371 q 557 361 572 375 q 536 335 542 347 q 541 367 533 349 q 558 397 549 386 q 535 360 550 389 q 508 303 519 331 q 529 286 525 292 q 506 294 524 290 q 494 260 494 269 q 496 297 493 269 q 449 307 475 303 q 400 313 422 311 q 368 313 378 314 q 398 309 381 314 q 424 297 415 304 q 395 290 411 297 q 372 272 379 282 q 409 273 388 269 q 443 285 431 276 q 419 257 436 271 q 431 260 422 258 q 408 218 413 243 q 430 227 418 218 q 447 244 442 236 q 452 221 451 236 q 449 197 453 206 q 468 220 458 204 q 478 249 478 236 q 498 222 486 239 q 550 201 510 206 z "},"9":{"ha":949,"x_min":-67,"x_max":1032,"o":"m 224 42 q 201 86 218 63 q 165 119 183 110 q 213 111 186 122 q 257 86 240 100 q 219 139 247 113 q 164 176 190 165 q 227 156 193 175 q 276 113 261 138 q 240 185 271 147 q 178 242 208 224 q 268 222 219 243 q 276 285 276 251 q 268 344 275 319 q 206 290 236 328 q 171 215 176 251 q 176 307 164 258 q 115 253 149 269 q 163 313 143 272 q 183 388 182 354 q 124 334 164 360 q 50 307 83 308 q 96 372 75 329 q 118 449 117 414 q 70 433 101 436 q 19 439 39 431 q 53 475 36 450 q 75 519 71 500 q 3 511 46 511 q -67 526 -40 511 q 1 551 -36 529 q 58 596 38 572 q 11 609 39 606 q -36 606 -17 613 q 8 624 -21 619 q 57 624 36 629 q 18 658 46 642 q -31 679 -10 675 q 16 703 -15 693 q 68 711 47 713 q 4 737 39 715 q -46 783 -31 758 q 19 760 -22 767 q 89 763 60 754 q 61 807 82 783 q 21 840 40 831 q 74 838 43 846 q 121 814 104 829 q 93 885 117 847 q 42 942 69 924 q 113 914 74 936 q 171 865 151 892 q 149 928 156 888 q 150 996 142 969 q 196 946 163 971 q 257 917 229 921 q 250 967 249 936 q 261 1014 251 997 q 288 974 268 996 q 325 940 307 951 q 343 1013 339 969 q 335 1085 347 1056 q 378 1026 360 1065 q 396 954 396 986 q 420 995 410 967 q 426 1042 431 1024 q 453 1008 440 1032 q 468 965 465 985 q 480 1047 465 1001 q 518 1114 494 1092 q 523 1031 514 1079 q 553 954 532 983 q 583 991 568 965 q 600 1038 599 1017 q 617 992 613 1021 q 618 943 622 963 q 650 981 635 956 q 667 1026 665 1006 q 675 978 675 1007 q 667 929 675 949 q 722 988 697 947 q 751 1064 746 1029 q 751 984 761 1031 q 719 908 740 938 q 767 959 743 926 q 794 1021 790 992 q 779 954 793 992 q 743 896 765 917 q 799 921 768 901 q 842 961 829 940 q 835 902 846 938 q 806 849 824 867 q 879 884 832 871 q 960 893 926 897 q 920 858 940 881 q 885 810 900 836 q 867 763 869 785 q 944 801 897 785 q 1026 808 990 817 q 946 785 989 806 q 876 736 903 764 q 929 722 896 724 q 983 728 963 719 q 941 695 969 710 q 889 676 913 681 q 949 671 915 681 q 1006 646 983 661 q 945 641 981 651 q 890 613 910 631 q 942 597 914 611 q 995 563 971 583 q 1032 522 1019 543 q 977 533 1008 531 q 915 531 946 535 q 864 515 885 528 q 938 474 900 506 q 993 408 975 442 q 917 449 967 435 q 832 457 868 464 q 872 409 853 443 q 892 351 892 375 q 834 371 872 365 q 772 368 796 376 q 808 328 790 357 q 826 278 825 300 q 777 299 808 290 q 724 303 746 307 q 769 268 747 294 q 797 218 792 242 q 750 250 782 238 q 694 263 718 263 q 736 201 703 231 q 800 158 769 172 q 753 169 778 158 q 706 196 728 181 q 749 110 740 151 q 683 143 726 131 q 611 151 640 156 q 629 103 614 131 q 660 63 644 75 q 619 63 643 58 q 576 75 596 67 q 620 31 600 60 q 647 -24 640 1 q 588 17 625 -1 q 522 35 551 36 q 494 -33 504 10 q 489 -107 483 -76 q 453 -55 468 -89 q 435 10 439 -21 q 423 -65 435 -24 q 389 -131 411 -107 q 381 -49 396 -96 q 346 28 367 -1 q 321 -26 329 8 q 318 -86 313 -61 q 293 -29 301 -65 q 280 -84 290 -57 q 256 -129 269 -111 q 250 -47 260 -94 q 224 42 240 1 m 496 508 q 502 547 503 524 q 494 583 501 569 q 524 560 508 578 q 543 528 539 543 q 536 553 543 539 q 521 576 529 568 q 544 571 531 576 q 521 597 529 583 q 553 589 533 590 q 585 592 572 588 q 544 596 567 589 q 507 615 521 603 q 548 610 524 610 q 589 619 572 611 q 556 633 576 628 q 521 635 535 639 q 549 656 531 646 q 583 665 568 665 q 556 669 574 669 q 529 664 539 669 q 540 689 531 675 q 558 710 550 703 q 526 690 543 704 q 500 661 508 675 q 510 704 499 679 q 499 694 504 697 q 501 719 501 704 q 494 742 500 733 q 491 710 496 728 q 476 683 486 693 q 476 715 479 696 q 465 743 474 733 q 457 706 457 729 q 463 668 457 683 q 442 701 450 679 q 438 739 435 722 q 434 709 433 728 q 442 681 435 690 q 418 698 431 685 q 401 722 406 711 q 413 688 401 707 q 436 660 424 669 q 400 666 421 657 q 369 685 379 675 q 397 659 378 672 q 431 643 415 646 q 394 636 417 636 q 421 619 413 629 q 388 610 407 621 q 360 590 369 600 q 390 585 371 585 q 419 592 408 586 q 411 575 417 583 q 439 588 426 585 q 415 560 426 579 q 403 526 403 542 q 415 545 406 535 q 435 558 425 556 q 427 537 429 550 q 428 514 425 524 q 439 552 429 531 q 461 583 449 574 q 463 544 457 568 q 496 508 468 521 m 326 328 q 321 293 326 313 q 336 304 329 300 q 326 328 332 319 m 369 236 q 324 275 344 246 q 315 274 319 274 q 303 249 310 261 q 369 236 339 233 m 389 263 q 351 274 375 271 l 350 272 q 389 263 371 263 m 282 217 q 310 200 297 208 q 290 229 299 213 q 282 217 286 222 z "},"A":{"ha":1049,"x_min":-47,"x_max":1160,"o":"m 51 100 q -3 124 26 103 q -47 167 -32 146 q 12 151 -24 156 q 72 158 47 147 q 31 178 53 161 q 0 213 8 194 q 44 203 17 204 q 90 210 72 201 q 28 235 61 213 q -22 282 -6 258 q 43 261 3 265 q 110 268 83 257 q 65 309 96 290 q 7 331 33 328 q 63 333 31 336 q 29 352 44 342 q 6 375 14 363 q 69 349 31 360 q 138 347 108 338 q 92 364 117 349 q 56 396 68 379 q 101 381 72 385 q 150 383 131 376 q 95 435 132 410 q 26 465 58 460 q 102 472 57 476 q 175 451 147 468 q 113 497 154 478 q 39 517 72 515 q 74 519 54 519 q 43 547 54 532 q 115 515 71 525 q 194 510 160 506 q 131 535 165 514 q 83 581 97 556 q 147 561 107 565 q 215 567 188 557 q 167 620 200 593 q 104 656 133 647 q 171 667 131 665 q 239 658 211 668 q 203 683 221 667 q 178 715 185 699 q 224 710 196 710 q 268 719 251 710 q 206 753 239 726 q 160 807 172 779 q 231 795 188 796 q 299 808 274 794 q 256 819 286 808 q 190 847 225 831 q 126 879 154 863 q 89 906 97 896 q 130 887 99 897 q 199 867 161 876 q 269 853 236 858 q 314 850 301 847 q 270 892 293 863 q 242 946 247 922 q 302 934 264 936 q 361 943 340 932 q 376 985 371 960 q 375 1029 381 1011 q 394 981 389 1011 q 408 1040 397 1010 q 433 1088 418 1069 q 442 1013 429 1056 q 472 944 454 971 q 479 1015 469 975 q 508 1078 489 1054 q 511 1008 500 1049 q 543 944 522 967 q 560 985 556 960 q 563 1031 565 1011 q 582 982 576 1011 q 615 1074 589 1035 q 621 1006 611 1044 q 647 944 631 968 q 686 1007 671 967 q 703 1079 701 1047 q 717 1007 718 1051 q 703 933 715 963 q 765 942 731 932 q 821 968 799 951 q 776 924 808 943 q 717 903 744 906 q 797 894 750 892 q 875 911 844 896 q 820 851 861 879 q 746 818 779 824 q 826 807 778 806 q 904 826 874 808 q 869 784 893 806 q 819 749 846 763 q 886 744 858 754 q 834 722 863 742 q 793 682 806 703 q 842 678 814 676 q 890 689 871 681 q 868 664 883 676 q 964 674 921 682 q 886 656 929 676 q 819 608 843 635 q 881 625 843 622 q 946 618 919 628 q 886 591 918 613 q 842 546 854 569 q 890 533 860 536 q 939 539 921 531 q 913 502 933 521 q 874 475 892 483 q 936 484 899 485 q 997 474 974 483 q 939 443 971 468 q 894 393 907 418 q 947 405 914 404 q 999 394 979 406 q 951 371 976 390 q 917 331 925 351 q 985 320 943 318 q 1053 338 1026 322 q 1015 294 1040 315 q 963 264 989 274 q 1008 264 983 267 q 1049 254 1033 261 q 1002 225 1028 246 q 968 183 976 204 q 1026 191 990 192 q 1082 181 1061 190 q 1031 151 1058 175 q 996 106 1004 128 q 1075 135 1025 128 q 1160 131 1125 143 q 1080 101 1124 125 q 1015 47 1036 78 q 1044 28 1029 42 q 1064 -1 1058 14 q 1035 19 1054 11 q 1001 28 1017 28 q 980 -13 989 14 q 972 -60 971 -40 q 953 -33 961 -50 q 943 3 946 -15 q 933 -58 942 -26 q 908 -111 924 -90 q 904 -40 915 -81 q 876 28 893 1 q 843 -31 856 8 q 835 -99 831 -71 q 810 -58 821 -83 q 796 -10 800 -33 q 768 -92 792 -57 q 769 -30 775 -65 q 749 29 763 6 q 685 7 725 15 q 619 7 646 -1 q 675 44 646 17 q 714 100 704 72 q 658 51 696 74 q 590 26 621 29 q 619 58 606 38 q 602 86 610 68 q 590 122 594 104 q 579 68 589 96 q 557 22 569 40 q 553 90 563 51 q 526 154 544 129 q 506 100 514 133 q 506 42 499 67 q 484 96 490 63 q 483 154 478 129 q 467 110 471 138 q 469 63 464 82 q 453 118 456 85 q 433 63 446 88 q 492 -11 461 24 q 536 -54 522 -46 q 486 -22 521 -50 q 417 40 451 7 l 417 39 l 417 40 q 393 64 404 53 q 339 69 363 61 q 394 24 367 54 q 431 -33 421 -6 q 367 9 407 -10 q 293 28 326 28 q 268 -47 276 -3 q 269 -125 260 -92 q 240 -33 246 -87 q 224 -84 235 -60 q 197 -122 213 -108 q 186 -44 200 -89 q 151 28 172 1 q 148 -17 153 8 q 132 -58 143 -42 q 130 -14 136 -39 q 113 28 124 11 q 78 -35 92 6 q 72 -106 65 -76 q 40 -34 50 -85 q 51 100 31 17 m 486 628 q 501 622 493 626 q 510 629 506 626 q 486 628 496 631 m 568 606 q 528 614 553 614 l 526 608 q 543 592 538 599 q 568 606 556 603 m 519 613 l 519 614 q 518 614 519 614 l 519 613 m 467 564 q 502 554 483 564 q 526 535 521 544 q 556 549 542 540 q 579 569 571 558 q 555 576 571 575 q 529 574 539 578 q 542 590 533 582 q 508 596 528 596 l 507 592 l 506 596 q 475 590 488 596 q 497 581 485 589 q 515 564 510 572 q 491 569 506 568 q 467 564 476 569 m 515 478 q 513 479 515 478 q 522 415 514 451 q 535 369 529 379 q 538 403 533 383 q 551 435 542 424 q 553 408 550 424 q 586 421 568 410 q 585 449 588 436 q 596 428 592 440 q 617 449 610 438 q 588 456 606 454 q 557 453 569 457 q 577 476 563 464 q 603 490 592 488 q 571 488 590 486 q 540 497 551 490 q 568 514 553 501 q 589 538 583 526 q 550 526 574 528 q 511 531 526 525 q 524 533 517 532 q 491 541 510 540 q 460 538 472 542 q 483 528 469 536 q 501 511 496 519 q 476 515 492 515 q 451 511 461 515 q 479 503 464 511 q 507 486 494 496 q 514 506 510 500 q 513 481 511 499 l 515 478 m 443 485 q 469 461 451 472 q 499 449 486 450 q 506 482 501 468 q 473 489 490 488 q 443 485 456 490 m 450 443 q 493 415 475 433 q 497 446 494 431 q 450 443 475 439 m 438 401 q 463 385 451 394 q 471 411 468 397 q 436 410 453 413 q 438 401 436 406 m 628 411 q 626 411 628 411 q 619 407 625 411 q 619 403 619 406 q 628 411 624 407 m 483 410 q 490 383 489 397 q 492 408 490 393 q 483 410 488 408 m 419 407 q 421 406 419 407 q 429 404 422 406 q 432 410 431 407 q 450 412 442 411 q 453 411 458 413 q 419 407 449 410 m 568 369 q 583 401 578 382 q 553 407 564 401 q 568 369 557 383 m 453 369 l 456 374 q 449 375 451 375 q 453 369 450 372 m 654 154 q 629 108 640 138 q 621 60 618 79 q 644 108 635 82 q 654 154 654 133 m 378 154 q 389 131 381 146 q 410 97 397 115 q 378 154 397 135 z "},"":{"ha":1049,"x_min":-47,"x_max":1160,"o":"m 51 100 q -3 124 26 103 q -47 167 -32 146 q 12 151 -24 156 q 72 158 47 147 q 31 178 53 161 q 0 213 8 194 q 44 203 17 204 q 90 210 72 201 q 28 235 61 213 q -22 282 -6 258 q 43 261 3 265 q 110 268 83 257 q 65 309 96 290 q 7 331 33 328 q 63 333 31 336 q 29 352 44 342 q 6 375 14 363 q 69 349 31 360 q 138 347 108 338 q 92 364 117 349 q 56 396 68 379 q 101 381 72 385 q 150 383 131 376 q 95 435 132 410 q 26 465 58 460 q 102 472 57 476 q 175 451 147 468 q 113 497 154 478 q 39 517 72 515 q 74 519 54 519 q 43 547 54 532 q 115 515 71 525 q 194 510 160 506 q 131 535 165 514 q 83 581 97 556 q 147 561 107 565 q 215 567 188 557 q 167 620 200 593 q 104 656 133 647 q 171 667 131 665 q 239 658 211 668 q 203 683 221 667 q 178 715 185 699 q 224 710 196 710 q 268 719 251 710 q 206 753 239 726 q 160 807 172 779 q 231 795 188 796 q 299 808 274 794 q 256 819 286 808 q 190 847 225 831 q 126 879 154 863 q 89 906 97 896 q 130 887 99 897 q 199 867 161 876 q 269 853 236 858 q 314 850 301 847 q 270 892 293 863 q 242 946 247 922 q 302 934 264 936 q 361 943 340 932 q 376 985 371 960 q 375 1029 381 1011 q 394 981 389 1011 q 408 1040 397 1010 q 433 1088 418 1069 q 442 1013 429 1056 q 472 944 454 971 q 479 1015 469 975 q 508 1078 489 1054 q 511 1008 500 1049 q 543 944 522 967 q 560 985 556 960 q 563 1031 565 1011 q 582 982 576 1011 q 615 1074 589 1035 q 621 1006 611 1044 q 647 944 631 968 q 686 1007 671 967 q 703 1079 701 1047 q 717 1007 718 1051 q 703 933 715 963 q 765 942 731 932 q 821 968 799 951 q 776 924 808 943 q 717 903 744 906 q 797 894 750 892 q 875 911 844 896 q 820 851 861 879 q 746 818 779 824 q 826 807 778 806 q 904 826 874 808 q 869 784 893 806 q 819 749 846 763 q 886 744 858 754 q 834 722 863 742 q 793 682 806 703 q 842 678 814 676 q 890 689 871 681 q 868 664 883 676 q 964 674 921 682 q 886 656 929 676 q 819 608 843 635 q 881 625 843 622 q 946 618 919 628 q 886 591 918 613 q 842 546 854 569 q 890 533 860 536 q 939 539 921 531 q 913 502 933 521 q 874 475 892 483 q 936 484 899 485 q 997 474 974 483 q 939 443 971 468 q 894 393 907 418 q 947 405 914 404 q 999 394 979 406 q 951 371 976 390 q 917 331 925 351 q 985 320 943 318 q 1053 338 1026 322 q 1015 294 1040 315 q 963 264 989 274 q 1008 264 983 267 q 1049 254 1033 261 q 1002 225 1028 246 q 968 183 976 204 q 1026 191 990 192 q 1082 181 1061 190 q 1031 151 1058 175 q 996 106 1004 128 q 1075 135 1025 128 q 1160 131 1125 143 q 1080 101 1124 125 q 1015 47 1036 78 q 1044 28 1029 42 q 1064 -1 1058 14 q 1035 19 1054 11 q 1001 28 1017 28 q 980 -13 989 14 q 972 -60 971 -40 q 953 -33 961 -50 q 943 3 946 -15 q 933 -58 942 -26 q 908 -111 924 -90 q 904 -40 915 -81 q 876 28 893 1 q 843 -31 856 8 q 835 -99 831 -71 q 810 -58 821 -83 q 796 -10 800 -33 q 768 -92 792 -57 q 769 -30 775 -65 q 749 29 763 6 q 685 7 725 15 q 619 7 646 -1 q 675 44 646 17 q 714 100 704 72 q 658 51 696 74 q 590 26 621 29 q 619 58 606 38 q 602 86 610 68 q 590 122 594 104 q 579 68 589 96 q 557 22 569 40 q 553 90 563 51 q 526 154 544 129 q 506 100 514 133 q 506 42 499 67 q 484 96 490 63 q 483 154 478 129 q 467 110 471 138 q 469 63 464 82 q 453 118 456 85 q 433 63 446 88 q 492 -11 461 24 q 536 -54 522 -46 q 486 -22 521 -50 q 417 40 451 7 l 417 39 l 417 40 q 393 64 404 53 q 339 69 363 61 q 394 24 367 54 q 431 -33 421 -6 q 367 9 407 -10 q 293 28 326 28 q 268 -47 276 -3 q 269 -125 260 -92 q 240 -33 246 -87 q 224 -84 235 -60 q 197 -122 213 -108 q 186 -44 200 -89 q 151 28 172 1 q 148 -17 153 8 q 132 -58 143 -42 q 130 -14 136 -39 q 113 28 124 11 q 78 -35 92 6 q 72 -106 65 -76 q 40 -34 50 -85 q 51 100 31 17 m 486 628 q 501 622 493 626 q 510 629 506 626 q 486 628 496 631 m 568 606 q 528 614 553 614 l 526 608 q 543 592 538 599 q 568 606 556 603 m 519 613 l 519 614 q 518 614 519 614 l 519 613 m 467 564 q 502 554 483 564 q 526 535 521 544 q 556 549 542 540 q 579 569 571 558 q 555 576 571 575 q 529 574 539 578 q 542 590 533 582 q 508 596 528 596 l 507 592 l 506 596 q 475 590 488 596 q 497 581 485 589 q 515 564 510 572 q 491 569 506 568 q 467 564 476 569 m 515 478 q 513 479 515 478 q 522 415 514 451 q 535 369 529 379 q 538 403 533 383 q 551 435 542 424 q 553 408 550 424 q 586 421 568 410 q 585 449 588 436 q 596 428 592 440 q 617 449 610 438 q 588 456 606 454 q 557 453 569 457 q 577 476 563 464 q 603 490 592 488 q 571 488 590 486 q 540 497 551 490 q 568 514 553 501 q 589 538 583 526 q 550 526 574 528 q 511 531 526 525 q 524 533 517 532 q 491 541 510 540 q 460 538 472 542 q 483 528 469 536 q 501 511 496 519 q 476 515 492 515 q 451 511 461 515 q 479 503 464 511 q 507 486 494 496 q 514 506 510 500 q 513 481 511 499 l 515 478 m 443 485 q 469 461 451 472 q 499 449 486 450 q 506 482 501 468 q 473 489 490 488 q 443 485 456 490 m 450 443 q 493 415 475 433 q 497 446 494 431 q 450 443 475 439 m 438 401 q 463 385 451 394 q 471 411 468 397 q 436 410 453 413 q 438 401 436 406 m 628 411 q 626 411 628 411 q 619 407 625 411 q 619 403 619 406 q 628 411 624 407 m 483 410 q 490 383 489 397 q 492 408 490 393 q 483 410 488 408 m 419 407 q 421 406 419 407 q 429 404 422 406 q 432 410 431 407 q 450 412 442 411 q 453 411 458 413 q 419 407 449 410 m 568 369 q 583 401 578 382 q 553 407 564 401 q 568 369 557 383 m 453 369 l 456 374 q 449 375 451 375 q 453 369 450 372 m 654 154 q 629 108 640 138 q 621 60 618 79 q 644 108 635 82 q 654 154 654 133 m 378 154 q 389 131 381 146 q 410 97 397 115 q 378 154 397 135 m 411 1107 q 368 1139 389 1117 q 340 1182 347 1161 q 379 1147 353 1163 q 428 1129 406 1132 q 394 1160 411 1139 q 374 1201 376 1182 q 411 1174 386 1185 q 456 1163 436 1163 q 448 1207 457 1179 q 426 1246 439 1235 q 472 1247 443 1250 q 515 1235 500 1243 q 508 1276 517 1251 q 488 1313 500 1301 q 527 1298 506 1311 q 558 1271 549 1285 q 588 1314 575 1285 q 603 1364 601 1343 q 634 1321 619 1350 q 649 1271 649 1292 q 668 1297 658 1279 q 679 1326 678 1314 q 699 1301 689 1319 q 710 1271 710 1283 q 717 1317 707 1290 q 740 1358 726 1344 q 748 1312 739 1339 q 771 1271 757 1285 q 788 1319 782 1290 q 790 1369 794 1347 q 805 1341 800 1358 q 811 1306 810 1324 q 822 1344 814 1325 q 840 1375 829 1363 q 840 1319 835 1351 q 856 1267 844 1288 q 869 1235 863 1258 q 872 1200 875 1211 q 838 1202 861 1204 q 803 1193 814 1200 q 797 1153 797 1181 q 804 1115 797 1126 q 764 1117 790 1113 q 726 1131 738 1122 q 735 1085 726 1111 q 760 1047 744 1060 q 722 1061 742 1049 q 689 1089 701 1074 q 704 1055 699 1075 q 708 1019 710 1035 q 676 1046 697 1033 q 639 1060 656 1058 q 646 1015 646 1042 q 638 971 646 989 q 624 1013 638 990 q 594 1049 610 1036 q 580 1016 586 1036 q 575 981 574 996 q 560 1013 565 992 q 556 1049 554 1033 q 527 1021 543 1043 q 508 985 511 999 q 481 1013 496 992 q 463 1049 465 1035 q 458 1010 464 1032 q 443 975 453 988 q 440 1014 446 992 q 424 1049 433 1036 q 424 1006 429 1031 q 410 967 419 982 q 412 1016 414 985 q 411 1107 410 1047 z "},"":{"ha":1049,"x_min":-47,"x_max":1160,"o":"m 51 100 q -3 124 26 103 q -47 167 -32 146 q 12 151 -24 156 q 72 158 47 147 q 31 178 53 161 q 0 213 8 194 q 44 203 17 204 q 90 210 72 201 q 28 235 61 213 q -22 282 -6 258 q 43 261 3 265 q 110 268 83 257 q 65 309 96 290 q 7 331 33 328 q 63 333 31 336 q 29 352 44 342 q 6 375 14 363 q 69 349 31 360 q 138 347 108 338 q 92 364 117 349 q 56 396 68 379 q 101 381 72 385 q 150 383 131 376 q 95 435 132 410 q 26 465 58 460 q 102 472 57 476 q 175 451 147 468 q 113 497 154 478 q 39 517 72 515 q 74 519 54 519 q 43 547 54 532 q 115 515 71 525 q 194 510 160 506 q 131 535 165 514 q 83 581 97 556 q 147 561 107 565 q 215 567 188 557 q 167 620 200 593 q 104 656 133 647 q 171 667 131 665 q 239 658 211 668 q 203 683 221 667 q 178 715 185 699 q 224 710 196 710 q 268 719 251 710 q 206 753 239 726 q 160 807 172 779 q 231 795 188 796 q 299 808 274 794 q 256 819 286 808 q 190 847 225 831 q 126 879 154 863 q 89 906 97 896 q 130 887 99 897 q 199 867 161 876 q 269 853 236 858 q 314 850 301 847 q 270 892 293 863 q 242 946 247 922 q 302 934 264 936 q 361 943 340 932 q 376 985 371 960 q 375 1029 381 1011 q 394 981 389 1011 q 408 1040 397 1010 q 433 1088 418 1069 q 442 1013 429 1056 q 472 944 454 971 q 479 1015 469 975 q 508 1078 489 1054 q 511 1008 500 1049 q 543 944 522 967 q 560 985 556 960 q 563 1031 565 1011 q 582 982 576 1011 q 615 1074 589 1035 q 621 1006 611 1044 q 647 944 631 968 q 686 1007 671 967 q 703 1079 701 1047 q 717 1007 718 1051 q 703 933 715 963 q 765 942 731 932 q 821 968 799 951 q 776 924 808 943 q 717 903 744 906 q 797 894 750 892 q 875 911 844 896 q 820 851 861 879 q 746 818 779 824 q 826 807 778 806 q 904 826 874 808 q 869 784 893 806 q 819 749 846 763 q 886 744 858 754 q 834 722 863 742 q 793 682 806 703 q 842 678 814 676 q 890 689 871 681 q 868 664 883 676 q 964 674 921 682 q 886 656 929 676 q 819 608 843 635 q 881 625 843 622 q 946 618 919 628 q 886 591 918 613 q 842 546 854 569 q 890 533 860 536 q 939 539 921 531 q 913 502 933 521 q 874 475 892 483 q 936 484 899 485 q 997 474 974 483 q 939 443 971 468 q 894 393 907 418 q 947 405 914 404 q 999 394 979 406 q 951 371 976 390 q 917 331 925 351 q 985 320 943 318 q 1053 338 1026 322 q 1015 294 1040 315 q 963 264 989 274 q 1008 264 983 267 q 1049 254 1033 261 q 1002 225 1028 246 q 968 183 976 204 q 1026 191 990 192 q 1082 181 1061 190 q 1031 151 1058 175 q 996 106 1004 128 q 1075 135 1025 128 q 1160 131 1125 143 q 1080 101 1124 125 q 1015 47 1036 78 q 1044 28 1029 42 q 1064 -1 1058 14 q 1035 19 1054 11 q 1001 28 1017 28 q 980 -13 989 14 q 972 -60 971 -40 q 953 -33 961 -50 q 943 3 946 -15 q 933 -58 942 -26 q 908 -111 924 -90 q 904 -40 915 -81 q 876 28 893 1 q 843 -31 856 8 q 835 -99 831 -71 q 810 -58 821 -83 q 796 -10 800 -33 q 768 -92 792 -57 q 769 -30 775 -65 q 749 29 763 6 q 685 7 725 15 q 619 7 646 -1 q 675 44 646 17 q 714 100 704 72 q 658 51 696 74 q 590 26 621 29 q 619 58 606 38 q 602 86 610 68 q 590 122 594 104 q 579 68 589 96 q 557 22 569 40 q 553 90 563 51 q 526 154 544 129 q 506 100 514 133 q 506 42 499 67 q 484 96 490 63 q 483 154 478 129 q 467 110 471 138 q 469 63 464 82 q 453 118 456 85 q 433 63 446 88 q 492 -11 461 24 q 536 -54 522 -46 q 486 -22 521 -50 q 417 40 451 7 l 417 39 l 417 40 q 393 64 404 53 q 339 69 363 61 q 394 24 367 54 q 431 -33 421 -6 q 367 9 407 -10 q 293 28 326 28 q 268 -47 276 -3 q 269 -125 260 -92 q 240 -33 246 -87 q 224 -84 235 -60 q 197 -122 213 -108 q 186 -44 200 -89 q 151 28 172 1 q 148 -17 153 8 q 132 -58 143 -42 q 130 -14 136 -39 q 113 28 124 11 q 78 -35 92 6 q 72 -106 65 -76 q 40 -34 50 -85 q 51 100 31 17 m 486 628 q 501 622 493 626 q 510 629 506 626 q 486 628 496 631 m 568 606 q 528 614 553 614 l 526 608 q 543 592 538 599 q 568 606 556 603 m 519 613 l 519 614 q 518 614 519 614 l 519 613 m 467 564 q 502 554 483 564 q 526 535 521 544 q 556 549 542 540 q 579 569 571 558 q 555 576 571 575 q 529 574 539 578 q 542 590 533 582 q 508 596 528 596 l 507 592 l 506 596 q 475 590 488 596 q 497 581 485 589 q 515 564 510 572 q 491 569 506 568 q 467 564 476 569 m 515 478 q 513 479 515 478 q 522 415 514 451 q 535 369 529 379 q 538 403 533 383 q 551 435 542 424 q 553 408 550 424 q 586 421 568 410 q 585 449 588 436 q 596 428 592 440 q 617 449 610 438 q 588 456 606 454 q 557 453 569 457 q 577 476 563 464 q 603 490 592 488 q 571 488 590 486 q 540 497 551 490 q 568 514 553 501 q 589 538 583 526 q 550 526 574 528 q 511 531 526 525 q 524 533 517 532 q 491 541 510 540 q 460 538 472 542 q 483 528 469 536 q 501 511 496 519 q 476 515 492 515 q 451 511 461 515 q 479 503 464 511 q 507 486 494 496 q 514 506 510 500 q 513 481 511 499 l 515 478 m 443 485 q 469 461 451 472 q 499 449 486 450 q 506 482 501 468 q 473 489 490 488 q 443 485 456 490 m 450 443 q 493 415 475 433 q 497 446 494 431 q 450 443 475 439 m 438 401 q 463 385 451 394 q 471 411 468 397 q 436 410 453 413 q 438 401 436 406 m 628 411 q 626 411 628 411 q 619 407 625 411 q 619 403 619 406 q 628 411 624 407 m 483 410 q 490 383 489 397 q 492 408 490 393 q 483 410 488 408 m 419 407 q 421 406 419 407 q 429 404 422 406 q 432 410 431 407 q 450 412 442 411 q 453 411 458 413 q 419 407 449 410 m 568 369 q 583 401 578 382 q 553 407 564 401 q 568 369 557 383 m 453 369 l 456 374 q 449 375 451 375 q 453 369 450 372 m 654 154 q 629 108 640 138 q 621 60 618 79 q 644 108 635 82 q 654 154 654 133 m 378 154 q 389 131 381 146 q 410 97 397 115 q 378 154 397 135 m 428 1054 q 395 1015 410 1042 q 381 964 381 988 q 383 1017 376 988 q 401 1064 389 1046 q 359 1041 382 1058 q 325 1007 336 1024 q 328 1055 322 1026 q 346 1100 335 1083 q 297 1094 325 1104 q 256 1069 269 1083 q 274 1115 257 1090 q 308 1149 292 1139 q 281 1174 303 1160 q 246 1189 258 1188 q 262 1223 249 1200 q 286 1251 275 1246 q 296 1296 285 1268 q 319 1333 307 1324 q 346 1297 325 1318 q 382 1271 367 1276 q 398 1296 385 1279 q 428 1332 411 1313 q 461 1366 446 1351 q 485 1385 476 1381 q 476 1356 481 1378 q 467 1310 471 1335 q 462 1263 463 1285 q 464 1233 461 1242 q 504 1233 479 1229 q 500 1242 501 1238 q 517 1236 507 1239 q 564 1254 546 1242 q 556 1229 563 1243 q 586 1235 575 1229 q 589 1276 590 1250 q 578 1315 588 1301 q 615 1299 594 1314 q 646 1271 636 1285 q 667 1300 649 1282 q 694 1322 685 1318 q 717 1293 700 1311 q 744 1271 733 1275 q 785 1257 758 1260 q 829 1260 813 1254 q 799 1229 821 1244 q 761 1210 778 1214 q 806 1185 786 1206 q 779 1188 794 1189 q 754 1182 764 1188 q 790 1148 772 1174 q 811 1103 807 1122 q 763 1113 793 1111 q 714 1110 733 1115 q 721 1078 713 1096 q 739 1051 729 1060 q 708 1063 725 1053 q 685 1085 692 1072 q 681 1053 679 1072 q 689 1022 682 1033 q 661 1038 676 1025 q 640 1061 646 1050 q 640 1008 646 1040 q 619 960 633 976 q 597 1007 617 981 q 558 1043 578 1033 q 542 992 546 1024 q 546 940 538 961 q 528 972 538 953 q 496 1012 518 990 q 428 1054 474 1033 z "},"":{"ha":1049,"x_min":-47,"x_max":1160,"o":"m 51 100 q -3 124 26 103 q -47 167 -32 146 q 12 151 -24 156 q 72 158 47 147 q 31 178 53 161 q 0 213 8 194 q 44 203 17 204 q 90 210 72 201 q 28 235 61 213 q -22 282 -6 258 q 43 261 3 265 q 110 268 83 257 q 65 309 96 290 q 7 331 33 328 q 63 333 31 336 q 29 352 44 342 q 6 375 14 363 q 69 349 31 360 q 138 347 108 338 q 92 364 117 349 q 56 396 68 379 q 101 381 72 385 q 150 383 131 376 q 95 435 132 410 q 26 465 58 460 q 102 472 57 476 q 175 451 147 468 q 113 497 154 478 q 39 517 72 515 q 74 519 54 519 q 43 547 54 532 q 115 515 71 525 q 194 510 160 506 q 131 535 165 514 q 83 581 97 556 q 147 561 107 565 q 215 567 188 557 q 167 620 200 593 q 104 656 133 647 q 171 667 131 665 q 239 658 211 668 q 203 683 221 667 q 178 715 185 699 q 224 710 196 710 q 268 719 251 710 q 206 753 239 726 q 160 807 172 779 q 231 795 188 796 q 299 808 274 794 q 256 819 286 808 q 190 847 225 831 q 126 879 154 863 q 89 906 97 896 q 130 887 99 897 q 199 867 161 876 q 269 853 236 858 q 314 850 301 847 q 270 892 293 863 q 242 946 247 922 q 302 934 264 936 q 361 943 340 932 q 376 985 371 960 q 375 1029 381 1011 q 394 981 389 1011 q 408 1040 397 1010 q 433 1088 418 1069 q 442 1013 429 1056 q 472 944 454 971 q 479 1015 469 975 q 508 1078 489 1054 q 511 1008 500 1049 q 543 944 522 967 q 560 985 556 960 q 563 1031 565 1011 q 582 982 576 1011 q 615 1074 589 1035 q 621 1006 611 1044 q 647 944 631 968 q 686 1007 671 967 q 703 1079 701 1047 q 717 1007 718 1051 q 703 933 715 963 q 765 942 731 932 q 821 968 799 951 q 776 924 808 943 q 717 903 744 906 q 797 894 750 892 q 875 911 844 896 q 820 851 861 879 q 746 818 779 824 q 826 807 778 806 q 904 826 874 808 q 869 784 893 806 q 819 749 846 763 q 886 744 858 754 q 834 722 863 742 q 793 682 806 703 q 842 678 814 676 q 890 689 871 681 q 868 664 883 676 q 964 674 921 682 q 886 656 929 676 q 819 608 843 635 q 881 625 843 622 q 946 618 919 628 q 886 591 918 613 q 842 546 854 569 q 890 533 860 536 q 939 539 921 531 q 913 502 933 521 q 874 475 892 483 q 936 484 899 485 q 997 474 974 483 q 939 443 971 468 q 894 393 907 418 q 947 405 914 404 q 999 394 979 406 q 951 371 976 390 q 917 331 925 351 q 985 320 943 318 q 1053 338 1026 322 q 1015 294 1040 315 q 963 264 989 274 q 1008 264 983 267 q 1049 254 1033 261 q 1002 225 1028 246 q 968 183 976 204 q 1026 191 990 192 q 1082 181 1061 190 q 1031 151 1058 175 q 996 106 1004 128 q 1075 135 1025 128 q 1160 131 1125 143 q 1080 101 1124 125 q 1015 47 1036 78 q 1044 28 1029 42 q 1064 -1 1058 14 q 1035 19 1054 11 q 1001 28 1017 28 q 980 -13 989 14 q 972 -60 971 -40 q 953 -33 961 -50 q 943 3 946 -15 q 933 -58 942 -26 q 908 -111 924 -90 q 904 -40 915 -81 q 876 28 893 1 q 843 -31 856 8 q 835 -99 831 -71 q 810 -58 821 -83 q 796 -10 800 -33 q 768 -92 792 -57 q 769 -30 775 -65 q 749 29 763 6 q 685 7 725 15 q 619 7 646 -1 q 675 44 646 17 q 714 100 704 72 q 658 51 696 74 q 590 26 621 29 q 619 58 606 38 q 602 86 610 68 q 590 122 594 104 q 579 68 589 96 q 557 22 569 40 q 553 90 563 51 q 526 154 544 129 q 506 100 514 133 q 506 42 499 67 q 484 96 490 63 q 483 154 478 129 q 467 110 471 138 q 469 63 464 82 q 453 118 456 85 q 433 63 446 88 q 492 -11 461 24 q 536 -54 522 -46 q 486 -22 521 -50 q 417 40 451 7 l 417 39 l 417 40 q 393 64 404 53 q 339 69 363 61 q 394 24 367 54 q 431 -33 421 -6 q 367 9 407 -10 q 293 28 326 28 q 268 -47 276 -3 q 269 -125 260 -92 q 240 -33 246 -87 q 224 -84 235 -60 q 197 -122 213 -108 q 186 -44 200 -89 q 151 28 172 1 q 148 -17 153 8 q 132 -58 143 -42 q 130 -14 136 -39 q 113 28 124 11 q 78 -35 92 6 q 72 -106 65 -76 q 40 -34 50 -85 q 51 100 31 17 m 486 628 q 501 622 493 626 q 510 629 506 626 q 486 628 496 631 m 568 606 q 528 614 553 614 l 526 608 q 543 592 538 599 q 568 606 556 603 m 519 613 l 519 614 q 518 614 519 614 l 519 613 m 467 564 q 502 554 483 564 q 526 535 521 544 q 556 549 542 540 q 579 569 571 558 q 555 576 571 575 q 529 574 539 578 q 542 590 533 582 q 508 596 528 596 l 507 592 l 506 596 q 475 590 488 596 q 497 581 485 589 q 515 564 510 572 q 491 569 506 568 q 467 564 476 569 m 515 478 q 513 479 515 478 q 522 415 514 451 q 535 369 529 379 q 538 403 533 383 q 551 435 542 424 q 553 408 550 424 q 586 421 568 410 q 585 449 588 436 q 596 428 592 440 q 617 449 610 438 q 588 456 606 454 q 557 453 569 457 q 577 476 563 464 q 603 490 592 488 q 571 488 590 486 q 540 497 551 490 q 568 514 553 501 q 589 538 583 526 q 550 526 574 528 q 511 531 526 525 q 524 533 517 532 q 491 541 510 540 q 460 538 472 542 q 483 528 469 536 q 501 511 496 519 q 476 515 492 515 q 451 511 461 515 q 479 503 464 511 q 507 486 494 496 q 514 506 510 500 q 513 481 511 499 l 515 478 m 443 485 q 469 461 451 472 q 499 449 486 450 q 506 482 501 468 q 473 489 490 488 q 443 485 456 490 m 450 443 q 493 415 475 433 q 497 446 494 431 q 450 443 475 439 m 438 401 q 463 385 451 394 q 471 411 468 397 q 436 410 453 413 q 438 401 436 406 m 628 411 q 626 411 628 411 q 619 407 625 411 q 619 403 619 406 q 628 411 624 407 m 483 410 q 490 383 489 397 q 492 408 490 393 q 483 410 488 408 m 419 407 q 421 406 419 407 q 429 404 422 406 q 432 410 431 407 q 450 412 442 411 q 453 411 458 413 q 419 407 449 410 m 568 369 q 583 401 578 382 q 553 407 564 401 q 568 369 557 383 m 453 369 l 456 374 q 449 375 451 375 q 453 369 450 372 m 654 154 q 629 108 640 138 q 621 60 618 79 q 644 108 635 82 q 654 154 654 133 m 378 154 q 389 131 381 146 q 410 97 397 115 q 378 154 397 135 m 274 1122 q 244 1167 257 1136 q 233 1219 231 1197 q 281 1196 250 1206 q 333 1186 311 1186 q 316 1222 324 1199 q 310 1261 308 1246 q 346 1247 322 1253 q 385 1243 369 1242 q 380 1281 379 1257 q 389 1317 381 1304 q 413 1288 394 1303 q 446 1271 431 1274 q 458 1308 447 1286 q 481 1338 468 1329 q 492 1301 481 1322 q 517 1271 504 1279 q 543 1303 531 1281 q 556 1343 556 1326 q 580 1310 568 1333 q 593 1271 592 1288 q 631 1292 610 1274 q 660 1324 651 1310 q 670 1283 668 1310 q 668 1239 672 1256 q 714 1257 689 1243 q 750 1288 739 1271 q 730 1244 747 1267 q 694 1211 713 1222 q 731 1217 710 1208 q 763 1236 751 1226 q 753 1201 764 1221 q 732 1171 743 1182 q 776 1185 751 1171 q 813 1215 800 1200 q 794 1172 811 1196 q 761 1139 778 1149 q 807 1153 782 1140 q 843 1183 832 1167 q 822 1141 838 1164 q 790 1106 807 1118 q 820 1098 803 1106 q 844 1082 838 1090 q 817 1069 833 1079 q 796 1049 801 1058 q 778 1018 793 1036 q 753 994 763 1000 q 735 1025 750 1007 q 708 1049 719 1043 q 692 1015 704 1035 q 665 989 679 996 q 665 1026 669 1004 q 650 1061 660 1049 q 633 1039 646 1050 q 610 1024 621 1028 q 615 1051 615 1033 q 610 1079 614 1068 q 578 1064 597 1076 q 551 1042 560 1051 q 540 1074 544 1051 q 540 1110 536 1097 q 525 1076 531 1097 q 518 1007 528 1038 l 518 1006 l 518 1007 q 513 996 515 1000 q 476 1042 504 1018 q 425 1072 447 1067 q 413 1037 425 1060 q 390 1007 400 1014 q 365 1033 386 1018 q 331 1049 343 1047 q 314 1011 328 1033 q 288 979 300 989 q 273 1026 283 994 q 274 1122 263 1057 z "},"":{"ha":1049,"x_min":-47,"x_max":1160,"o":"m 51 100 q -3 124 26 103 q -47 167 -32 146 q 12 151 -24 156 q 72 158 47 147 q 31 178 53 161 q 0 213 8 194 q 44 203 17 204 q 90 210 72 201 q 28 235 61 213 q -22 282 -6 258 q 43 261 3 265 q 110 268 83 257 q 65 309 96 290 q 7 331 33 328 q 63 333 31 336 q 29 352 44 342 q 6 375 14 363 q 69 349 31 360 q 138 347 108 338 q 92 364 117 349 q 56 396 68 379 q 101 381 72 385 q 150 383 131 376 q 95 435 132 410 q 26 465 58 460 q 102 472 57 476 q 175 451 147 468 q 113 497 154 478 q 39 517 72 515 q 74 519 54 519 q 43 547 54 532 q 115 515 71 525 q 194 510 160 506 q 131 535 165 514 q 83 581 97 556 q 147 561 107 565 q 215 567 188 557 q 167 620 200 593 q 104 656 133 647 q 171 667 131 665 q 239 658 211 668 q 203 683 221 667 q 178 715 185 699 q 224 710 196 710 q 268 719 251 710 q 206 753 239 726 q 160 807 172 779 q 231 795 188 796 q 299 808 274 794 q 256 819 286 808 q 190 847 225 831 q 126 879 154 863 q 89 906 97 896 q 130 887 99 897 q 199 867 161 876 q 269 853 236 858 q 314 850 301 847 q 270 892 293 863 q 242 946 247 922 q 302 934 264 936 q 361 943 340 932 q 376 985 371 960 q 375 1029 381 1011 q 394 981 389 1011 q 408 1040 397 1010 q 433 1088 418 1069 q 442 1013 429 1056 q 472 944 454 971 q 479 1015 469 975 q 508 1078 489 1054 q 511 1008 500 1049 q 543 944 522 967 q 560 985 556 960 q 563 1031 565 1011 q 582 982 576 1011 q 615 1074 589 1035 q 621 1006 611 1044 q 647 944 631 968 q 686 1007 671 967 q 703 1079 701 1047 q 717 1007 718 1051 q 703 933 715 963 q 765 942 731 932 q 821 968 799 951 q 776 924 808 943 q 717 903 744 906 q 797 894 750 892 q 875 911 844 896 q 820 851 861 879 q 746 818 779 824 q 826 807 778 806 q 904 826 874 808 q 869 784 893 806 q 819 749 846 763 q 886 744 858 754 q 834 722 863 742 q 793 682 806 703 q 842 678 814 676 q 890 689 871 681 q 868 664 883 676 q 964 674 921 682 q 886 656 929 676 q 819 608 843 635 q 881 625 843 622 q 946 618 919 628 q 886 591 918 613 q 842 546 854 569 q 890 533 860 536 q 939 539 921 531 q 913 502 933 521 q 874 475 892 483 q 936 484 899 485 q 997 474 974 483 q 939 443 971 468 q 894 393 907 418 q 947 405 914 404 q 999 394 979 406 q 951 371 976 390 q 917 331 925 351 q 985 320 943 318 q 1053 338 1026 322 q 1015 294 1040 315 q 963 264 989 274 q 1008 264 983 267 q 1049 254 1033 261 q 1002 225 1028 246 q 968 183 976 204 q 1026 191 990 192 q 1082 181 1061 190 q 1031 151 1058 175 q 996 106 1004 128 q 1075 135 1025 128 q 1160 131 1125 143 q 1080 101 1124 125 q 1015 47 1036 78 q 1044 28 1029 42 q 1064 -1 1058 14 q 1035 19 1054 11 q 1001 28 1017 28 q 980 -13 989 14 q 972 -60 971 -40 q 953 -33 961 -50 q 943 3 946 -15 q 933 -58 942 -26 q 908 -111 924 -90 q 904 -40 915 -81 q 876 28 893 1 q 843 -31 856 8 q 835 -99 831 -71 q 810 -58 821 -83 q 796 -10 800 -33 q 768 -92 792 -57 q 769 -30 775 -65 q 749 29 763 6 q 685 7 725 15 q 619 7 646 -1 q 675 44 646 17 q 714 100 704 72 q 658 51 696 74 q 590 26 621 29 q 619 58 606 38 q 602 86 610 68 q 590 122 594 104 q 579 68 589 96 q 557 22 569 40 q 553 90 563 51 q 526 154 544 129 q 506 100 514 133 q 506 42 499 67 q 484 96 490 63 q 483 154 478 129 q 467 110 471 138 q 469 63 464 82 q 453 118 456 85 q 433 63 446 88 q 492 -11 461 24 q 536 -54 522 -46 q 486 -22 521 -50 q 417 40 451 7 l 417 39 l 417 40 q 393 64 404 53 q 339 69 363 61 q 394 24 367 54 q 431 -33 421 -6 q 367 9 407 -10 q 293 28 326 28 q 268 -47 276 -3 q 269 -125 260 -92 q 240 -33 246 -87 q 224 -84 235 -60 q 197 -122 213 -108 q 186 -44 200 -89 q 151 28 172 1 q 148 -17 153 8 q 132 -58 143 -42 q 130 -14 136 -39 q 113 28 124 11 q 78 -35 92 6 q 72 -106 65 -76 q 40 -34 50 -85 q 51 100 31 17 m 486 628 q 501 622 493 626 q 510 629 506 626 q 486 628 496 631 m 568 606 q 528 614 553 614 l 526 608 q 543 592 538 599 q 568 606 556 603 m 519 613 l 519 614 q 518 614 519 614 l 519 613 m 467 564 q 502 554 483 564 q 526 535 521 544 q 556 549 542 540 q 579 569 571 558 q 555 576 571 575 q 529 574 539 578 q 542 590 533 582 q 508 596 528 596 l 507 592 l 506 596 q 475 590 488 596 q 497 581 485 589 q 515 564 510 572 q 491 569 506 568 q 467 564 476 569 m 515 478 q 513 479 515 478 q 522 415 514 451 q 535 369 529 379 q 538 403 533 383 q 551 435 542 424 q 553 408 550 424 q 586 421 568 410 q 585 449 588 436 q 596 428 592 440 q 617 449 610 438 q 588 456 606 454 q 557 453 569 457 q 577 476 563 464 q 603 490 592 488 q 571 488 590 486 q 540 497 551 490 q 568 514 553 501 q 589 538 583 526 q 550 526 574 528 q 511 531 526 525 q 524 533 517 532 q 491 541 510 540 q 460 538 472 542 q 483 528 469 536 q 501 511 496 519 q 476 515 492 515 q 451 511 461 515 q 479 503 464 511 q 507 486 494 496 q 514 506 510 500 q 513 481 511 499 l 515 478 m 443 485 q 469 461 451 472 q 499 449 486 450 q 506 482 501 468 q 473 489 490 488 q 443 485 456 490 m 450 443 q 493 415 475 433 q 497 446 494 431 q 450 443 475 439 m 438 401 q 463 385 451 394 q 471 411 468 397 q 436 410 453 413 q 438 401 436 406 m 628 411 q 626 411 628 411 q 619 407 625 411 q 619 403 619 406 q 628 411 624 407 m 483 410 q 490 383 489 397 q 492 408 490 393 q 483 410 488 408 m 419 407 q 421 406 419 407 q 429 404 422 406 q 432 410 431 407 q 450 412 442 411 q 453 411 458 413 q 419 407 449 410 m 568 369 q 583 401 578 382 q 553 407 564 401 q 568 369 557 383 m 453 369 l 456 374 q 449 375 451 375 q 453 369 450 372 m 654 154 q 629 108 640 138 q 621 60 618 79 q 644 108 635 82 q 654 154 654 133 m 378 154 q 389 131 381 146 q 410 97 397 115 q 378 154 397 135 m 600 1068 q 571 1085 589 1071 q 547 1110 553 1099 q 577 1127 560 1113 q 600 1151 594 1142 q 578 1165 593 1160 q 553 1171 564 1171 q 575 1184 561 1178 q 600 1190 589 1190 q 567 1201 586 1190 q 538 1222 547 1211 q 572 1233 551 1224 q 600 1251 592 1242 q 598 1294 603 1269 q 581 1331 593 1318 q 615 1306 597 1324 q 636 1271 632 1288 q 667 1306 651 1281 q 686 1349 682 1332 q 717 1314 701 1340 q 736 1271 732 1288 q 742 1297 736 1282 q 756 1319 747 1313 q 761 1293 756 1308 q 775 1271 767 1278 q 815 1283 789 1279 q 858 1283 842 1286 q 834 1248 844 1272 q 822 1207 824 1224 q 860 1180 833 1192 q 904 1168 886 1168 q 866 1142 892 1154 q 822 1129 840 1131 q 851 1094 829 1113 q 889 1071 872 1075 q 848 1053 875 1060 q 803 1049 821 1047 q 790 1000 803 1029 q 761 957 778 971 q 748 1006 761 978 q 719 1049 735 1035 q 692 1025 708 1043 q 672 996 675 1007 q 642 1022 661 1001 q 600 1068 622 1042 m 236 1054 q 202 1064 224 1063 q 165 1061 181 1065 q 192 1083 174 1074 q 226 1096 211 1093 q 197 1101 214 1094 q 171 1115 181 1107 q 201 1120 183 1114 q 226 1135 218 1126 q 196 1144 214 1135 q 171 1163 178 1153 q 201 1172 183 1164 q 226 1190 218 1181 q 196 1220 218 1206 q 157 1238 174 1235 q 194 1257 169 1249 q 236 1265 219 1265 q 253 1310 238 1283 q 285 1346 269 1336 q 307 1303 289 1329 q 340 1271 325 1278 q 363 1305 344 1285 q 393 1331 381 1325 q 412 1294 396 1317 q 439 1265 428 1272 q 476 1249 453 1256 q 517 1244 500 1242 q 487 1217 508 1229 q 449 1201 465 1204 q 468 1183 454 1193 q 493 1171 482 1172 q 473 1153 488 1163 q 449 1140 458 1143 q 471 1114 454 1129 q 500 1096 488 1099 q 474 1073 493 1086 q 443 1058 456 1060 q 417 1028 432 1050 q 400 994 401 1007 q 369 1017 388 999 q 346 1049 351 1036 q 332 1020 338 1039 q 329 989 326 1001 q 315 1017 319 999 q 313 1049 311 1035 q 290 1008 299 1035 q 282 961 282 981 q 256 1003 268 975 q 236 1054 244 1031 z "},"":{"ha":1049,"x_min":-47,"x_max":1160,"o":"m 51 100 q -3 124 26 103 q -47 167 -32 146 q 12 151 -24 156 q 72 158 47 147 q 31 178 53 161 q 0 213 8 194 q 44 203 17 204 q 90 210 72 201 q 28 235 61 213 q -22 282 -6 258 q 43 261 3 265 q 110 268 83 257 q 65 309 96 290 q 7 331 33 328 q 63 333 31 336 q 29 352 44 342 q 6 375 14 363 q 69 349 31 360 q 138 347 108 338 q 92 364 117 349 q 56 396 68 379 q 101 381 72 385 q 150 383 131 376 q 95 435 132 410 q 26 465 58 460 q 102 472 57 476 q 175 451 147 468 q 113 497 154 478 q 39 517 72 515 q 74 519 54 519 q 43 547 54 532 q 115 515 71 525 q 194 510 160 506 q 131 535 165 514 q 83 581 97 556 q 147 561 107 565 q 215 567 188 557 q 167 620 200 593 q 104 656 133 647 q 171 667 131 665 q 239 658 211 668 q 203 683 221 667 q 178 715 185 699 q 224 710 196 710 q 268 719 251 710 q 206 753 239 726 q 160 807 172 779 q 231 795 188 796 q 299 808 274 794 q 256 819 286 808 q 190 847 225 831 q 126 879 154 863 q 89 906 97 896 q 130 887 99 897 q 199 867 161 876 q 269 853 236 858 q 314 850 301 847 q 270 892 293 863 q 242 946 247 922 q 302 934 264 936 q 361 943 340 932 q 376 985 371 960 q 375 1029 381 1011 q 394 981 389 1011 q 408 1040 397 1010 q 433 1088 418 1069 q 442 1013 429 1056 q 472 944 454 971 q 479 1015 469 975 q 508 1078 489 1054 q 511 1008 500 1049 q 543 944 522 967 q 560 985 556 960 q 563 1031 565 1011 q 582 982 576 1011 q 615 1074 589 1035 q 621 1006 611 1044 q 647 944 631 968 q 686 1007 671 967 q 703 1079 701 1047 q 717 1007 718 1051 q 703 933 715 963 q 765 942 731 932 q 821 968 799 951 q 776 924 808 943 q 717 903 744 906 q 797 894 750 892 q 875 911 844 896 q 820 851 861 879 q 746 818 779 824 q 826 807 778 806 q 904 826 874 808 q 869 784 893 806 q 819 749 846 763 q 886 744 858 754 q 834 722 863 742 q 793 682 806 703 q 842 678 814 676 q 890 689 871 681 q 868 664 883 676 q 964 674 921 682 q 886 656 929 676 q 819 608 843 635 q 881 625 843 622 q 946 618 919 628 q 886 591 918 613 q 842 546 854 569 q 890 533 860 536 q 939 539 921 531 q 913 502 933 521 q 874 475 892 483 q 936 484 899 485 q 997 474 974 483 q 939 443 971 468 q 894 393 907 418 q 947 405 914 404 q 999 394 979 406 q 951 371 976 390 q 917 331 925 351 q 985 320 943 318 q 1053 338 1026 322 q 1015 294 1040 315 q 963 264 989 274 q 1008 264 983 267 q 1049 254 1033 261 q 1002 225 1028 246 q 968 183 976 204 q 1026 191 990 192 q 1082 181 1061 190 q 1031 151 1058 175 q 996 106 1004 128 q 1075 135 1025 128 q 1160 131 1125 143 q 1080 101 1124 125 q 1015 47 1036 78 q 1044 28 1029 42 q 1064 -1 1058 14 q 1035 19 1054 11 q 1001 28 1017 28 q 980 -13 989 14 q 972 -60 971 -40 q 953 -33 961 -50 q 943 3 946 -15 q 933 -58 942 -26 q 908 -111 924 -90 q 904 -40 915 -81 q 876 28 893 1 q 843 -31 856 8 q 835 -99 831 -71 q 810 -58 821 -83 q 796 -10 800 -33 q 768 -92 792 -57 q 769 -30 775 -65 q 749 29 763 6 q 685 7 725 15 q 619 7 646 -1 q 675 44 646 17 q 714 100 704 72 q 658 51 696 74 q 590 26 621 29 q 619 58 606 38 q 602 86 610 68 q 590 122 594 104 q 579 68 589 96 q 557 22 569 40 q 553 90 563 51 q 526 154 544 129 q 506 100 514 133 q 506 42 499 67 q 484 96 490 63 q 483 154 478 129 q 467 110 471 138 q 469 63 464 82 q 453 118 456 85 q 433 63 446 88 q 492 -11 461 24 q 536 -54 522 -46 q 486 -22 521 -50 q 417 40 451 7 l 417 39 l 417 40 q 393 64 404 53 q 339 69 363 61 q 394 24 367 54 q 431 -33 421 -6 q 367 9 407 -10 q 293 28 326 28 q 268 -47 276 -3 q 269 -125 260 -92 q 240 -33 246 -87 q 224 -84 235 -60 q 197 -122 213 -108 q 186 -44 200 -89 q 151 28 172 1 q 148 -17 153 8 q 132 -58 143 -42 q 130 -14 136 -39 q 113 28 124 11 q 78 -35 92 6 q 72 -106 65 -76 q 40 -34 50 -85 q 51 100 31 17 m 486 628 q 501 622 493 626 q 510 629 506 626 q 486 628 496 631 m 568 606 q 528 614 553 614 l 526 608 q 543 592 538 599 q 568 606 556 603 m 519 613 l 519 614 q 518 614 519 614 l 519 613 m 467 564 q 502 554 483 564 q 526 535 521 544 q 556 549 542 540 q 579 569 571 558 q 555 576 571 575 q 529 574 539 578 q 542 590 533 582 q 508 596 528 596 l 507 592 l 506 596 q 475 590 488 596 q 497 581 485 589 q 515 564 510 572 q 491 569 506 568 q 467 564 476 569 m 515 478 q 513 479 515 478 q 522 415 514 451 q 535 369 529 379 q 538 403 533 383 q 551 435 542 424 q 553 408 550 424 q 586 421 568 410 q 585 449 588 436 q 596 428 592 440 q 617 449 610 438 q 588 456 606 454 q 557 453 569 457 q 577 476 563 464 q 603 490 592 488 q 571 488 590 486 q 540 497 551 490 q 568 514 553 501 q 589 538 583 526 q 550 526 574 528 q 511 531 526 525 q 524 533 517 532 q 491 541 510 540 q 460 538 472 542 q 483 528 469 536 q 501 511 496 519 q 476 515 492 515 q 451 511 461 515 q 479 503 464 511 q 507 486 494 496 q 514 506 510 500 q 513 481 511 499 l 515 478 m 443 485 q 469 461 451 472 q 499 449 486 450 q 506 482 501 468 q 473 489 490 488 q 443 485 456 490 m 450 443 q 493 415 475 433 q 497 446 494 431 q 450 443 475 439 m 438 401 q 463 385 451 394 q 471 411 468 397 q 436 410 453 413 q 438 401 436 406 m 628 411 q 626 411 628 411 q 619 407 625 411 q 619 403 619 406 q 628 411 624 407 m 483 410 q 490 383 489 397 q 492 408 490 393 q 483 410 488 408 m 419 407 q 421 406 419 407 q 429 404 422 406 q 432 410 431 407 q 450 412 442 411 q 453 411 458 413 q 419 407 449 410 m 568 369 q 583 401 578 382 q 553 407 564 401 q 568 369 557 383 m 453 369 l 456 374 q 449 375 451 375 q 453 369 450 372 m 654 154 q 629 108 640 138 q 621 60 618 79 q 644 108 635 82 q 654 154 654 133 m 378 154 q 389 131 381 146 q 410 97 397 115 q 378 154 397 135 m 414 1057 q 385 1025 406 1040 q 346 1007 364 1010 q 369 1043 360 1019 q 378 1085 379 1067 q 345 1041 369 1063 q 299 1011 321 1019 q 335 1052 318 1025 q 356 1103 351 1079 q 310 1074 333 1094 q 279 1031 288 1053 q 297 1075 282 1051 q 328 1114 311 1099 q 306 1101 318 1107 q 283 1096 293 1096 q 294 1123 290 1106 q 297 1151 299 1140 q 256 1142 281 1151 q 219 1124 232 1133 q 220 1165 215 1139 q 233 1204 225 1190 q 190 1179 213 1197 q 156 1142 167 1161 q 168 1185 156 1161 q 197 1224 181 1208 q 157 1210 176 1208 q 174 1227 165 1215 q 186 1250 183 1239 q 185 1303 179 1271 q 203 1351 190 1335 q 227 1306 207 1331 q 267 1271 247 1281 q 283 1309 278 1285 q 283 1351 288 1333 q 298 1313 293 1336 q 300 1271 303 1289 q 318 1307 311 1283 q 322 1347 325 1331 q 340 1310 333 1333 q 344 1271 346 1288 q 359 1294 353 1279 q 367 1321 365 1310 q 382 1297 375 1313 q 389 1271 389 1282 q 404 1306 390 1285 q 431 1333 418 1326 q 447 1299 433 1319 q 472 1271 460 1278 q 497 1308 485 1285 q 506 1349 508 1331 q 515 1306 514 1332 q 507 1264 515 1281 q 538 1284 517 1275 q 574 1290 558 1293 q 551 1262 561 1282 q 542 1226 542 1242 q 585 1249 556 1240 q 636 1257 614 1258 q 603 1219 618 1246 q 586 1171 589 1192 q 616 1171 597 1168 q 644 1181 635 1174 q 640 1150 646 1168 q 625 1125 633 1132 q 661 1148 638 1138 q 703 1157 685 1158 q 672 1126 686 1147 q 656 1086 658 1104 q 666 1049 663 1072 q 664 1010 669 1025 q 634 1035 656 1022 q 597 1049 613 1047 q 584 1003 597 1029 q 556 964 571 976 q 543 1010 557 983 q 515 1049 529 1036 q 506 997 515 1026 q 482 950 496 967 q 469 1003 483 972 q 414 1057 454 1033 z "},"":{"ha":1049,"x_min":-47,"x_max":1160,"o":"m 51 100 q -3 124 26 103 q -47 167 -32 146 q 12 151 -24 156 q 72 158 47 147 q 31 178 53 161 q 0 213 8 194 q 44 203 17 204 q 90 210 72 201 q 28 235 61 213 q -22 282 -6 258 q 43 261 3 265 q 110 268 83 257 q 65 309 96 290 q 7 331 33 328 q 63 333 31 336 q 29 352 44 342 q 6 375 14 363 q 69 349 31 360 q 138 347 108 338 q 92 364 117 349 q 56 396 68 379 q 101 381 72 385 q 150 383 131 376 q 95 435 132 410 q 26 465 58 460 q 102 472 57 476 q 175 451 147 468 q 113 497 154 478 q 39 517 72 515 q 74 519 54 519 q 43 547 54 532 q 115 515 71 525 q 194 510 160 506 q 131 535 165 514 q 83 581 97 556 q 147 561 107 565 q 215 567 188 557 q 167 620 200 593 q 104 656 133 647 q 171 667 131 665 q 239 658 211 668 q 203 683 221 667 q 178 715 185 699 q 224 710 196 710 q 268 719 251 710 q 206 753 239 726 q 160 807 172 779 q 231 795 188 796 q 299 808 274 794 q 256 819 286 808 q 190 847 225 831 q 126 879 154 863 q 89 906 97 896 q 130 887 99 897 q 199 867 161 876 q 269 853 236 858 q 314 850 301 847 q 270 892 293 863 q 242 946 247 922 q 302 934 264 936 q 361 943 340 932 q 376 985 371 960 q 375 1029 381 1011 q 394 981 389 1011 q 408 1040 397 1010 q 433 1088 418 1069 q 442 1013 429 1056 q 472 944 454 971 q 479 1015 469 975 q 508 1078 489 1054 q 511 1008 500 1049 q 543 944 522 967 q 560 985 556 960 q 563 1031 565 1011 q 582 982 576 1011 q 615 1074 589 1035 q 621 1006 611 1044 q 647 944 631 968 q 686 1007 671 967 q 703 1079 701 1047 q 717 1007 718 1051 q 703 933 715 963 q 765 942 731 932 q 821 968 799 951 q 776 924 808 943 q 717 903 744 906 q 797 894 750 892 q 875 911 844 896 q 820 851 861 879 q 746 818 779 824 q 826 807 778 806 q 904 826 874 808 q 869 784 893 806 q 819 749 846 763 q 886 744 858 754 q 834 722 863 742 q 793 682 806 703 q 842 678 814 676 q 890 689 871 681 q 868 664 883 676 q 964 674 921 682 q 886 656 929 676 q 819 608 843 635 q 881 625 843 622 q 946 618 919 628 q 886 591 918 613 q 842 546 854 569 q 890 533 860 536 q 939 539 921 531 q 913 502 933 521 q 874 475 892 483 q 936 484 899 485 q 997 474 974 483 q 939 443 971 468 q 894 393 907 418 q 947 405 914 404 q 999 394 979 406 q 951 371 976 390 q 917 331 925 351 q 985 320 943 318 q 1053 338 1026 322 q 1015 294 1040 315 q 963 264 989 274 q 1008 264 983 267 q 1049 254 1033 261 q 1002 225 1028 246 q 968 183 976 204 q 1026 191 990 192 q 1082 181 1061 190 q 1031 151 1058 175 q 996 106 1004 128 q 1075 135 1025 128 q 1160 131 1125 143 q 1080 101 1124 125 q 1015 47 1036 78 q 1044 28 1029 42 q 1064 -1 1058 14 q 1035 19 1054 11 q 1001 28 1017 28 q 980 -13 989 14 q 972 -60 971 -40 q 953 -33 961 -50 q 943 3 946 -15 q 933 -58 942 -26 q 908 -111 924 -90 q 904 -40 915 -81 q 876 28 893 1 q 843 -31 856 8 q 835 -99 831 -71 q 810 -58 821 -83 q 796 -10 800 -33 q 768 -92 792 -57 q 769 -30 775 -65 q 749 29 763 6 q 685 7 725 15 q 619 7 646 -1 q 675 44 646 17 q 714 100 704 72 q 658 51 696 74 q 590 26 621 29 q 619 58 606 38 q 602 86 610 68 q 590 122 594 104 q 579 68 589 96 q 557 22 569 40 q 553 90 563 51 q 526 154 544 129 q 506 100 514 133 q 506 42 499 67 q 484 96 490 63 q 483 154 478 129 q 467 110 471 138 q 469 63 464 82 q 453 118 456 85 q 433 63 446 88 q 492 -11 461 24 q 536 -54 522 -46 q 486 -22 521 -50 q 417 40 451 7 l 417 39 l 417 40 q 393 64 404 53 q 339 69 363 61 q 394 24 367 54 q 431 -33 421 -6 q 367 9 407 -10 q 293 28 326 28 q 268 -47 276 -3 q 269 -125 260 -92 q 240 -33 246 -87 q 224 -84 235 -60 q 197 -122 213 -108 q 186 -44 200 -89 q 151 28 172 1 q 148 -17 153 8 q 132 -58 143 -42 q 130 -14 136 -39 q 113 28 124 11 q 78 -35 92 6 q 72 -106 65 -76 q 40 -34 50 -85 q 51 100 31 17 m 486 628 q 501 622 493 626 q 510 629 506 626 q 486 628 496 631 m 568 606 q 528 614 553 614 l 526 608 q 543 592 538 599 q 568 606 556 603 m 519 613 l 519 614 q 518 614 519 614 l 519 613 m 467 564 q 502 554 483 564 q 526 535 521 544 q 556 549 542 540 q 579 569 571 558 q 555 576 571 575 q 529 574 539 578 q 542 590 533 582 q 508 596 528 596 l 507 592 l 506 596 q 475 590 488 596 q 497 581 485 589 q 515 564 510 572 q 491 569 506 568 q 467 564 476 569 m 515 478 q 513 479 515 478 q 522 415 514 451 q 535 369 529 379 q 538 403 533 383 q 551 435 542 424 q 553 408 550 424 q 586 421 568 410 q 585 449 588 436 q 596 428 592 440 q 617 449 610 438 q 588 456 606 454 q 557 453 569 457 q 577 476 563 464 q 603 490 592 488 q 571 488 590 486 q 540 497 551 490 q 568 514 553 501 q 589 538 583 526 q 550 526 574 528 q 511 531 526 525 q 524 533 517 532 q 491 541 510 540 q 460 538 472 542 q 483 528 469 536 q 501 511 496 519 q 476 515 492 515 q 451 511 461 515 q 479 503 464 511 q 507 486 494 496 q 514 506 510 500 q 513 481 511 499 l 515 478 m 443 485 q 469 461 451 472 q 499 449 486 450 q 506 482 501 468 q 473 489 490 488 q 443 485 456 490 m 450 443 q 493 415 475 433 q 497 446 494 431 q 450 443 475 439 m 438 401 q 463 385 451 394 q 471 411 468 397 q 436 410 453 413 q 438 401 436 406 m 628 411 q 626 411 628 411 q 619 407 625 411 q 619 403 619 406 q 628 411 624 407 m 483 410 q 490 383 489 397 q 492 408 490 393 q 483 410 488 408 m 419 407 q 421 406 419 407 q 429 404 422 406 q 432 410 431 407 q 450 412 442 411 q 453 411 458 413 q 419 407 449 410 m 568 369 q 583 401 578 382 q 553 407 564 401 q 568 369 557 383 m 453 369 l 456 374 q 449 375 451 375 q 453 369 450 372 m 654 154 q 629 108 640 138 q 621 60 618 79 q 644 108 635 82 q 654 154 654 133 m 378 154 q 389 131 381 146 q 410 97 397 115 q 378 154 397 135 m 238 1096 q 181 1103 214 1092 q 132 1132 149 1115 q 188 1142 156 1131 q 238 1168 219 1153 q 217 1194 228 1174 q 204 1225 206 1214 q 237 1231 215 1225 q 268 1243 258 1236 q 290 1290 282 1261 q 293 1342 297 1319 q 314 1294 306 1324 q 318 1243 322 1265 q 333 1271 321 1254 q 356 1293 346 1288 q 372 1265 360 1282 q 394 1243 385 1247 q 410 1293 396 1264 q 442 1333 425 1322 q 458 1284 443 1313 q 489 1243 472 1256 q 503 1297 489 1265 q 535 1340 518 1328 q 550 1288 535 1318 q 582 1243 565 1257 q 608 1288 597 1258 q 618 1339 619 1318 q 644 1294 632 1324 q 654 1243 656 1264 q 667 1278 664 1257 q 668 1317 671 1300 q 682 1281 678 1303 q 682 1243 686 1258 q 711 1279 696 1254 q 728 1322 726 1304 q 758 1288 743 1314 q 775 1243 774 1261 q 815 1244 790 1247 q 854 1235 840 1242 q 828 1206 842 1228 q 811 1168 814 1183 q 844 1165 819 1169 q 894 1152 869 1160 q 925 1140 918 1144 q 892 1137 917 1142 q 842 1125 867 1132 q 811 1113 818 1118 q 837 1094 819 1103 q 867 1085 854 1085 q 839 1069 857 1076 q 808 1063 821 1063 q 840 1020 826 1049 q 851 969 853 992 q 825 1015 844 992 q 786 1049 806 1038 q 754 1009 769 1038 q 736 961 739 981 q 704 1001 721 972 q 688 1049 688 1029 q 660 997 671 1029 q 651 939 649 964 q 629 975 639 953 q 617 1019 619 997 q 610 985 615 1003 q 596 957 604 968 q 594 1004 601 976 q 576 1049 588 1032 q 579 992 583 1025 q 560 939 575 958 q 562 995 567 963 q 543 1049 557 1028 q 522 1003 529 1033 q 519 953 514 974 q 497 998 504 968 q 494 1049 490 1028 q 467 1022 482 1043 q 450 988 453 1001 q 422 1015 438 994 q 406 1049 407 1035 q 378 1008 392 1035 q 364 961 365 981 q 338 1001 350 974 q 324 1049 325 1029 q 299 1008 308 1035 q 293 961 290 981 q 266 1008 279 975 q 238 1096 253 1040 z "},"":{"ha":1049,"x_min":-64,"x_max":1136,"o":"m 908 -269 q 851 -318 881 -286 q 814 -381 821 -350 q 812 -306 806 -350 q 838 -237 818 -262 q 774 -292 815 -267 q 697 -322 732 -317 q 760 -266 728 -304 q 796 -192 792 -228 q 728 -235 772 -218 q 647 -250 683 -251 q 725 -222 683 -246 q 783 -167 767 -199 q 738 -145 769 -153 q 686 -140 706 -137 q 722 -104 697 -124 q 767 -79 747 -85 q 713 -79 743 -85 q 656 -61 682 -74 q 644 -82 649 -72 q 653 -60 647 -71 q 626 -46 638 -53 q 657 -51 640 -50 q 658 -47 657 -49 q 624 -42 639 -46 q 664 -37 642 -43 q 696 7 676 -14 q 736 38 715 28 q 667 24 708 25 q 596 36 625 24 q 583 -1 589 15 q 571 -24 576 -18 q 569 12 574 -14 q 555 67 564 38 q 537 122 546 97 q 522 154 528 146 q 499 110 507 139 q 492 60 490 81 q 467 105 478 76 q 461 154 457 133 q 446 117 451 139 q 438 74 440 96 q 486 47 464 54 q 438 46 465 43 q 444 -3 438 18 q 425 47 431 17 q 404 51 414 49 q 397 42 400 46 q 397 53 397 49 q 331 85 354 64 q 327 48 325 72 q 336 13 329 24 q 300 15 324 10 q 265 28 276 21 q 233 -43 243 3 q 228 -122 224 -89 q 201 -72 211 -103 q 189 -11 190 -42 q 176 -52 185 -32 q 157 -85 168 -72 q 151 -25 161 -60 q 124 28 140 10 q 98 -40 107 1 q 96 -111 89 -81 q 77 -73 85 -96 q 67 -25 69 -50 q 50 -75 63 -56 q 49 -22 54 -53 q 31 28 43 8 q -12 65 17 47 q -64 88 -40 83 q -8 98 -42 97 q 49 90 25 99 q 12 133 38 111 q -36 160 -14 156 q -1 169 -22 167 q 40 171 21 172 q -10 196 15 181 q -49 229 -35 211 q 17 203 -24 211 q 89 206 58 194 q 34 259 71 232 q -35 292 -3 286 q 42 301 -4 303 q 115 283 88 300 q 64 333 100 310 q -3 363 28 357 q 47 372 18 371 q 101 367 76 374 q 49 401 75 381 q 10 444 24 422 q 90 426 42 431 q 169 436 138 421 q 124 490 158 463 q 63 526 90 518 q 132 540 89 538 q 201 531 175 542 q 171 570 193 549 q 128 597 149 592 q 178 608 147 606 q 228 603 208 611 q 179 649 213 628 q 118 674 146 669 q 162 681 136 681 q 211 675 188 681 q 166 706 188 688 q 136 744 144 725 q 205 730 163 732 q 275 740 247 728 q 208 765 244 743 q 153 813 171 786 q 222 791 181 796 q 293 792 263 786 q 245 806 271 792 q 206 838 219 821 q 251 820 222 825 q 303 818 281 815 q 272 863 294 838 q 231 893 250 888 q 281 910 247 906 q 333 907 314 914 q 308 985 333 943 q 256 1050 282 1026 q 328 1010 290 1043 q 379 944 365 978 q 381 1019 374 976 q 407 1089 388 1063 q 408 1014 400 1057 q 433 944 415 971 q 457 985 449 958 q 461 1032 465 1013 q 488 964 482 1004 q 496 1015 489 989 q 517 1057 503 1040 q 520 999 511 1032 q 543 944 529 965 q 549 997 539 967 q 576 1043 560 1028 q 585 992 574 1021 q 610 944 596 963 q 612 1025 601 978 q 646 1099 622 1072 q 649 1017 639 1064 q 682 944 660 971 q 729 986 697 967 q 789 1010 761 1006 q 742 966 764 997 q 715 907 719 935 q 794 921 747 919 q 874 910 842 922 q 802 874 840 904 q 747 813 764 843 q 797 812 768 807 q 843 829 825 817 q 815 802 833 814 q 778 785 796 790 q 820 783 797 788 q 858 772 843 779 q 817 744 839 765 q 786 703 794 722 q 836 694 806 694 q 886 703 867 694 q 860 672 878 688 q 825 647 843 657 q 877 655 847 654 q 925 646 907 656 q 871 620 900 640 q 831 578 842 600 q 881 592 850 589 q 933 590 911 594 q 883 570 911 585 q 844 535 856 556 q 897 531 867 529 q 947 544 928 533 q 923 517 939 531 q 889 496 907 504 q 943 499 914 501 q 993 490 972 497 q 934 460 965 486 q 889 410 903 433 q 938 395 906 397 q 989 400 971 393 q 965 367 982 385 q 929 338 947 349 q 983 350 953 349 q 1036 346 1014 351 q 978 326 1010 344 q 933 283 946 307 q 1004 301 961 297 q 1075 292 1047 304 q 1011 260 1046 285 q 958 210 976 236 q 1015 213 981 217 q 1071 200 1050 210 q 1022 167 1049 192 q 990 121 996 143 q 1065 117 1021 113 q 1136 140 1108 122 q 1080 90 1118 114 q 1010 64 1042 65 q 1027 37 1014 51 q 1051 17 1040 22 q 1020 17 1039 14 q 990 28 1001 19 q 981 0 985 17 q 999 -37 992 -17 q 1021 -29 1010 -32 q 1001 -44 1011 -36 q 1008 -83 1007 -65 q 1024 -78 1017 -81 q 1007 -136 1013 -100 q 1007 -196 1001 -172 q 1049 -226 1026 -203 q 1078 -268 1071 -249 q 1018 -264 1058 -262 q 908 -269 978 -265 m 535 664 q 529 646 531 657 l 533 649 q 535 664 535 657 m 531 617 q 528 615 531 617 q 529 604 528 608 q 564 617 549 617 q 532 621 550 621 q 528 618 529 619 l 531 617 m 479 606 q 501 582 486 593 q 533 565 517 571 q 572 590 551 585 q 540 593 560 596 q 508 585 521 590 q 524 600 514 593 q 515 610 519 604 q 479 606 493 603 m 549 450 q 532 449 543 449 q 535 369 543 406 q 553 413 547 386 q 554 458 560 439 q 563 446 560 453 q 574 457 568 451 q 567 479 571 468 q 581 480 576 481 q 558 476 585 479 q 559 478 558 476 q 565 485 560 479 q 558 514 560 501 q 540 511 549 514 q 556 531 544 521 q 556 535 556 526 q 557 532 556 535 q 586 549 572 546 q 540 556 568 558 q 501 551 524 550 q 465 558 479 551 q 481 544 469 551 q 500 533 492 536 q 457 532 481 524 q 489 508 468 518 q 528 497 510 497 q 488 494 511 492 q 450 506 464 496 q 478 485 456 500 q 522 461 501 471 q 519 479 521 471 q 528 458 524 471 q 549 450 542 451 m 599 506 q 563 514 586 514 q 572 492 567 504 q 599 506 586 503 m 608 475 q 578 479 597 481 q 585 464 581 472 q 608 475 597 472 m 435 458 q 474 425 446 439 q 485 449 479 440 q 454 453 468 450 q 435 458 440 456 m 494 418 q 485 414 490 415 q 503 369 489 385 q 522 447 521 399 q 486 449 506 447 q 485 421 483 436 q 494 418 486 419 m 565 442 q 574 408 571 426 q 590 415 582 411 q 578 444 583 429 q 565 442 571 443 m 619 438 q 594 444 610 443 q 606 425 600 433 q 619 438 614 431 m 425 417 q 440 408 432 414 l 442 413 q 425 417 431 414 m 456 397 q 468 386 463 392 q 471 411 468 399 q 453 411 463 411 q 456 397 454 404 m 575 399 q 575 385 576 390 q 588 394 582 390 q 590 400 589 397 q 575 399 582 399 m 574 369 q 582 381 578 374 q 575 379 578 381 q 574 369 575 376 m 469 369 q 468 376 469 369 l 464 378 q 469 369 467 372 m 436 369 q 435 375 436 369 q 436 369 436 376 m 621 154 q 616 109 624 143 q 599 43 608 75 q 639 67 618 51 q 635 114 640 89 q 621 154 631 139 m 367 154 q 376 138 371 146 q 367 154 372 147 m 758 15 q 682 -32 719 4 q 758 15 732 -15 m 769 -28 q 722 -44 750 -39 q 667 -47 694 -49 l 664 -51 q 721 -47 692 -53 q 769 -28 750 -40 m 892 -35 q 917 -51 901 -43 q 950 -62 933 -58 q 957 -58 953 -61 q 892 -35 921 -39 m 929 -150 q 958 -116 938 -133 q 999 -89 978 -99 q 981 -74 992 -81 q 960 -90 972 -82 q 929 -150 939 -121 z "},"":{"ha":1049,"x_min":-47,"x_max":1160,"o":"m 51 100 q -3 124 26 103 q -47 167 -32 146 q 12 151 -24 156 q 72 158 47 147 q 31 178 53 161 q 0 213 8 194 q 44 203 17 204 q 90 210 72 201 q 28 235 61 213 q -22 282 -6 258 q 43 261 3 265 q 110 268 83 257 q 65 309 96 290 q 7 331 33 328 q 63 333 31 336 q 29 352 44 342 q 6 375 14 363 q 69 349 31 360 q 138 347 108 338 q 92 364 117 349 q 56 396 68 379 q 101 381 72 385 q 150 383 131 376 q 95 435 132 410 q 26 465 58 460 q 102 472 57 476 q 175 451 147 468 q 113 497 154 478 q 39 517 72 515 q 74 519 54 519 q 43 547 54 532 q 115 515 71 525 q 194 510 160 506 q 131 535 165 514 q 83 581 97 556 q 147 561 107 565 q 215 567 188 557 q 167 620 200 593 q 104 656 133 647 q 171 667 131 665 q 239 658 211 668 q 203 683 221 667 q 178 715 185 699 q 224 710 196 710 q 268 719 251 710 q 206 753 239 726 q 160 807 172 779 q 231 795 188 796 q 299 808 274 794 q 256 819 286 808 q 190 847 225 831 q 126 879 154 863 q 89 906 97 896 q 130 887 99 897 q 199 867 161 876 q 269 853 236 858 q 314 850 301 847 q 270 892 293 863 q 242 946 247 922 q 302 934 264 936 q 361 943 340 932 q 376 985 371 960 q 375 1029 381 1011 q 394 981 389 1011 q 408 1040 397 1010 q 433 1088 418 1069 q 442 1013 429 1056 q 472 944 454 971 q 479 1015 469 975 q 508 1078 489 1054 q 511 1008 500 1049 q 543 944 522 967 q 560 985 556 960 q 563 1031 565 1011 q 582 982 576 1011 q 615 1074 589 1035 q 621 1006 611 1044 q 647 944 631 968 q 686 1007 671 967 q 703 1079 701 1047 q 717 1007 718 1051 q 703 933 715 963 q 765 942 731 932 q 821 968 799 951 q 776 924 808 943 q 717 903 744 906 q 797 894 750 892 q 875 911 844 896 q 820 851 861 879 q 746 818 779 824 q 826 807 778 806 q 904 826 874 808 q 869 784 893 806 q 819 749 846 763 q 886 744 858 754 q 834 722 863 742 q 793 682 806 703 q 842 678 814 676 q 890 689 871 681 q 868 664 883 676 q 964 674 921 682 q 886 656 929 676 q 819 608 843 635 q 881 625 843 622 q 946 618 919 628 q 886 591 918 613 q 842 546 854 569 q 890 533 860 536 q 939 539 921 531 q 913 502 933 521 q 874 475 892 483 q 936 484 899 485 q 997 474 974 483 q 939 443 971 468 q 894 393 907 418 q 947 405 914 404 q 999 394 979 406 q 951 371 976 390 q 917 331 925 351 q 985 320 943 318 q 1053 338 1026 322 q 1015 294 1040 315 q 963 264 989 274 q 1008 264 983 267 q 1049 254 1033 261 q 1002 225 1028 246 q 968 183 976 204 q 1026 191 990 192 q 1082 181 1061 190 q 1031 151 1058 175 q 996 106 1004 128 q 1075 135 1025 128 q 1160 131 1125 143 q 1080 101 1124 125 q 1015 47 1036 78 q 1044 28 1029 42 q 1064 -1 1058 14 q 1035 19 1054 11 q 1001 28 1017 28 q 980 -13 989 14 q 972 -60 971 -40 q 953 -33 961 -50 q 943 3 946 -15 q 933 -58 942 -26 q 908 -111 924 -90 q 904 -40 915 -81 q 876 28 893 1 q 843 -31 856 8 q 835 -99 831 -71 q 810 -58 821 -83 q 796 -10 800 -33 q 768 -92 792 -57 q 769 -30 775 -65 q 749 29 763 6 q 685 7 725 15 q 619 7 646 -1 q 675 44 646 17 q 714 100 704 72 q 658 51 696 74 q 590 26 621 29 q 619 58 606 38 q 602 86 610 68 q 590 122 594 104 q 579 68 589 96 q 557 22 569 40 q 553 90 563 51 q 526 154 544 129 q 506 100 514 133 q 506 42 499 67 q 484 96 490 63 q 483 154 478 129 q 467 110 471 138 q 469 63 464 82 q 453 118 456 85 q 433 63 446 88 q 492 -11 461 24 q 536 -54 522 -46 q 486 -22 521 -50 q 417 40 451 7 l 417 39 l 417 40 q 393 64 404 53 q 339 69 363 61 q 394 24 367 54 q 431 -33 421 -6 q 367 9 407 -10 q 293 28 326 28 q 268 -47 276 -3 q 269 -125 260 -92 q 240 -33 246 -87 q 224 -84 235 -60 q 197 -122 213 -108 q 186 -44 200 -89 q 151 28 172 1 q 148 -17 153 8 q 132 -58 143 -42 q 130 -14 136 -39 q 113 28 124 11 q 78 -35 92 6 q 72 -106 65 -76 q 40 -34 50 -85 q 51 100 31 17 m 486 628 q 501 622 493 626 q 510 629 506 626 q 486 628 496 631 m 568 606 q 528 614 553 614 l 526 608 q 543 592 538 599 q 568 606 556 603 m 519 613 l 519 614 q 518 614 519 614 l 519 613 m 467 564 q 502 554 483 564 q 526 535 521 544 q 556 549 542 540 q 579 569 571 558 q 555 576 571 575 q 529 574 539 578 q 542 590 533 582 q 508 596 528 596 l 507 592 l 506 596 q 475 590 488 596 q 497 581 485 589 q 515 564 510 572 q 491 569 506 568 q 467 564 476 569 m 515 478 q 513 479 515 478 q 522 415 514 451 q 535 369 529 379 q 538 403 533 383 q 551 435 542 424 q 553 408 550 424 q 586 421 568 410 q 585 449 588 436 q 596 428 592 440 q 617 449 610 438 q 588 456 606 454 q 557 453 569 457 q 577 476 563 464 q 603 490 592 488 q 571 488 590 486 q 540 497 551 490 q 568 514 553 501 q 589 538 583 526 q 550 526 574 528 q 511 531 526 525 q 524 533 517 532 q 491 541 510 540 q 460 538 472 542 q 483 528 469 536 q 501 511 496 519 q 476 515 492 515 q 451 511 461 515 q 479 503 464 511 q 507 486 494 496 q 514 506 510 500 q 513 481 511 499 l 515 478 m 443 485 q 469 461 451 472 q 499 449 486 450 q 506 482 501 468 q 473 489 490 488 q 443 485 456 490 m 450 443 q 493 415 475 433 q 497 446 494 431 q 450 443 475 439 m 438 401 q 463 385 451 394 q 471 411 468 397 q 436 410 453 413 q 438 401 436 406 m 628 411 q 626 411 628 411 q 619 407 625 411 q 619 403 619 406 q 628 411 624 407 m 483 410 q 490 383 489 397 q 492 408 490 393 q 483 410 488 408 m 419 407 q 421 406 419 407 q 429 404 422 406 q 432 410 431 407 q 450 412 442 411 q 453 411 458 413 q 419 407 449 410 m 568 369 q 583 401 578 382 q 553 407 564 401 q 568 369 557 383 m 453 369 l 456 374 q 449 375 451 375 q 453 369 450 372 m 654 154 q 629 108 640 138 q 621 60 618 79 q 644 108 635 82 q 654 154 654 133 m 378 154 q 389 131 381 146 q 410 97 397 115 q 378 154 397 135 m 464 1049 q 422 1029 444 1046 q 388 994 399 1013 q 396 1042 386 1015 q 421 1082 406 1069 q 389 1092 410 1089 q 356 1090 368 1094 q 371 1119 358 1103 q 394 1143 383 1136 q 367 1172 386 1157 q 333 1190 347 1186 q 367 1209 344 1201 q 406 1215 390 1217 q 383 1264 390 1231 q 376 1319 375 1297 q 422 1288 390 1301 q 476 1276 454 1275 q 494 1308 486 1286 q 499 1343 501 1329 q 524 1317 511 1336 q 538 1285 536 1299 q 571 1313 547 1297 q 611 1333 594 1329 q 610 1288 607 1317 q 622 1246 613 1260 q 678 1233 643 1236 q 733 1240 713 1231 q 702 1194 726 1219 q 657 1160 678 1169 q 699 1142 675 1156 q 733 1113 722 1128 q 688 1116 714 1118 q 644 1104 661 1114 q 683 1071 663 1093 q 708 1028 703 1049 q 666 1056 693 1043 q 617 1069 639 1068 q 599 1035 607 1060 q 592 997 590 1010 q 548 1013 578 999 q 464 1049 518 1028 m 492 1196 q 525 1161 501 1175 l 526 1163 q 525 1208 533 1188 q 519 1192 521 1203 q 519 1174 517 1181 q 492 1196 501 1179 m 553 1119 q 548 1137 553 1126 q 539 1151 543 1147 l 542 1153 q 525 1154 532 1153 l 524 1153 l 525 1154 q 518 1156 521 1154 l 518 1156 q 502 1141 510 1151 q 493 1122 494 1131 q 508 1133 500 1125 q 519 1147 517 1140 q 529 1131 525 1142 q 553 1119 533 1121 z "},"":{"ha":1049,"x_min":-47,"x_max":1160,"o":"m 51 100 q -3 124 26 103 q -47 167 -32 146 q 12 151 -24 156 q 72 158 47 147 q 31 178 53 161 q 0 213 8 194 q 44 203 17 204 q 90 210 72 201 q 28 235 61 213 q -22 282 -6 258 q 43 261 3 265 q 110 268 83 257 q 65 309 96 290 q 7 331 33 328 q 63 333 31 336 q 29 352 44 342 q 6 375 14 363 q 69 349 31 360 q 138 347 108 338 q 92 364 117 349 q 56 396 68 379 q 101 381 72 385 q 150 383 131 376 q 95 435 132 410 q 26 465 58 460 q 102 472 57 476 q 175 451 147 468 q 113 497 154 478 q 39 517 72 515 q 74 519 54 519 q 43 547 54 532 q 115 515 71 525 q 194 510 160 506 q 131 535 165 514 q 83 581 97 556 q 147 561 107 565 q 215 567 188 557 q 167 620 200 593 q 104 656 133 647 q 171 667 131 665 q 239 658 211 668 q 203 683 221 667 q 178 715 185 699 q 224 710 196 710 q 268 719 251 710 q 206 753 239 726 q 160 807 172 779 q 231 795 188 796 q 299 808 274 794 q 256 819 286 808 q 190 847 225 831 q 126 879 154 863 q 89 906 97 896 q 130 887 99 897 q 199 867 161 876 q 269 853 236 858 q 314 850 301 847 q 270 892 293 863 q 242 946 247 922 q 302 934 264 936 q 361 943 340 932 q 376 985 371 960 q 375 1029 381 1011 q 394 981 389 1011 q 408 1040 397 1010 q 433 1088 418 1069 q 442 1013 429 1056 q 472 944 454 971 q 479 1015 469 975 q 508 1078 489 1054 q 511 1008 500 1049 q 543 944 522 967 q 560 985 556 960 q 563 1031 565 1011 q 582 982 576 1011 q 615 1074 589 1035 q 621 1006 611 1044 q 647 944 631 968 q 686 1007 671 967 q 703 1079 701 1047 q 717 1007 718 1051 q 703 933 715 963 q 765 942 731 932 q 821 968 799 951 q 776 924 808 943 q 717 903 744 906 q 797 894 750 892 q 875 911 844 896 q 820 851 861 879 q 746 818 779 824 q 826 807 778 806 q 904 826 874 808 q 869 784 893 806 q 819 749 846 763 q 886 744 858 754 q 834 722 863 742 q 793 682 806 703 q 842 678 814 676 q 890 689 871 681 q 868 664 883 676 q 964 674 921 682 q 886 656 929 676 q 819 608 843 635 q 881 625 843 622 q 946 618 919 628 q 886 591 918 613 q 842 546 854 569 q 890 533 860 536 q 939 539 921 531 q 913 502 933 521 q 874 475 892 483 q 936 484 899 485 q 997 474 974 483 q 939 443 971 468 q 894 393 907 418 q 947 405 914 404 q 999 394 979 406 q 951 371 976 390 q 917 331 925 351 q 985 320 943 318 q 1053 338 1026 322 q 1015 294 1040 315 q 963 264 989 274 q 1008 264 983 267 q 1049 254 1033 261 q 1002 225 1028 246 q 968 183 976 204 q 1026 191 990 192 q 1082 181 1061 190 q 1031 151 1058 175 q 996 106 1004 128 q 1075 135 1025 128 q 1160 131 1125 143 q 1080 101 1124 125 q 1015 47 1036 78 q 1044 28 1029 42 q 1064 -1 1058 14 q 1035 19 1054 11 q 1001 28 1017 28 q 980 -13 989 14 q 972 -60 971 -40 q 953 -33 961 -50 q 943 3 946 -15 q 933 -58 942 -26 q 908 -111 924 -90 q 904 -40 915 -81 q 876 28 893 1 q 843 -31 856 8 q 835 -99 831 -71 q 810 -58 821 -83 q 796 -10 800 -33 q 768 -92 792 -57 q 769 -30 775 -65 q 749 29 763 6 q 685 7 725 15 q 619 7 646 -1 q 675 44 646 17 q 714 100 704 72 q 658 51 696 74 q 590 26 621 29 q 619 58 606 38 q 602 86 610 68 q 590 122 594 104 q 579 68 589 96 q 557 22 569 40 q 553 90 563 51 q 526 154 544 129 q 506 100 514 133 q 506 42 499 67 q 484 96 490 63 q 483 154 478 129 q 467 110 471 138 q 469 63 464 82 q 453 118 456 85 q 433 63 446 88 q 492 -11 461 24 q 536 -54 522 -46 q 486 -22 521 -50 q 417 40 451 7 l 417 39 l 417 40 q 393 64 404 53 q 339 69 363 61 q 394 24 367 54 q 431 -33 421 -6 q 367 9 407 -10 q 293 28 326 28 q 268 -47 276 -3 q 269 -125 260 -92 q 240 -33 246 -87 q 224 -84 235 -60 q 197 -122 213 -108 q 186 -44 200 -89 q 151 28 172 1 q 148 -17 153 8 q 132 -58 143 -42 q 130 -14 136 -39 q 113 28 124 11 q 78 -35 92 6 q 72 -106 65 -76 q 40 -34 50 -85 q 51 100 31 17 m 486 628 q 501 622 493 626 q 510 629 506 626 q 486 628 496 631 m 568 606 q 528 614 553 614 l 526 608 q 543 592 538 599 q 568 606 556 603 m 519 613 l 519 614 q 518 614 519 614 l 519 613 m 467 564 q 502 554 483 564 q 526 535 521 544 q 556 549 542 540 q 579 569 571 558 q 555 576 571 575 q 529 574 539 578 q 542 590 533 582 q 508 596 528 596 l 507 592 l 506 596 q 475 590 488 596 q 497 581 485 589 q 515 564 510 572 q 491 569 506 568 q 467 564 476 569 m 515 478 q 513 479 515 478 q 522 415 514 451 q 535 369 529 379 q 538 403 533 383 q 551 435 542 424 q 553 408 550 424 q 586 421 568 410 q 585 449 588 436 q 596 428 592 440 q 617 449 610 438 q 588 456 606 454 q 557 453 569 457 q 577 476 563 464 q 603 490 592 488 q 571 488 590 486 q 540 497 551 490 q 568 514 553 501 q 589 538 583 526 q 550 526 574 528 q 511 531 526 525 q 524 533 517 532 q 491 541 510 540 q 460 538 472 542 q 483 528 469 536 q 501 511 496 519 q 476 515 492 515 q 451 511 461 515 q 479 503 464 511 q 507 486 494 496 q 514 506 510 500 q 513 481 511 499 l 515 478 m 443 485 q 469 461 451 472 q 499 449 486 450 q 506 482 501 468 q 473 489 490 488 q 443 485 456 490 m 450 443 q 493 415 475 433 q 497 446 494 431 q 450 443 475 439 m 438 401 q 463 385 451 394 q 471 411 468 397 q 436 410 453 413 q 438 401 436 406 m 628 411 q 626 411 628 411 q 619 407 625 411 q 619 403 619 406 q 628 411 624 407 m 483 410 q 490 383 489 397 q 492 408 490 393 q 483 410 488 408 m 419 407 q 421 406 419 407 q 429 404 422 406 q 432 410 431 407 q 450 412 442 411 q 453 411 458 413 q 419 407 449 410 m 568 369 q 583 401 578 382 q 553 407 564 401 q 568 369 557 383 m 453 369 l 456 374 q 449 375 451 375 q 453 369 450 372 m 654 154 q 629 108 640 138 q 621 60 618 79 q 644 108 635 82 q 654 154 654 133 m 378 154 q 389 131 381 146 q 410 97 397 115 q 378 154 397 135 m 561 1050 q 528 1040 550 1050 q 500 1021 507 1031 q 486 1052 492 1029 q 483 1088 481 1075 q 465 1044 472 1071 q 461 999 458 1018 q 435 1035 446 1011 q 390 1049 411 1049 q 385 991 394 1025 q 358 939 375 957 q 350 997 361 964 q 324 1049 339 1029 q 310 1018 322 1036 q 288 993 299 1000 q 276 1025 286 1006 q 257 1051 267 1044 q 218 1068 240 1054 q 188 1094 196 1082 q 226 1110 203 1097 q 258 1135 250 1122 q 225 1175 249 1154 q 181 1200 201 1196 q 232 1206 201 1208 q 282 1192 263 1203 q 275 1228 283 1207 q 256 1258 267 1250 q 292 1257 269 1261 q 325 1243 314 1253 q 333 1276 325 1254 q 349 1307 340 1299 q 376 1287 356 1297 q 408 1276 397 1276 q 428 1303 413 1288 q 456 1322 444 1319 q 470 1292 457 1311 q 492 1267 483 1274 q 542 1300 515 1275 q 576 1349 568 1325 q 579 1290 582 1325 q 565 1232 576 1254 q 580 1280 576 1249 q 579 1329 583 1311 q 624 1306 599 1325 q 658 1269 649 1286 q 692 1314 676 1282 q 707 1368 707 1346 q 742 1324 725 1354 q 758 1271 758 1293 q 790 1288 769 1281 q 825 1292 811 1294 q 806 1262 815 1282 q 799 1228 797 1242 q 828 1197 813 1221 q 849 1160 844 1174 q 807 1151 833 1161 q 768 1132 781 1142 q 792 1088 775 1111 q 829 1057 810 1065 q 781 1065 808 1054 q 739 1092 754 1076 q 756 1055 746 1082 q 776 994 767 1028 q 792 933 786 961 q 794 893 797 904 q 773 927 790 904 q 733 976 756 950 q 689 1022 710 1001 q 657 1046 668 1042 q 643 992 647 1024 q 649 938 639 960 q 617 988 632 956 q 561 1050 601 1019 z "},"":{"ha":1396,"x_min":-57,"x_max":1461,"o":"m 53 88 q 6 140 40 115 q -57 168 -28 164 q 10 177 -31 181 q 79 163 51 174 q 32 203 65 185 q -28 224 -1 222 q 33 225 -3 232 q 93 204 69 218 q 39 252 75 229 q -28 279 3 275 q 44 282 3 288 q 114 263 86 276 q 78 298 103 281 q 32 318 53 315 q 65 324 46 322 q -18 379 13 344 q 58 346 11 357 q 142 342 106 335 q 69 376 107 347 q 13 435 31 406 q 91 417 43 419 q 171 426 139 414 q 126 460 156 446 q 71 476 96 474 q 144 469 104 482 q 78 532 100 497 q 142 519 103 521 q 207 529 182 517 q 158 576 192 554 q 97 604 125 599 q 165 610 125 613 q 229 593 204 608 q 184 633 214 614 q 128 654 154 651 q 188 657 153 661 q 246 640 224 653 q 192 693 229 667 q 124 726 156 719 q 199 735 154 736 q 274 718 244 733 q 217 774 254 746 q 146 810 179 803 q 208 820 171 821 q 275 811 244 819 q 220 847 247 824 q 179 892 193 869 q 255 876 208 876 q 332 886 301 876 q 269 918 303 893 q 222 969 236 943 q 286 942 246 950 q 357 938 326 933 q 361 1007 364 967 q 340 1071 358 1047 q 372 1017 358 1050 q 386 956 386 983 q 403 1013 389 982 q 435 1058 417 1044 q 449 997 435 1033 q 485 944 464 960 q 503 1003 493 960 q 519 1098 513 1046 q 530 1194 526 1150 q 529 1256 533 1239 q 544 1213 536 1243 q 558 1144 551 1183 q 570 1065 565 1106 q 576 994 575 1025 q 588 1038 579 1017 q 607 1072 596 1058 q 612 1006 600 1044 q 640 944 624 968 q 660 984 653 958 q 665 1029 667 1010 q 679 1008 674 1021 q 688 982 685 996 q 699 1039 689 1010 q 721 1089 708 1068 q 724 1015 713 1057 q 751 944 735 972 q 749 1023 742 978 q 776 1096 756 1068 q 775 1017 769 1063 q 801 944 781 971 q 799 1000 794 968 q 815 1053 803 1032 q 813 998 808 1029 q 829 944 818 967 q 864 1008 851 967 q 874 1081 876 1050 q 909 1017 894 1058 q 918 944 924 975 q 944 1004 935 967 q 951 1069 954 1042 q 979 1010 971 1049 q 985 944 988 972 q 1020 1004 1006 965 q 1035 1072 1035 1043 q 1071 1013 1056 1051 q 1085 944 1086 974 q 1115 990 1100 960 q 1129 1042 1131 1019 q 1160 997 1146 1026 q 1174 944 1174 967 q 1188 992 1175 964 q 1215 1031 1200 1019 q 1230 985 1217 1011 q 1257 944 1243 958 q 1294 963 1274 947 q 1324 994 1314 979 q 1322 951 1328 976 q 1306 913 1317 926 q 1368 917 1332 922 q 1428 897 1404 911 q 1365 901 1401 906 q 1306 881 1328 896 q 1378 881 1336 889 q 1447 856 1421 874 q 1374 857 1417 863 q 1306 832 1331 851 q 1356 817 1326 831 q 1397 785 1386 803 q 1348 769 1376 783 q 1306 739 1319 754 q 1300 683 1311 717 q 1274 631 1289 649 q 1255 685 1272 654 q 1218 729 1238 715 q 1210 677 1219 707 q 1183 633 1200 647 q 1204 586 1192 604 q 1224 624 1217 599 q 1226 667 1231 649 q 1246 629 1239 654 q 1249 586 1253 604 q 1290 574 1264 578 q 1333 574 1317 569 q 1310 537 1329 557 q 1275 511 1292 517 q 1353 476 1303 486 q 1440 472 1404 467 q 1363 438 1413 447 q 1275 435 1313 429 q 1308 403 1285 418 q 1350 383 1331 389 q 1304 378 1331 378 q 1260 386 1278 379 q 1237 331 1246 365 q 1232 271 1228 297 q 1222 286 1226 278 q 1246 243 1231 260 q 1281 260 1261 246 q 1308 286 1301 274 q 1318 249 1315 274 q 1317 211 1321 225 q 1384 176 1339 188 q 1461 165 1429 164 q 1415 139 1443 151 q 1360 121 1388 126 q 1408 106 1386 117 q 1361 108 1389 113 q 1317 92 1333 104 q 1380 92 1343 99 q 1438 68 1417 85 q 1375 67 1411 75 q 1317 43 1339 58 q 1308 -6 1319 24 q 1285 -51 1297 -36 q 1260 -6 1279 -32 q 1224 28 1242 19 q 1210 -25 1224 6 q 1179 -71 1196 -56 q 1166 -17 1179 -49 q 1135 28 1153 14 q 1097 -47 1114 0 q 1085 -129 1081 -94 q 1047 -56 1061 -104 q 1035 28 1033 -7 q 1015 -35 1021 3 q 1015 -100 1010 -72 q 1000 -69 1006 -87 q 993 -29 994 -50 q 968 -85 983 -62 q 964 -26 972 -60 q 942 28 956 7 q 919 -18 928 11 q 917 -68 911 -47 q 896 -26 903 -53 q 890 21 889 0 q 872 -26 888 0 q 842 -62 857 -53 q 824 -13 839 -42 q 792 28 808 15 q 764 -11 776 17 q 753 -58 751 -39 q 731 -30 742 -49 q 717 7 721 -11 q 710 -43 717 -17 q 692 -87 703 -69 q 690 -28 697 -62 q 669 28 683 6 q 657 -49 674 -6 q 617 -114 640 -92 q 631 -38 631 -83 q 615 38 631 7 q 585 60 606 50 q 546 76 565 71 q 535 64 540 68 l 535 64 q 517 36 524 50 q 526 79 517 56 q 517 79 521 79 q 531 90 522 85 l 531 92 q 518 127 526 110 q 499 154 510 144 q 496 108 503 135 q 475 67 489 81 q 469 113 478 86 q 450 154 461 139 q 450 72 460 118 q 501 56 478 60 q 444 53 476 51 q 431 25 439 36 q 435 54 433 38 q 400 58 417 56 q 410 28 404 40 q 381 64 394 40 q 335 82 354 71 q 354 33 347 65 q 358 -19 361 1 q 317 14 347 -1 q 265 28 288 29 q 231 -33 246 7 q 222 -101 217 -72 q 190 -40 204 -79 q 178 28 175 -1 q 144 -26 158 11 q 129 -89 129 -62 q 103 -51 115 -75 q 83 -6 90 -28 q 78 -64 85 -33 q 58 -115 71 -94 q 64 -34 69 -85 q 53 88 58 17 m 582 729 q 572 713 576 722 q 588 721 579 717 q 582 729 586 722 m 1132 685 q 1133 634 1125 664 q 1154 586 1142 604 q 1155 637 1150 608 q 1172 688 1160 665 q 1147 729 1161 715 q 1127 695 1136 717 q 1117 656 1118 674 q 1132 685 1124 674 m 992 643 q 968 617 983 631 q 982 586 979 599 q 1017 638 1001 603 q 1032 699 1033 674 q 1051 678 1042 692 q 1067 649 1060 665 q 1042 729 1064 697 q 1014 701 1031 722 q 994 667 997 681 q 989 671 992 668 q 956 665 974 671 q 960 632 961 647 q 946 663 956 646 q 931 656 938 658 q 935 636 932 644 q 926 653 929 643 q 893 631 904 642 q 942 628 914 625 q 946 644 946 638 q 960 631 953 640 q 992 643 979 635 m 949 729 q 938 708 942 721 q 940 703 939 706 q 972 688 957 697 q 949 729 951 713 m 1089 707 q 1088 681 1089 696 q 1092 694 1089 688 q 1089 707 1090 701 m 564 685 q 581 667 575 675 q 600 674 590 669 q 596 699 599 688 q 571 707 578 707 q 564 685 565 696 m 1110 586 q 1108 616 1107 599 q 1115 649 1110 633 q 1093 690 1103 664 q 1093 635 1089 665 q 1110 586 1097 606 m 615 685 q 613 688 615 685 q 610 681 611 685 q 615 685 613 683 m 531 478 q 550 425 543 457 q 550 369 557 393 q 564 400 558 381 q 550 443 551 424 q 556 436 550 443 q 585 447 567 443 q 615 447 603 450 q 571 461 596 463 q 600 474 582 469 q 547 492 567 474 q 583 494 563 489 q 615 508 603 499 q 584 522 604 517 q 550 525 564 526 q 582 539 563 533 q 615 542 601 544 q 590 558 607 550 q 561 565 574 567 q 608 590 578 585 q 571 597 592 590 q 540 615 550 604 q 581 621 557 614 q 615 640 604 628 q 586 647 603 640 q 561 661 569 654 q 564 642 561 651 q 549 672 554 654 q 503 665 524 674 q 542 651 521 664 q 572 622 563 638 q 532 630 557 631 q 490 624 507 629 q 527 606 507 619 q 557 578 547 592 q 516 583 540 583 q 476 576 492 582 q 516 560 494 572 q 549 533 538 549 q 507 544 532 542 q 465 539 482 546 q 497 510 475 524 q 536 494 518 496 q 472 490 507 485 q 522 453 504 476 q 482 460 507 461 q 439 454 457 460 q 463 448 446 454 q 496 433 479 442 q 496 456 497 446 q 510 426 504 446 q 532 415 522 421 q 531 478 540 451 m 561 671 q 561 663 561 668 q 579 667 569 663 q 561 671 572 669 m 1179 664 q 1182 639 1179 651 q 1179 664 1182 651 m 1072 635 q 1076 622 1075 628 q 1079 649 1076 635 q 1072 635 1076 640 m 557 433 q 568 419 563 426 q 569 433 569 428 q 557 433 558 435 m 615 419 q 574 433 599 431 q 585 406 581 421 q 615 419 604 410 m 429 422 q 453 403 438 411 q 457 422 457 413 q 429 422 438 424 m 478 392 q 488 389 483 389 q 494 418 493 401 q 467 421 481 419 q 478 392 474 407 m 513 369 q 531 410 524 385 q 513 414 522 413 q 513 369 517 389 m 422 396 q 442 379 429 386 q 447 388 444 383 q 422 396 432 390 m 1150 333 q 1178 292 1164 319 q 1192 243 1192 264 q 1197 276 1190 257 q 1213 308 1203 296 q 1203 368 1201 342 q 1176 315 1194 335 q 1169 353 1176 331 q 1149 386 1161 376 q 1142 333 1151 364 q 1115 288 1132 303 q 1106 340 1115 310 q 1082 386 1096 369 q 1054 332 1064 368 q 1049 271 1044 296 q 1036 288 1042 278 q 1053 243 1040 261 q 1058 292 1049 264 q 1081 336 1068 319 q 1087 288 1078 315 q 1108 243 1096 260 q 1138 284 1124 256 q 1150 333 1151 313 m 1017 286 q 994 285 1006 286 q 1019 243 1006 257 q 1022 269 1018 254 q 1032 296 1025 285 q 1018 342 1022 317 q 1015 386 1014 367 q 999 372 1008 382 q 982 353 989 363 q 1011 317 1003 335 q 985 322 1000 321 q 989 301 985 313 q 1017 286 1006 294 m 479 369 q 486 386 483 376 q 479 385 483 385 q 479 369 481 376 m 965 324 q 964 324 964 324 q 940 322 951 324 q 943 311 942 317 q 969 307 957 310 q 982 324 978 318 q 965 324 975 324 l 965 324 m 893 310 q 924 313 907 313 q 924 319 924 315 q 893 310 906 315 m 950 272 q 950 260 950 265 q 954 274 951 267 l 950 272 m 411 154 q 399 103 400 135 q 433 81 414 90 q 411 154 429 126 z "},"":{"ha":1396,"x_min":-57,"x_max":1461,"o":"m 53 88 q 6 140 40 115 q -57 168 -28 164 q 10 177 -31 181 q 79 163 51 174 q 32 203 65 185 q -28 224 -1 222 q 33 225 -3 232 q 93 204 69 218 q 39 252 75 229 q -28 279 3 275 q 44 282 3 288 q 114 263 86 276 q 78 298 103 281 q 32 318 53 315 q 65 324 46 322 q -18 379 13 344 q 58 346 11 357 q 142 342 106 335 q 69 376 107 347 q 13 435 31 406 q 91 417 43 419 q 171 426 139 414 q 126 460 156 446 q 71 476 96 474 q 144 469 104 482 q 78 532 100 497 q 142 519 103 521 q 207 529 182 517 q 158 576 192 554 q 97 604 125 599 q 165 610 125 613 q 229 593 204 608 q 184 633 214 614 q 128 654 154 651 q 188 657 153 661 q 246 640 224 653 q 192 693 229 667 q 124 726 156 719 q 199 735 154 736 q 274 718 244 733 q 217 774 254 746 q 146 810 179 803 q 208 820 171 821 q 275 811 244 819 q 220 847 247 824 q 179 892 193 869 q 255 876 208 876 q 332 886 301 876 q 269 918 303 893 q 222 969 236 943 q 286 942 246 950 q 357 938 326 933 q 361 1007 364 967 q 340 1071 358 1047 q 372 1017 358 1050 q 386 956 386 983 q 403 1013 389 982 q 435 1058 417 1044 q 449 997 435 1033 q 485 944 464 960 q 503 1003 493 960 q 519 1098 513 1046 q 530 1194 526 1150 q 529 1256 533 1239 q 544 1213 536 1243 q 558 1144 551 1183 q 570 1065 565 1106 q 576 994 575 1025 q 588 1038 579 1017 q 607 1072 596 1058 q 612 1006 600 1044 q 640 944 624 968 q 660 984 653 958 q 665 1029 667 1010 q 679 1008 674 1021 q 688 982 685 996 q 699 1039 689 1010 q 721 1089 708 1068 q 724 1015 713 1057 q 751 944 735 972 q 749 1023 742 978 q 776 1096 756 1068 q 775 1017 769 1063 q 801 944 781 971 q 799 1000 794 968 q 815 1053 803 1032 q 813 998 808 1029 q 829 944 818 967 q 864 1008 851 967 q 874 1081 876 1050 q 909 1017 894 1058 q 918 944 924 975 q 944 1004 935 967 q 951 1069 954 1042 q 979 1010 971 1049 q 985 944 988 972 q 1020 1004 1006 965 q 1035 1072 1035 1043 q 1071 1013 1056 1051 q 1085 944 1086 974 q 1115 990 1100 960 q 1129 1042 1131 1019 q 1160 997 1146 1026 q 1174 944 1174 967 q 1188 992 1175 964 q 1215 1031 1200 1019 q 1230 985 1217 1011 q 1257 944 1243 958 q 1294 963 1274 947 q 1324 994 1314 979 q 1322 951 1328 976 q 1306 913 1317 926 q 1368 917 1332 922 q 1428 897 1404 911 q 1365 901 1401 906 q 1306 881 1328 896 q 1378 881 1336 889 q 1447 856 1421 874 q 1374 857 1417 863 q 1306 832 1331 851 q 1356 817 1326 831 q 1397 785 1386 803 q 1348 769 1376 783 q 1306 739 1319 754 q 1300 683 1311 717 q 1274 631 1289 649 q 1255 685 1272 654 q 1218 729 1238 715 q 1210 677 1219 707 q 1183 633 1200 647 q 1204 586 1192 604 q 1224 624 1217 599 q 1226 667 1231 649 q 1246 629 1239 654 q 1249 586 1253 604 q 1290 574 1264 578 q 1333 574 1317 569 q 1310 537 1329 557 q 1275 511 1292 517 q 1353 476 1303 486 q 1440 472 1404 467 q 1363 438 1413 447 q 1275 435 1313 429 q 1308 403 1285 418 q 1350 383 1331 389 q 1304 378 1331 378 q 1260 386 1278 379 q 1237 331 1246 365 q 1232 271 1228 297 q 1222 286 1226 278 q 1246 243 1231 260 q 1281 260 1261 246 q 1308 286 1301 274 q 1318 249 1315 274 q 1317 211 1321 225 q 1384 176 1339 188 q 1461 165 1429 164 q 1415 139 1443 151 q 1360 121 1388 126 q 1408 106 1386 117 q 1361 108 1389 113 q 1317 92 1333 104 q 1380 92 1343 99 q 1438 68 1417 85 q 1375 67 1411 75 q 1317 43 1339 58 q 1308 -6 1319 24 q 1285 -51 1297 -36 q 1260 -6 1279 -32 q 1224 28 1242 19 q 1210 -25 1224 6 q 1179 -71 1196 -56 q 1166 -17 1179 -49 q 1135 28 1153 14 q 1097 -47 1114 0 q 1085 -129 1081 -94 q 1047 -56 1061 -104 q 1035 28 1033 -7 q 1015 -35 1021 3 q 1015 -100 1010 -72 q 1000 -69 1006 -87 q 993 -29 994 -50 q 968 -85 983 -62 q 964 -26 972 -60 q 942 28 956 7 q 919 -18 928 11 q 917 -68 911 -47 q 896 -26 903 -53 q 890 21 889 0 q 872 -26 888 0 q 842 -62 857 -53 q 824 -13 839 -42 q 792 28 808 15 q 764 -11 776 17 q 753 -58 751 -39 q 731 -30 742 -49 q 717 7 721 -11 q 710 -43 717 -17 q 692 -87 703 -69 q 690 -28 697 -62 q 669 28 683 6 q 657 -49 674 -6 q 617 -114 640 -92 q 631 -38 631 -83 q 615 38 631 7 q 585 60 606 50 q 546 76 565 71 q 535 64 540 68 l 535 64 q 517 36 524 50 q 526 79 517 56 q 517 79 521 79 q 531 90 522 85 l 531 92 q 518 127 526 110 q 499 154 510 144 q 496 108 503 135 q 475 67 489 81 q 469 113 478 86 q 450 154 461 139 q 450 72 460 118 q 501 56 478 60 q 444 53 476 51 q 431 25 439 36 q 435 54 433 38 q 400 58 417 56 q 410 28 404 40 q 381 64 394 40 q 335 82 354 71 q 354 33 347 65 q 358 -19 361 1 q 317 14 347 -1 q 265 28 288 29 q 231 -33 246 7 q 222 -101 217 -72 q 190 -40 204 -79 q 178 28 175 -1 q 144 -26 158 11 q 129 -89 129 -62 q 103 -51 115 -75 q 83 -6 90 -28 q 78 -64 85 -33 q 58 -115 71 -94 q 64 -34 69 -85 q 53 88 58 17 m 582 729 q 572 713 576 722 q 588 721 579 717 q 582 729 586 722 m 1132 685 q 1133 634 1125 664 q 1154 586 1142 604 q 1155 637 1150 608 q 1172 688 1160 665 q 1147 729 1161 715 q 1127 695 1136 717 q 1117 656 1118 674 q 1132 685 1124 674 m 992 643 q 968 617 983 631 q 982 586 979 599 q 1017 638 1001 603 q 1032 699 1033 674 q 1051 678 1042 692 q 1067 649 1060 665 q 1042 729 1064 697 q 1014 701 1031 722 q 994 667 997 681 q 989 671 992 668 q 956 665 974 671 q 960 632 961 647 q 946 663 956 646 q 931 656 938 658 q 935 636 932 644 q 926 653 929 643 q 893 631 904 642 q 942 628 914 625 q 946 644 946 638 q 960 631 953 640 q 992 643 979 635 m 949 729 q 938 708 942 721 q 940 703 939 706 q 972 688 957 697 q 949 729 951 713 m 1089 707 q 1088 681 1089 696 q 1092 694 1089 688 q 1089 707 1090 701 m 564 685 q 581 667 575 675 q 600 674 590 669 q 596 699 599 688 q 571 707 578 707 q 564 685 565 696 m 1110 586 q 1108 616 1107 599 q 1115 649 1110 633 q 1093 690 1103 664 q 1093 635 1089 665 q 1110 586 1097 606 m 615 685 q 613 688 615 685 q 610 681 611 685 q 615 685 613 683 m 531 478 q 550 425 543 457 q 550 369 557 393 q 564 400 558 381 q 550 443 551 424 q 556 436 550 443 q 585 447 567 443 q 615 447 603 450 q 571 461 596 463 q 600 474 582 469 q 547 492 567 474 q 583 494 563 489 q 615 508 603 499 q 584 522 604 517 q 550 525 564 526 q 582 539 563 533 q 615 542 601 544 q 590 558 607 550 q 561 565 574 567 q 608 590 578 585 q 571 597 592 590 q 540 615 550 604 q 581 621 557 614 q 615 640 604 628 q 586 647 603 640 q 561 661 569 654 q 564 642 561 651 q 549 672 554 654 q 503 665 524 674 q 542 651 521 664 q 572 622 563 638 q 532 630 557 631 q 490 624 507 629 q 527 606 507 619 q 557 578 547 592 q 516 583 540 583 q 476 576 492 582 q 516 560 494 572 q 549 533 538 549 q 507 544 532 542 q 465 539 482 546 q 497 510 475 524 q 536 494 518 496 q 472 490 507 485 q 522 453 504 476 q 482 460 507 461 q 439 454 457 460 q 463 448 446 454 q 496 433 479 442 q 496 456 497 446 q 510 426 504 446 q 532 415 522 421 q 531 478 540 451 m 561 671 q 561 663 561 668 q 579 667 569 663 q 561 671 572 669 m 1179 664 q 1182 639 1179 651 q 1179 664 1182 651 m 1072 635 q 1076 622 1075 628 q 1079 649 1076 635 q 1072 635 1076 640 m 557 433 q 568 419 563 426 q 569 433 569 428 q 557 433 558 435 m 615 419 q 574 433 599 431 q 585 406 581 421 q 615 419 604 410 m 429 422 q 453 403 438 411 q 457 422 457 413 q 429 422 438 424 m 478 392 q 488 389 483 389 q 494 418 493 401 q 467 421 481 419 q 478 392 474 407 m 513 369 q 531 410 524 385 q 513 414 522 413 q 513 369 517 389 m 422 396 q 442 379 429 386 q 447 388 444 383 q 422 396 432 390 m 1150 333 q 1178 292 1164 319 q 1192 243 1192 264 q 1197 276 1190 257 q 1213 308 1203 296 q 1203 368 1201 342 q 1176 315 1194 335 q 1169 353 1176 331 q 1149 386 1161 376 q 1142 333 1151 364 q 1115 288 1132 303 q 1106 340 1115 310 q 1082 386 1096 369 q 1054 332 1064 368 q 1049 271 1044 296 q 1036 288 1042 278 q 1053 243 1040 261 q 1058 292 1049 264 q 1081 336 1068 319 q 1087 288 1078 315 q 1108 243 1096 260 q 1138 284 1124 256 q 1150 333 1151 313 m 1017 286 q 994 285 1006 286 q 1019 243 1006 257 q 1022 269 1018 254 q 1032 296 1025 285 q 1018 342 1022 317 q 1015 386 1014 367 q 999 372 1008 382 q 982 353 989 363 q 1011 317 1003 335 q 985 322 1000 321 q 989 301 985 313 q 1017 286 1006 294 m 479 369 q 486 386 483 376 q 479 385 483 385 q 479 369 481 376 m 965 324 q 964 324 964 324 q 940 322 951 324 q 943 311 942 317 q 969 307 957 310 q 982 324 978 318 q 965 324 975 324 l 965 324 m 893 310 q 924 313 907 313 q 924 319 924 315 q 893 310 906 315 m 950 272 q 950 260 950 265 q 954 274 951 267 l 950 272 m 411 154 q 399 103 400 135 q 433 81 414 90 q 411 154 429 126 m 585 1107 q 542 1139 563 1117 q 514 1182 521 1161 q 553 1147 526 1163 q 601 1129 579 1132 q 567 1160 585 1139 q 547 1201 550 1182 q 585 1174 560 1185 q 629 1163 610 1163 q 622 1207 631 1179 q 600 1246 613 1235 q 645 1247 617 1250 q 689 1235 674 1243 q 682 1276 690 1251 q 661 1313 674 1301 q 701 1298 679 1311 q 732 1271 722 1285 q 762 1314 749 1285 q 776 1364 775 1343 q 808 1321 793 1350 q 822 1271 822 1292 q 842 1297 832 1279 q 853 1326 851 1314 q 873 1301 863 1319 q 883 1271 883 1283 q 890 1317 881 1290 q 914 1358 900 1344 q 922 1312 913 1339 q 944 1271 931 1285 q 962 1319 956 1290 q 964 1369 968 1347 q 978 1341 974 1358 q 985 1306 983 1324 q 995 1344 988 1325 q 1014 1375 1003 1363 q 1013 1319 1008 1351 q 1029 1267 1018 1288 q 1042 1235 1036 1258 q 1046 1200 1049 1211 q 1011 1202 1035 1204 q 976 1193 988 1200 q 971 1153 971 1181 q 978 1115 971 1126 q 938 1117 964 1113 q 900 1131 911 1122 q 909 1085 900 1111 q 933 1047 918 1060 q 895 1061 915 1049 q 863 1089 875 1074 q 878 1055 872 1075 q 882 1019 883 1035 q 850 1046 871 1033 q 813 1060 829 1058 q 819 1015 819 1042 q 811 971 819 989 q 797 1013 811 990 q 768 1049 783 1036 q 753 1016 760 1036 q 749 981 747 996 q 733 1013 739 992 q 729 1049 728 1033 q 701 1021 717 1043 q 682 985 685 999 q 654 1013 669 992 q 636 1049 639 1035 q 632 1010 638 1032 q 617 975 626 988 q 613 1014 619 992 q 597 1049 607 1036 q 598 1006 603 1031 q 583 967 593 982 q 585 1016 588 985 q 585 1107 583 1047 z "},"B":{"ha":1019,"x_min":-49,"x_max":1096,"o":"m 104 43 q 58 63 86 56 q 7 68 29 71 q 43 86 21 79 q 86 93 65 93 q 27 108 58 96 q -19 138 -4 119 q 46 149 8 135 q 104 182 83 163 q 47 192 81 181 q -1 221 14 203 q 55 230 22 217 q 104 260 88 243 q 29 263 72 251 q -39 294 -14 275 q 37 299 -7 289 q 104 331 81 310 q 53 329 83 324 q 7 347 24 335 q 57 347 28 342 q 104 364 86 353 q 38 396 81 386 q -36 400 -6 406 q 32 431 -10 418 q 104 436 74 443 q 51 465 85 453 q -7 475 18 478 q 37 500 10 489 q 89 514 64 511 q 16 527 56 514 q -49 558 -24 540 q 33 567 -14 554 q 104 603 79 579 q 41 619 78 601 q -15 656 4 636 q 49 671 11 654 q 104 708 88 688 q 27 710 72 699 q -44 740 -18 721 q 33 744 -12 733 q 104 774 78 754 q 56 793 86 788 q 4 793 26 799 q 57 813 26 807 q 11 829 29 818 q 58 830 31 824 q 104 846 86 836 q 52 872 86 863 q -7 879 18 881 q 45 905 11 896 q 104 913 79 914 q 83 966 89 932 q 83 1024 78 1000 q 117 978 93 1001 q 164 944 142 954 q 164 1008 157 971 q 186 1068 171 1044 q 185 1004 179 1042 q 208 944 192 967 q 221 1026 204 979 q 261 1100 238 1074 q 275 1018 258 1065 q 314 944 292 971 q 313 1002 307 968 q 336 1056 319 1036 q 338 997 332 1031 q 358 944 343 964 q 379 1020 374 975 q 375 1099 385 1065 q 394 1044 388 1076 q 422 1101 404 1081 q 425 1021 415 1067 q 453 944 435 975 q 490 1017 475 971 q 503 1097 506 1063 q 535 1047 521 1079 q 553 983 549 1015 q 572 1038 558 1018 q 573 989 567 1017 q 592 944 579 961 q 622 1014 611 971 q 624 1089 632 1057 q 647 1016 639 1060 q 642 942 654 972 q 669 1003 661 965 q 675 1068 678 1040 q 690 1005 689 1043 q 681 939 690 967 q 718 985 700 954 q 739 1043 736 1017 q 757 985 753 1021 q 753 924 761 949 q 785 972 760 947 q 832 1006 811 996 q 819 949 821 985 q 829 892 818 913 q 875 930 843 913 q 932 947 907 947 q 901 897 915 931 q 888 839 886 864 q 965 833 918 829 q 1040 856 1013 838 q 992 792 1028 825 q 925 753 957 760 q 969 745 943 746 q 1013 753 994 744 q 976 733 999 742 q 1042 726 1008 735 q 1096 703 1075 718 q 1011 701 1060 713 q 932 668 963 689 q 992 630 960 658 q 1036 575 1024 601 q 967 591 1010 590 q 896 582 924 592 q 929 538 915 564 q 943 547 938 542 q 933 531 939 540 q 940 514 938 522 q 975 557 965 536 q 965 515 974 538 q 944 471 957 492 q 961 467 953 468 q 942 467 951 465 q 918 440 931 451 q 982 469 944 458 q 1047 474 1019 479 q 983 433 1017 464 q 940 372 950 403 q 1019 378 972 385 q 1096 353 1067 371 q 1019 334 1063 351 q 953 290 975 317 q 1006 269 976 288 q 1049 232 1035 251 q 992 231 1026 238 q 939 208 957 224 q 984 188 960 203 q 1018 156 1008 174 q 972 171 1000 165 q 925 171 944 176 q 978 124 951 156 q 1013 61 1004 92 q 952 99 992 85 q 882 114 913 113 q 918 48 904 90 q 931 -26 932 6 q 883 31 918 3 q 818 69 849 60 q 810 18 810 50 q 819 -33 811 -14 q 781 1 800 -24 q 754 47 763 26 q 760 -2 761 26 q 749 -49 760 -31 q 735 -2 749 -28 q 706 36 722 24 q 702 -47 713 1 q 672 -124 692 -94 q 655 -43 674 -89 q 611 28 636 3 q 606 -25 614 6 q 583 -74 599 -56 q 578 -21 586 -51 q 556 28 569 10 q 542 -23 556 7 q 511 -67 528 -53 q 498 -16 513 -46 q 468 28 483 14 q 471 -43 478 -1 q 449 -111 464 -85 q 450 -40 456 -81 q 429 28 444 1 q 417 -22 428 7 q 393 -65 407 -50 q 384 -15 394 -44 q 357 28 374 14 q 340 -24 343 8 q 343 -81 336 -57 q 326 -27 331 -60 q 329 28 321 6 q 309 -13 318 13 q 304 -57 300 -39 q 282 -10 289 -40 q 273 -69 281 -39 q 251 -118 265 -99 q 251 -42 258 -86 q 225 28 244 1 q 200 -45 206 0 q 203 -124 194 -90 q 179 -49 186 -93 q 181 28 172 -6 q 155 -18 167 11 q 147 -69 143 -47 q 122 -22 133 -53 q 104 43 110 10 m 424 761 l 424 758 l 426 758 l 424 761 m 490 639 q 497 607 490 625 q 513 579 503 589 q 518 603 513 589 q 532 624 524 617 q 538 600 532 614 q 553 581 544 586 q 539 619 542 594 q 542 661 536 644 q 560 624 546 644 q 590 594 574 603 q 574 628 586 610 q 550 654 563 646 q 585 653 564 657 q 546 665 565 660 q 519 669 526 671 q 538 675 524 672 q 571 681 553 678 q 563 683 569 681 q 590 698 576 686 q 613 721 604 710 q 588 717 603 722 q 567 706 574 713 q 567 722 565 713 q 543 696 556 704 q 542 730 546 710 q 529 761 538 750 q 517 726 521 747 q 515 690 513 706 q 501 724 506 703 q 488 685 497 700 q 488 723 493 700 q 474 761 482 746 q 467 727 475 747 q 449 697 458 707 q 447 713 450 704 q 396 700 422 697 q 421 691 406 699 q 442 675 436 683 q 417 667 432 675 q 396 651 403 658 q 428 645 410 651 q 456 629 446 639 q 424 624 442 631 q 396 607 406 617 q 435 592 411 596 q 446 628 444 611 q 461 606 454 621 q 468 579 468 590 q 474 611 468 593 q 490 639 481 629 m 415 724 q 447 717 432 717 q 433 747 443 732 q 424 746 429 747 q 415 724 421 733 m 396 733 q 410 725 401 729 q 407 740 410 733 q 396 733 404 739 m 856 543 q 881 514 865 528 q 906 524 894 517 q 856 543 878 542 m 901 496 q 908 492 906 493 q 929 506 919 497 q 919 514 925 510 q 901 496 911 504 m 860 471 q 886 481 872 474 l 882 482 q 860 471 871 474 m 428 403 q 439 367 436 389 l 444 367 q 438 387 442 376 q 428 403 435 397 m 528 283 q 544 249 538 271 q 547 211 550 228 q 559 246 556 224 q 558 282 563 268 q 583 256 571 274 q 597 222 594 238 q 593 251 599 233 q 579 275 588 268 q 618 267 597 276 q 594 293 601 281 q 622 296 606 292 q 644 307 638 300 q 600 317 625 317 q 566 304 583 308 q 533 300 549 300 q 583 328 557 308 q 622 371 610 349 q 602 357 617 364 q 578 350 588 350 q 583 374 582 358 q 581 399 583 390 q 560 369 569 389 q 553 335 551 349 q 540 359 544 343 q 536 389 536 375 q 524 361 532 372 q 520 383 525 371 q 510 403 515 396 q 501 380 510 393 q 485 361 493 367 q 476 384 485 371 q 461 403 468 397 q 451 367 463 386 l 453 367 q 450 365 453 367 q 444 358 447 361 l 444 361 l 439 358 q 439 344 440 350 q 468 329 458 339 q 430 326 451 331 q 396 310 408 321 q 438 306 414 314 q 476 285 463 297 q 434 279 458 288 q 396 260 410 271 q 427 257 410 263 q 458 243 444 251 q 458 263 460 254 q 470 238 467 254 q 472 211 474 222 q 487 241 481 222 q 490 274 493 260 q 505 244 499 263 q 510 211 511 225 q 526 246 519 224 q 528 283 532 268 m 396 386 q 415 374 403 379 q 396 386 406 383 m 413 349 q 438 344 425 349 q 431 356 435 350 q 413 349 422 351 m 444 211 q 456 236 451 221 q 433 228 442 235 q 444 211 424 221 z "},"C":{"ha":1018,"x_min":-74,"x_max":1092,"o":"m 499 14 q 480 -41 497 -10 q 443 -86 463 -72 q 432 -29 443 -62 q 404 21 421 4 q 363 -42 379 0 q 346 -117 347 -83 q 332 -74 336 -99 q 331 -22 328 -49 q 293 -79 315 -58 q 313 -20 308 -56 q 311 43 318 15 q 288 -2 306 21 q 247 -44 269 -25 q 203 -69 224 -62 q 224 7 218 -40 q 221 86 229 54 q 164 72 197 88 q 114 39 131 57 q 124 97 111 63 q 151 150 136 131 q 73 122 115 144 q 11 67 31 99 q 63 133 28 100 q 135 172 99 165 q 49 177 100 185 q -32 150 -1 169 q 22 216 -17 182 q 96 258 60 250 q 47 263 76 256 q 4 282 18 269 q 47 303 22 286 q 81 336 71 319 q 3 351 49 349 q -74 339 -42 353 q 1 367 -44 358 q 79 364 46 375 q 14 401 57 386 q -61 413 -29 417 q -8 447 -42 431 q 57 467 26 463 q 9 478 33 468 q -31 501 -15 489 q 26 508 -7 497 q 78 535 60 519 q 32 553 58 536 q -4 585 6 569 q 42 601 14 588 q 81 631 71 614 q 35 665 67 650 q -22 682 3 679 q 15 696 -7 690 q 57 701 36 701 q -6 729 25 710 q -54 771 -37 749 q 25 744 -22 753 q 108 744 72 735 q 73 793 97 767 q 26 831 49 819 q 82 831 49 836 q 136 811 115 825 q 94 851 121 824 q 38 910 67 878 q -11 972 10 943 q -36 1015 -32 1001 q 2 976 -28 1001 q 69 924 32 951 q 140 878 107 897 q 188 857 172 858 q 184 915 193 881 q 163 968 175 949 q 215 945 186 967 q 257 904 243 924 q 242 937 250 913 q 226 992 233 961 q 215 1048 218 1022 q 213 1085 211 1074 q 228 1051 215 1074 q 257 1002 240 1028 q 290 956 274 976 q 314 928 306 935 q 313 986 318 953 q 293 1039 308 1019 q 338 958 328 1008 q 346 1016 338 985 q 367 1065 354 1047 q 393 1004 369 1038 q 439 954 417 971 q 465 1031 457 985 q 464 1111 472 1078 q 498 1040 488 1086 q 506 958 508 993 q 536 1014 522 979 q 546 1075 550 1049 q 572 1027 563 1058 q 579 969 581 996 q 603 1031 585 999 q 642 1081 621 1064 q 642 1010 633 1051 q 667 943 651 968 q 709 987 689 957 q 733 1042 729 1017 q 744 983 743 1018 q 738 924 746 947 q 799 972 767 939 q 839 1039 832 1006 q 838 960 846 1006 q 813 886 829 915 q 858 926 828 906 q 914 946 889 946 q 886 892 899 926 q 878 835 874 858 q 946 866 903 853 q 1021 874 989 879 q 965 822 993 857 q 931 756 938 786 q 997 749 957 746 q 1058 769 1036 753 q 1009 726 1042 747 q 949 703 976 704 q 999 681 965 688 q 1054 679 1032 675 q 1010 646 1040 661 q 957 631 981 631 q 935 588 943 617 q 932 540 928 560 q 908 581 918 554 q 899 628 897 608 q 872 563 882 603 q 868 493 861 522 q 840 558 850 517 q 838 628 829 599 q 812 571 821 607 q 810 510 803 535 q 787 567 794 532 q 782 628 779 601 q 749 579 764 613 q 732 522 733 546 q 699 572 715 539 q 682 628 682 604 q 625 567 664 596 q 550 528 586 538 q 609 588 582 546 q 639 667 636 631 q 599 633 625 649 q 547 607 574 617 l 547 607 l 547 607 q 517 600 531 603 q 515 588 515 593 q 513 600 514 593 q 508 599 510 600 q 507 599 506 599 q 511 589 508 594 q 501 599 507 593 l 501 599 l 501 599 q 499 603 500 601 q 439 598 471 596 q 385 610 407 600 q 433 581 404 594 q 491 560 461 567 q 544 558 521 553 q 497 531 526 543 q 437 513 468 518 q 383 513 406 507 q 440 493 404 497 q 503 499 476 489 q 444 481 479 483 q 383 485 408 479 q 459 453 411 464 q 542 453 507 443 q 467 422 513 433 q 524 406 500 418 q 452 409 494 415 q 385 385 410 403 q 437 391 407 392 q 494 385 467 390 l 496 390 q 501 383 499 386 q 519 378 511 381 q 535 386 526 382 q 522 376 529 382 q 543 368 533 372 q 515 368 531 369 q 531 354 522 361 l 535 358 q 532 353 533 356 q 583 319 556 333 q 635 297 611 304 q 590 342 619 319 q 533 365 560 364 q 595 364 560 371 q 653 340 631 357 q 685 406 674 364 q 696 481 697 449 q 726 439 713 465 q 746 386 739 413 q 765 456 749 426 q 763 399 758 432 q 782 344 768 365 q 785 399 779 368 q 807 447 792 431 q 812 394 804 424 q 832 344 819 364 q 859 388 847 360 q 868 438 871 417 q 891 404 881 426 q 904 363 901 382 q 910 400 904 381 q 926 431 917 419 q 931 385 924 411 q 949 344 938 360 q 1019 322 976 329 q 1092 324 1061 315 q 1024 295 1065 306 q 951 288 983 285 q 994 241 965 265 q 1047 213 1022 217 q 987 201 1024 203 q 926 208 950 199 q 956 160 933 185 q 1000 125 978 135 q 944 131 976 122 q 893 157 911 140 q 902 96 890 132 q 931 42 914 60 q 870 56 906 40 q 819 90 835 71 q 847 23 838 64 q 851 -49 856 -18 q 815 14 844 -18 q 756 57 785 46 q 746 4 747 36 q 753 -49 744 -28 q 714 -13 733 -37 q 689 31 694 11 q 701 -46 700 -1 q 688 -121 701 -90 q 669 -44 686 -86 q 628 22 651 -1 q 617 -60 631 -12 q 583 -136 603 -108 q 562 -56 586 -101 q 499 14 538 -10 m 501 743 q 493 667 492 710 q 514 650 504 658 q 522 682 517 665 q 501 743 517 718 m 588 726 q 549 685 567 713 q 531 632 543 656 q 533 628 532 631 q 568 676 553 650 q 588 726 583 703 m 426 707 l 426 707 q 424 708 425 707 q 426 707 424 708 m 389 643 q 436 619 407 628 q 493 610 465 611 q 476 638 483 622 q 430 647 453 644 q 389 643 407 649 m 497 631 q 503 610 500 619 q 510 610 507 610 q 511 610 513 610 q 511 625 511 618 q 497 631 504 629 m 521 622 q 519 614 519 618 q 521 621 521 618 l 521 622 m 524 621 q 519 614 521 615 q 525 619 522 617 l 524 621 m 504 606 l 506 603 q 513 607 508 604 l 513 608 q 504 606 508 607 m 392 315 q 447 321 417 313 q 496 364 469 346 q 496 365 496 365 q 439 346 467 360 q 392 315 411 332 m 499 351 q 483 331 490 342 q 501 339 493 335 q 499 351 500 344 m 450 243 q 472 287 453 261 q 507 319 492 313 q 506 321 507 321 q 463 290 488 304 q 450 243 451 264 m 556 233 q 511 308 529 261 q 530 266 517 289 q 556 233 543 243 z "},"":{"ha":1018,"x_min":-74,"x_max":1092,"o":"m 499 14 q 480 -41 497 -10 q 443 -86 463 -72 q 432 -29 443 -62 q 404 21 421 4 q 363 -42 379 0 q 346 -117 347 -83 q 332 -74 336 -99 q 331 -22 328 -49 q 293 -79 315 -58 q 313 -20 308 -56 q 311 43 318 15 q 288 -2 306 21 q 247 -44 269 -25 q 203 -69 224 -62 q 224 7 218 -40 q 221 86 229 54 q 164 72 197 88 q 114 39 131 57 q 124 97 111 63 q 151 150 136 131 q 73 122 115 144 q 11 67 31 99 q 63 133 28 100 q 135 172 99 165 q 49 177 100 185 q -32 150 -1 169 q 22 216 -17 182 q 96 258 60 250 q 47 263 76 256 q 4 282 18 269 q 47 303 22 286 q 81 336 71 319 q 3 351 49 349 q -74 339 -42 353 q 1 367 -44 358 q 79 364 46 375 q 14 401 57 386 q -61 413 -29 417 q -8 447 -42 431 q 57 467 26 463 q 9 478 33 468 q -31 501 -15 489 q 26 508 -7 497 q 78 535 60 519 q 32 553 58 536 q -4 585 6 569 q 42 601 14 588 q 81 631 71 614 q 35 665 67 650 q -22 682 3 679 q 15 696 -7 690 q 57 701 36 701 q -6 729 25 710 q -54 771 -37 749 q 25 744 -22 753 q 108 744 72 735 q 73 793 97 767 q 26 831 49 819 q 82 831 49 836 q 136 811 115 825 q 94 851 121 824 q 38 910 67 878 q -11 972 10 943 q -36 1015 -32 1001 q 2 976 -28 1001 q 69 924 32 951 q 140 878 107 897 q 188 857 172 858 q 184 915 193 881 q 163 968 175 949 q 215 945 186 967 q 257 904 243 924 q 242 937 250 913 q 226 992 233 961 q 215 1048 218 1022 q 213 1085 211 1074 q 228 1051 215 1074 q 257 1002 240 1028 q 290 956 274 976 q 314 928 306 935 q 313 986 318 953 q 293 1039 308 1019 q 338 958 328 1008 q 346 1016 338 985 q 367 1065 354 1047 q 393 1004 369 1038 q 439 954 417 971 q 465 1031 457 985 q 464 1111 472 1078 q 498 1040 488 1086 q 506 958 508 993 q 536 1014 522 979 q 546 1075 550 1049 q 572 1027 563 1058 q 579 969 581 996 q 603 1031 585 999 q 642 1081 621 1064 q 642 1010 633 1051 q 667 943 651 968 q 709 987 689 957 q 733 1042 729 1017 q 744 983 743 1018 q 738 924 746 947 q 799 972 767 939 q 839 1039 832 1006 q 838 960 846 1006 q 813 886 829 915 q 858 926 828 906 q 914 946 889 946 q 886 892 899 926 q 878 835 874 858 q 946 866 903 853 q 1021 874 989 879 q 965 822 993 857 q 931 756 938 786 q 997 749 957 746 q 1058 769 1036 753 q 1009 726 1042 747 q 949 703 976 704 q 999 681 965 688 q 1054 679 1032 675 q 1010 646 1040 661 q 957 631 981 631 q 935 588 943 617 q 932 540 928 560 q 908 581 918 554 q 899 628 897 608 q 872 563 882 603 q 868 493 861 522 q 840 558 850 517 q 838 628 829 599 q 812 571 821 607 q 810 510 803 535 q 787 567 794 532 q 782 628 779 601 q 749 579 764 613 q 732 522 733 546 q 699 572 715 539 q 682 628 682 604 q 625 567 664 596 q 550 528 586 538 q 609 588 582 546 q 639 667 636 631 q 599 633 625 649 q 547 607 574 617 l 547 607 l 547 607 q 517 600 531 603 q 515 588 515 593 q 513 600 514 593 q 508 599 510 600 q 507 599 506 599 q 511 589 508 594 q 501 599 507 593 l 501 599 l 501 599 q 499 603 500 601 q 439 598 471 596 q 385 610 407 600 q 433 581 404 594 q 491 560 461 567 q 544 558 521 553 q 497 531 526 543 q 437 513 468 518 q 383 513 406 507 q 440 493 404 497 q 503 499 476 489 q 444 481 479 483 q 383 485 408 479 q 459 453 411 464 q 542 453 507 443 q 467 422 513 433 q 524 406 500 418 q 452 409 494 415 q 385 385 410 403 q 437 391 407 392 q 494 385 467 390 l 496 390 q 501 383 499 386 q 519 378 511 381 q 535 386 526 382 q 522 376 529 382 q 543 368 533 372 q 515 368 531 369 q 531 354 522 361 l 535 358 q 532 353 533 356 q 583 319 556 333 q 635 297 611 304 q 590 342 619 319 q 533 365 560 364 q 595 364 560 371 q 653 340 631 357 q 685 406 674 364 q 696 481 697 449 q 726 439 713 465 q 746 386 739 413 q 765 456 749 426 q 763 399 758 432 q 782 344 768 365 q 785 399 779 368 q 807 447 792 431 q 812 394 804 424 q 832 344 819 364 q 859 388 847 360 q 868 438 871 417 q 891 404 881 426 q 904 363 901 382 q 910 400 904 381 q 926 431 917 419 q 931 385 924 411 q 949 344 938 360 q 1019 322 976 329 q 1092 324 1061 315 q 1024 295 1065 306 q 951 288 983 285 q 994 241 965 265 q 1047 213 1022 217 q 987 201 1024 203 q 926 208 950 199 q 956 160 933 185 q 1000 125 978 135 q 944 131 976 122 q 893 157 911 140 q 902 96 890 132 q 931 42 914 60 q 870 56 906 40 q 819 90 835 71 q 847 23 838 64 q 851 -49 856 -18 q 815 14 844 -18 q 756 57 785 46 q 746 4 747 36 q 753 -49 744 -28 q 714 -13 733 -37 q 689 31 694 11 q 701 -46 700 -1 q 688 -121 701 -90 q 669 -44 686 -86 q 628 22 651 -1 q 617 -60 631 -12 q 583 -136 603 -108 q 562 -56 586 -101 q 499 14 538 -10 m 501 743 q 493 667 492 710 q 514 650 504 658 q 522 682 517 665 q 501 743 517 718 m 588 726 q 549 685 567 713 q 531 632 543 656 q 533 628 532 631 q 568 676 553 650 q 588 726 583 703 m 426 707 l 426 707 q 424 708 425 707 q 426 707 424 708 m 389 643 q 436 619 407 628 q 493 610 465 611 q 476 638 483 622 q 430 647 453 644 q 389 643 407 649 m 497 631 q 503 610 500 619 q 510 610 507 610 q 511 610 513 610 q 511 625 511 618 q 497 631 504 629 m 521 622 q 519 614 519 618 q 521 621 521 618 l 521 622 m 524 621 q 519 614 521 615 q 525 619 522 617 l 524 621 m 504 606 l 506 603 q 513 607 508 604 l 513 608 q 504 606 508 607 m 392 315 q 447 321 417 313 q 496 364 469 346 q 496 365 496 365 q 439 346 467 360 q 392 315 411 332 m 499 351 q 483 331 490 342 q 501 339 493 335 q 499 351 500 344 m 450 243 q 472 287 453 261 q 507 319 492 313 q 506 321 507 321 q 463 290 488 304 q 450 243 451 264 m 556 233 q 511 308 529 261 q 530 266 517 289 q 556 233 543 243 m 396 1107 q 353 1139 374 1117 q 325 1182 332 1161 q 364 1147 338 1163 q 413 1129 390 1132 q 378 1160 396 1139 q 358 1201 361 1182 q 396 1174 371 1185 q 440 1163 421 1163 q 433 1207 442 1179 q 411 1246 424 1235 q 456 1247 428 1250 q 500 1235 485 1243 q 493 1276 501 1251 q 472 1313 485 1301 q 512 1298 490 1311 q 543 1271 533 1285 q 573 1314 560 1285 q 588 1364 586 1343 q 619 1321 604 1350 q 633 1271 633 1292 q 653 1297 643 1279 q 664 1326 663 1314 q 684 1301 674 1319 q 694 1271 694 1283 q 701 1317 692 1290 q 725 1358 711 1344 q 733 1312 724 1339 q 756 1271 742 1285 q 773 1319 767 1290 q 775 1369 779 1347 q 790 1341 785 1358 q 796 1306 794 1324 q 806 1344 799 1325 q 825 1375 814 1363 q 824 1319 819 1351 q 840 1267 829 1288 q 853 1235 847 1258 q 857 1200 860 1211 q 822 1202 846 1204 q 788 1193 799 1200 q 782 1153 782 1181 q 789 1115 782 1126 q 749 1117 775 1113 q 711 1131 722 1122 q 720 1085 711 1111 q 744 1047 729 1060 q 706 1061 726 1049 q 674 1089 686 1074 q 689 1055 683 1075 q 693 1019 694 1035 q 661 1046 682 1033 q 624 1060 640 1058 q 631 1015 631 1042 q 622 971 631 989 q 608 1013 622 990 q 579 1049 594 1036 q 565 1016 571 1036 q 560 981 558 996 q 544 1013 550 992 q 540 1049 539 1033 q 512 1021 528 1043 q 493 985 496 999 q 465 1013 481 992 q 447 1049 450 1035 q 443 1010 449 1032 q 428 975 438 988 q 424 1014 431 992 q 408 1049 418 1036 q 409 1006 414 1031 q 394 967 404 982 q 397 1016 399 985 q 396 1107 394 1047 z "},"":{"ha":1018,"x_min":-74,"x_max":1092,"o":"m 499 14 q 480 -41 497 -10 q 443 -86 463 -72 q 432 -29 443 -62 q 404 21 421 4 q 363 -42 379 0 q 346 -117 347 -83 q 332 -74 336 -99 q 331 -22 328 -49 q 293 -79 315 -58 q 313 -20 308 -56 q 311 43 318 15 q 288 -2 306 21 q 247 -44 269 -25 q 203 -69 224 -62 q 224 7 218 -40 q 221 86 229 54 q 164 72 197 88 q 114 39 131 57 q 124 97 111 63 q 151 150 136 131 q 73 122 115 144 q 11 67 31 99 q 63 133 28 100 q 135 172 99 165 q 49 177 100 185 q -32 150 -1 169 q 22 216 -17 182 q 96 258 60 250 q 47 263 76 256 q 4 282 18 269 q 47 303 22 286 q 81 336 71 319 q 3 351 49 349 q -74 339 -42 353 q 1 367 -44 358 q 79 364 46 375 q 14 401 57 386 q -61 413 -29 417 q -8 447 -42 431 q 57 467 26 463 q 9 478 33 468 q -31 501 -15 489 q 26 508 -7 497 q 78 535 60 519 q 32 553 58 536 q -4 585 6 569 q 42 601 14 588 q 81 631 71 614 q 35 665 67 650 q -22 682 3 679 q 15 696 -7 690 q 57 701 36 701 q -6 729 25 710 q -54 771 -37 749 q 25 744 -22 753 q 108 744 72 735 q 73 793 97 767 q 26 831 49 819 q 82 831 49 836 q 136 811 115 825 q 94 851 121 824 q 38 910 67 878 q -11 972 10 943 q -36 1015 -32 1001 q 2 976 -28 1001 q 69 924 32 951 q 140 878 107 897 q 188 857 172 858 q 184 915 193 881 q 163 968 175 949 q 215 945 186 967 q 257 904 243 924 q 242 937 250 913 q 226 992 233 961 q 215 1048 218 1022 q 213 1085 211 1074 q 228 1051 215 1074 q 257 1002 240 1028 q 290 956 274 976 q 314 928 306 935 q 313 986 318 953 q 293 1039 308 1019 q 338 958 328 1008 q 346 1016 338 985 q 367 1065 354 1047 q 393 1004 369 1038 q 439 954 417 971 q 465 1031 457 985 q 464 1111 472 1078 q 498 1040 488 1086 q 506 958 508 993 q 536 1014 522 979 q 546 1075 550 1049 q 572 1027 563 1058 q 579 969 581 996 q 603 1031 585 999 q 642 1081 621 1064 q 642 1010 633 1051 q 667 943 651 968 q 709 987 689 957 q 733 1042 729 1017 q 744 983 743 1018 q 738 924 746 947 q 799 972 767 939 q 839 1039 832 1006 q 838 960 846 1006 q 813 886 829 915 q 858 926 828 906 q 914 946 889 946 q 886 892 899 926 q 878 835 874 858 q 946 866 903 853 q 1021 874 989 879 q 965 822 993 857 q 931 756 938 786 q 997 749 957 746 q 1058 769 1036 753 q 1009 726 1042 747 q 949 703 976 704 q 999 681 965 688 q 1054 679 1032 675 q 1010 646 1040 661 q 957 631 981 631 q 935 588 943 617 q 932 540 928 560 q 908 581 918 554 q 899 628 897 608 q 872 563 882 603 q 868 493 861 522 q 840 558 850 517 q 838 628 829 599 q 812 571 821 607 q 810 510 803 535 q 787 567 794 532 q 782 628 779 601 q 749 579 764 613 q 732 522 733 546 q 699 572 715 539 q 682 628 682 604 q 625 567 664 596 q 550 528 586 538 q 609 588 582 546 q 639 667 636 631 q 599 633 625 649 q 547 607 574 617 l 547 607 l 547 607 q 517 600 531 603 q 515 588 515 593 q 513 600 514 593 q 508 599 510 600 q 507 599 506 599 q 511 589 508 594 q 501 599 507 593 l 501 599 l 501 599 q 499 603 500 601 q 439 598 471 596 q 385 610 407 600 q 433 581 404 594 q 491 560 461 567 q 544 558 521 553 q 497 531 526 543 q 437 513 468 518 q 383 513 406 507 q 440 493 404 497 q 503 499 476 489 q 444 481 479 483 q 383 485 408 479 q 459 453 411 464 q 542 453 507 443 q 467 422 513 433 q 524 406 500 418 q 452 409 494 415 q 385 385 410 403 q 437 391 407 392 q 494 385 467 390 l 496 390 q 501 383 499 386 q 519 378 511 381 q 535 386 526 382 q 522 376 529 382 q 543 368 533 372 q 515 368 531 369 q 531 354 522 361 l 535 358 q 532 353 533 356 q 583 319 556 333 q 635 297 611 304 q 590 342 619 319 q 533 365 560 364 q 595 364 560 371 q 653 340 631 357 q 685 406 674 364 q 696 481 697 449 q 726 439 713 465 q 746 386 739 413 q 765 456 749 426 q 763 399 758 432 q 782 344 768 365 q 785 399 779 368 q 807 447 792 431 q 812 394 804 424 q 832 344 819 364 q 859 388 847 360 q 868 438 871 417 q 891 404 881 426 q 904 363 901 382 q 910 400 904 381 q 926 431 917 419 q 931 385 924 411 q 949 344 938 360 q 1019 322 976 329 q 1092 324 1061 315 q 1024 295 1065 306 q 951 288 983 285 q 994 241 965 265 q 1047 213 1022 217 q 987 201 1024 203 q 926 208 950 199 q 956 160 933 185 q 1000 125 978 135 q 944 131 976 122 q 893 157 911 140 q 902 96 890 132 q 931 42 914 60 q 870 56 906 40 q 819 90 835 71 q 847 23 838 64 q 851 -49 856 -18 q 815 14 844 -18 q 756 57 785 46 q 746 4 747 36 q 753 -49 744 -28 q 714 -13 733 -37 q 689 31 694 11 q 701 -46 700 -1 q 688 -121 701 -90 q 669 -44 686 -86 q 628 22 651 -1 q 617 -60 631 -12 q 583 -136 603 -108 q 562 -56 586 -101 q 499 14 538 -10 m 501 743 q 493 667 492 710 q 514 650 504 658 q 522 682 517 665 q 501 743 517 718 m 588 726 q 549 685 567 713 q 531 632 543 656 q 533 628 532 631 q 568 676 553 650 q 588 726 583 703 m 426 707 l 426 707 q 424 708 425 707 q 426 707 424 708 m 389 643 q 436 619 407 628 q 493 610 465 611 q 476 638 483 622 q 430 647 453 644 q 389 643 407 649 m 497 631 q 503 610 500 619 q 510 610 507 610 q 511 610 513 610 q 511 625 511 618 q 497 631 504 629 m 521 622 q 519 614 519 618 q 521 621 521 618 l 521 622 m 524 621 q 519 614 521 615 q 525 619 522 617 l 524 621 m 504 606 l 506 603 q 513 607 508 604 l 513 608 q 504 606 508 607 m 392 315 q 447 321 417 313 q 496 364 469 346 q 496 365 496 365 q 439 346 467 360 q 392 315 411 332 m 499 351 q 483 331 490 342 q 501 339 493 335 q 499 351 500 344 m 450 243 q 472 287 453 261 q 507 319 492 313 q 506 321 507 321 q 463 290 488 304 q 450 243 451 264 m 556 233 q 511 308 529 261 q 530 266 517 289 q 556 233 543 243 m 351 1096 q 306 1072 336 1082 q 256 1065 276 1063 q 284 1108 271 1079 q 296 1157 297 1136 q 264 1137 286 1144 q 225 1129 242 1129 q 247 1161 236 1140 q 258 1197 258 1182 q 220 1206 246 1204 q 179 1203 194 1208 q 194 1240 181 1218 q 222 1269 208 1263 q 247 1308 236 1282 q 260 1353 258 1333 q 286 1315 274 1340 q 299 1271 299 1289 q 320 1320 304 1292 q 356 1361 336 1349 q 360 1308 351 1340 q 385 1258 369 1275 q 416 1296 393 1276 q 457 1321 439 1315 q 450 1273 449 1303 q 460 1225 451 1243 q 480 1254 464 1239 q 510 1275 496 1269 q 506 1240 504 1261 q 513 1210 507 1219 q 508 1246 507 1224 q 514 1282 508 1268 q 537 1250 519 1267 q 569 1229 554 1233 q 575 1278 575 1249 q 564 1325 575 1308 q 603 1297 582 1318 q 631 1257 624 1276 q 633 1297 636 1274 q 619 1336 629 1321 q 647 1306 633 1325 q 664 1269 661 1286 q 675 1321 663 1290 q 704 1367 688 1351 q 718 1316 704 1346 q 747 1271 732 1286 q 783 1290 764 1274 q 811 1322 803 1307 q 813 1281 817 1307 q 801 1242 810 1256 q 835 1213 819 1233 q 856 1174 850 1192 q 825 1205 847 1190 q 783 1221 803 1219 q 807 1170 788 1197 q 847 1129 826 1143 q 817 1136 833 1129 q 786 1153 800 1143 q 810 1107 806 1129 q 773 1142 797 1125 q 728 1161 749 1158 q 737 1128 733 1151 q 736 1093 740 1104 q 703 1099 726 1099 q 668 1096 679 1100 q 680 1058 676 1083 q 679 1018 683 1032 q 644 1040 668 1029 q 606 1049 621 1050 q 585 1019 594 1040 q 576 982 576 997 q 556 1013 565 993 q 546 1049 546 1033 q 526 1015 543 1035 q 496 989 508 994 q 476 1022 492 1001 q 447 1049 460 1043 q 447 1010 451 1032 q 433 974 443 988 q 425 1019 438 990 q 351 1096 413 1047 z "},"":{"ha":1018,"x_min":-58,"x_max":1264,"o":"m 463 -269 q 447 -322 463 -293 q 413 -368 431 -351 q 430 -314 425 -347 q 425 -257 435 -281 q 443 -214 438 -242 q 421 -207 432 -211 q 446 -201 433 -206 q 444 -156 450 -174 q 478 -190 461 -167 q 483 -187 481 -189 q 461 -139 475 -158 q 444 -131 453 -135 q 457 -133 450 -132 q 449 -124 453 -128 q 394 -125 424 -122 q 396 -136 394 -132 q 390 -126 393 -132 q 337 -140 363 -131 q 294 -167 311 -150 q 331 -126 307 -146 q 381 -94 354 -107 q 374 -37 374 -68 q 349 -4 357 -19 q 374 -14 360 -10 q 382 26 376 10 q 329 -25 356 11 q 297 -92 303 -61 q 277 -22 281 -67 q 285 53 274 24 q 242 19 263 44 q 214 -29 222 -7 q 216 26 211 -6 q 235 78 221 58 q 176 58 210 75 q 128 21 142 42 q 133 83 124 46 q 161 138 143 119 q 101 126 135 140 q 49 94 67 113 q 78 147 56 119 q 125 186 101 174 q 48 174 90 190 q -19 133 6 157 q 36 189 -3 164 q 110 217 75 214 q 45 235 85 229 q -21 233 6 242 q 24 282 -10 258 q 83 314 57 306 q 10 321 53 308 q -58 351 -32 333 q 16 364 -26 347 q 78 406 58 381 q 31 440 63 422 q -22 458 0 457 q 24 493 -8 476 q 78 513 56 510 q 38 541 65 528 q -8 557 11 554 q 32 583 4 571 q 79 597 60 596 q 17 615 51 597 q -35 656 -18 633 q 30 659 -8 650 q 89 685 68 668 q 53 729 76 707 q 3 767 31 751 q -49 788 -25 783 q 33 796 -15 797 q 114 778 81 794 q 66 817 90 792 q 33 868 42 843 q 90 833 54 849 q 153 821 125 817 q 125 894 150 854 q 71 951 100 935 q 135 926 100 946 q 192 881 171 906 q 158 953 172 910 q 150 1029 144 996 q 177 981 157 1006 q 223 937 197 956 q 272 911 249 918 q 264 963 264 932 q 272 1015 264 994 q 300 970 279 994 q 340 936 321 946 q 348 1006 349 965 q 333 1075 347 1047 q 375 1017 358 1056 q 389 947 392 978 q 407 1008 403 971 q 403 1071 411 1044 q 438 1017 424 1053 q 450 956 453 982 q 475 1006 467 972 q 479 1063 483 1039 q 505 1022 493 1049 q 517 972 517 996 q 529 1016 519 993 q 551 1053 539 1039 q 558 1003 550 1032 q 579 956 565 974 q 581 1001 576 969 q 592 1072 585 1033 q 609 1141 600 1110 q 626 1183 618 1172 q 617 1139 619 1171 q 614 1068 614 1107 q 616 997 614 1029 q 624 951 618 964 q 646 993 628 969 q 682 1024 664 1017 q 686 977 678 1006 q 706 933 694 949 q 747 961 724 940 q 781 1001 771 982 q 791 951 789 983 q 788 900 793 919 q 825 949 797 925 q 878 978 853 972 q 851 925 860 960 q 844 864 842 890 q 900 918 863 892 q 969 950 938 944 q 919 892 942 931 q 889 821 896 854 q 938 826 908 818 q 982 847 967 833 q 958 804 975 828 q 924 771 940 781 q 994 757 950 757 q 1065 772 1039 757 q 1017 718 1051 744 q 951 686 982 692 q 998 675 971 678 q 1043 681 1025 672 q 1015 664 1033 671 q 1109 667 1057 667 q 1205 665 1161 668 q 1264 656 1249 663 q 1205 661 1249 661 q 1109 658 1161 661 q 1015 647 1057 654 q 957 631 972 639 q 932 574 940 610 q 931 513 924 538 q 902 567 913 532 q 893 628 892 601 q 869 580 879 610 q 863 528 858 550 q 838 572 847 543 q 810 481 835 518 q 812 556 817 513 q 788 628 807 600 q 763 548 768 597 q 768 464 758 499 q 745 544 750 496 q 749 628 740 592 q 729 559 732 600 q 735 488 726 518 q 715 556 718 514 q 721 628 711 597 q 701 572 707 607 q 710 568 706 571 q 701 571 706 569 q 704 492 696 529 q 682 572 683 522 q 593 572 649 575 q 586 564 590 568 q 586 572 586 568 q 503 565 546 569 q 428 555 461 561 q 383 542 396 549 q 438 538 407 544 q 499 517 469 531 q 547 488 528 504 q 490 485 522 490 q 429 466 458 479 q 383 435 400 453 q 451 430 413 439 q 514 404 490 421 q 447 397 485 408 q 385 368 408 385 q 448 372 410 376 q 508 354 486 368 q 463 336 488 351 q 421 303 439 321 q 462 332 438 319 q 506 346 486 344 q 514 383 513 367 q 521 356 518 372 q 574 316 540 335 q 635 297 607 297 q 567 331 603 304 q 514 389 531 358 q 583 355 542 368 q 658 343 625 342 q 679 417 676 372 q 672 493 682 461 q 697 421 692 465 q 693 344 701 376 q 710 392 707 363 q 710 443 714 421 q 727 397 724 426 q 726 344 731 367 q 746 410 743 369 q 740 479 749 450 q 759 413 756 453 q 754 344 763 374 q 778 403 771 367 q 776 464 785 439 q 797 410 790 442 q 807 449 800 429 q 824 481 814 468 q 823 410 817 451 q 849 344 829 368 q 884 413 869 369 q 899 488 899 456 q 936 419 919 463 q 949 344 953 376 q 1006 343 972 336 q 1058 365 1039 350 q 1011 335 1042 347 q 956 321 981 322 q 1019 292 985 315 q 1071 246 1053 269 q 1001 249 1043 254 q 935 228 960 244 q 975 181 946 204 q 1029 153 1004 158 q 968 158 1003 149 q 913 183 933 167 q 936 142 918 164 q 972 113 954 121 q 901 135 938 110 q 934 82 921 114 q 950 25 947 50 q 898 74 932 50 q 833 100 864 97 q 840 56 831 81 q 863 19 849 32 q 810 61 832 32 q 833 -6 825 32 q 835 -72 842 -43 q 798 -1 825 -39 q 740 50 771 36 q 772 -28 763 19 q 774 -112 782 -76 q 752 -32 774 -76 q 703 38 731 13 q 720 -17 715 15 q 718 -75 725 -50 q 706 -18 719 -49 q 676 31 693 13 q 654 -24 664 10 q 647 -86 644 -58 q 693 -83 674 -79 q 647 -109 671 -90 q 614 -147 624 -128 q 660 -151 633 -143 q 704 -169 688 -158 q 658 -176 685 -168 q 617 -199 631 -185 q 618 -239 613 -212 q 632 -276 624 -265 q 592 -281 619 -282 q 553 -271 565 -279 q 560 -325 563 -293 q 546 -378 557 -357 q 531 -322 546 -354 q 463 -269 515 -290 m 501 743 q 510 691 508 724 q 504 638 511 658 q 525 626 514 632 q 521 689 526 657 q 501 743 515 721 m 413 700 q 442 676 419 692 q 492 644 464 660 q 455 679 478 663 q 413 700 432 696 m 567 606 q 593 601 579 603 q 622 657 603 633 q 546 615 590 629 q 567 606 557 610 m 688 628 q 653 617 672 626 q 619 596 635 608 q 681 581 657 589 q 688 628 681 607 m 524 318 q 532 306 528 313 q 533 322 532 315 q 522 347 526 335 q 524 318 524 333 m 439 249 q 477 291 458 264 q 506 346 496 318 q 464 303 483 333 q 439 249 444 274 m 521 296 q 506 242 517 265 q 521 296 518 268 m 596 251 q 565 276 581 261 q 596 251 581 260 m 504 240 l 503 236 q 504 240 503 238 m 499 229 q 500 233 500 232 l 499 229 m 557 -65 q 564 -75 560 -69 q 600 -35 585 -60 q 583 17 586 -7 q 578 -27 586 -1 q 557 -65 569 -53 m 533 -4 q 546 -43 542 -18 q 553 -43 550 -43 q 522 14 543 -8 q 531 -12 525 1 q 533 -4 532 -8 m 457 -14 q 428 -10 444 -10 q 424 -18 425 -14 q 457 -14 443 -18 m 549 -50 q 557 -64 553 -57 q 554 -47 556 -54 q 549 -50 551 -49 m 594 -108 q 639 -87 613 -96 q 617 -61 626 -78 q 594 -108 608 -90 m 429 -78 q 403 -64 417 -74 q 397 -87 400 -76 q 429 -78 414 -81 m 556 -135 q 528 -160 540 -143 l 528 -160 q 556 -135 544 -147 m 551 -229 q 540 -208 547 -218 q 531 -211 535 -210 q 551 -229 540 -224 m 497 -225 l 499 -228 q 497 -224 499 -226 l 497 -225 z "},"":{"ha":1018,"x_min":-74,"x_max":1092,"o":"m 499 14 q 480 -41 497 -10 q 443 -86 463 -72 q 432 -29 443 -62 q 404 21 421 4 q 363 -42 379 0 q 346 -117 347 -83 q 332 -74 336 -99 q 331 -22 328 -49 q 293 -79 315 -58 q 313 -20 308 -56 q 311 43 318 15 q 288 -2 306 21 q 247 -44 269 -25 q 203 -69 224 -62 q 224 7 218 -40 q 221 86 229 54 q 164 72 197 88 q 114 39 131 57 q 124 97 111 63 q 151 150 136 131 q 73 122 115 144 q 11 67 31 99 q 63 133 28 100 q 135 172 99 165 q 49 177 100 185 q -32 150 -1 169 q 22 216 -17 182 q 96 258 60 250 q 47 263 76 256 q 4 282 18 269 q 47 303 22 286 q 81 336 71 319 q 3 351 49 349 q -74 339 -42 353 q 1 367 -44 358 q 79 364 46 375 q 14 401 57 386 q -61 413 -29 417 q -8 447 -42 431 q 57 467 26 463 q 9 478 33 468 q -31 501 -15 489 q 26 508 -7 497 q 78 535 60 519 q 32 553 58 536 q -4 585 6 569 q 42 601 14 588 q 81 631 71 614 q 35 665 67 650 q -22 682 3 679 q 15 696 -7 690 q 57 701 36 701 q -6 729 25 710 q -54 771 -37 749 q 25 744 -22 753 q 108 744 72 735 q 73 793 97 767 q 26 831 49 819 q 82 831 49 836 q 136 811 115 825 q 94 851 121 824 q 38 910 67 878 q -11 972 10 943 q -36 1015 -32 1001 q 2 976 -28 1001 q 69 924 32 951 q 140 878 107 897 q 188 857 172 858 q 184 915 193 881 q 163 968 175 949 q 215 945 186 967 q 257 904 243 924 q 242 937 250 913 q 226 992 233 961 q 215 1048 218 1022 q 213 1085 211 1074 q 228 1051 215 1074 q 257 1002 240 1028 q 290 956 274 976 q 314 928 306 935 q 313 986 318 953 q 293 1039 308 1019 q 338 958 328 1008 q 346 1016 338 985 q 367 1065 354 1047 q 393 1004 369 1038 q 439 954 417 971 q 465 1031 457 985 q 464 1111 472 1078 q 498 1040 488 1086 q 506 958 508 993 q 536 1014 522 979 q 546 1075 550 1049 q 572 1027 563 1058 q 579 969 581 996 q 603 1031 585 999 q 642 1081 621 1064 q 642 1010 633 1051 q 667 943 651 968 q 709 987 689 957 q 733 1042 729 1017 q 744 983 743 1018 q 738 924 746 947 q 799 972 767 939 q 839 1039 832 1006 q 838 960 846 1006 q 813 886 829 915 q 858 926 828 906 q 914 946 889 946 q 886 892 899 926 q 878 835 874 858 q 946 866 903 853 q 1021 874 989 879 q 965 822 993 857 q 931 756 938 786 q 997 749 957 746 q 1058 769 1036 753 q 1009 726 1042 747 q 949 703 976 704 q 999 681 965 688 q 1054 679 1032 675 q 1010 646 1040 661 q 957 631 981 631 q 935 588 943 617 q 932 540 928 560 q 908 581 918 554 q 899 628 897 608 q 872 563 882 603 q 868 493 861 522 q 840 558 850 517 q 838 628 829 599 q 812 571 821 607 q 810 510 803 535 q 787 567 794 532 q 782 628 779 601 q 749 579 764 613 q 732 522 733 546 q 699 572 715 539 q 682 628 682 604 q 625 567 664 596 q 550 528 586 538 q 609 588 582 546 q 639 667 636 631 q 599 633 625 649 q 547 607 574 617 l 547 607 l 547 607 q 517 600 531 603 q 515 588 515 593 q 513 600 514 593 q 508 599 510 600 q 507 599 506 599 q 511 589 508 594 q 501 599 507 593 l 501 599 l 501 599 q 499 603 500 601 q 439 598 471 596 q 385 610 407 600 q 433 581 404 594 q 491 560 461 567 q 544 558 521 553 q 497 531 526 543 q 437 513 468 518 q 383 513 406 507 q 440 493 404 497 q 503 499 476 489 q 444 481 479 483 q 383 485 408 479 q 459 453 411 464 q 542 453 507 443 q 467 422 513 433 q 524 406 500 418 q 452 409 494 415 q 385 385 410 403 q 437 391 407 392 q 494 385 467 390 l 496 390 q 501 383 499 386 q 519 378 511 381 q 535 386 526 382 q 522 376 529 382 q 543 368 533 372 q 515 368 531 369 q 531 354 522 361 l 535 358 q 532 353 533 356 q 583 319 556 333 q 635 297 611 304 q 590 342 619 319 q 533 365 560 364 q 595 364 560 371 q 653 340 631 357 q 685 406 674 364 q 696 481 697 449 q 726 439 713 465 q 746 386 739 413 q 765 456 749 426 q 763 399 758 432 q 782 344 768 365 q 785 399 779 368 q 807 447 792 431 q 812 394 804 424 q 832 344 819 364 q 859 388 847 360 q 868 438 871 417 q 891 404 881 426 q 904 363 901 382 q 910 400 904 381 q 926 431 917 419 q 931 385 924 411 q 949 344 938 360 q 1019 322 976 329 q 1092 324 1061 315 q 1024 295 1065 306 q 951 288 983 285 q 994 241 965 265 q 1047 213 1022 217 q 987 201 1024 203 q 926 208 950 199 q 956 160 933 185 q 1000 125 978 135 q 944 131 976 122 q 893 157 911 140 q 902 96 890 132 q 931 42 914 60 q 870 56 906 40 q 819 90 835 71 q 847 23 838 64 q 851 -49 856 -18 q 815 14 844 -18 q 756 57 785 46 q 746 4 747 36 q 753 -49 744 -28 q 714 -13 733 -37 q 689 31 694 11 q 701 -46 700 -1 q 688 -121 701 -90 q 669 -44 686 -86 q 628 22 651 -1 q 617 -60 631 -12 q 583 -136 603 -108 q 562 -56 586 -101 q 499 14 538 -10 m 501 743 q 493 667 492 710 q 514 650 504 658 q 522 682 517 665 q 501 743 517 718 m 588 726 q 549 685 567 713 q 531 632 543 656 q 533 628 532 631 q 568 676 553 650 q 588 726 583 703 m 426 707 l 426 707 q 424 708 425 707 q 426 707 424 708 m 389 643 q 436 619 407 628 q 493 610 465 611 q 476 638 483 622 q 430 647 453 644 q 389 643 407 649 m 497 631 q 503 610 500 619 q 510 610 507 610 q 511 610 513 610 q 511 625 511 618 q 497 631 504 629 m 521 622 q 519 614 519 618 q 521 621 521 618 l 521 622 m 524 621 q 519 614 521 615 q 525 619 522 617 l 524 621 m 504 606 l 506 603 q 513 607 508 604 l 513 608 q 504 606 508 607 m 392 315 q 447 321 417 313 q 496 364 469 346 q 496 365 496 365 q 439 346 467 360 q 392 315 411 332 m 499 351 q 483 331 490 342 q 501 339 493 335 q 499 351 500 344 m 450 243 q 472 287 453 261 q 507 319 492 313 q 506 321 507 321 q 463 290 488 304 q 450 243 451 264 m 556 233 q 511 308 529 261 q 530 266 517 289 q 556 233 543 243 m 258 1122 q 228 1167 242 1136 q 218 1219 215 1197 q 265 1196 235 1206 q 318 1186 296 1186 q 301 1222 308 1199 q 294 1261 293 1246 q 331 1247 307 1253 q 369 1243 354 1242 q 365 1281 364 1257 q 374 1317 365 1304 q 397 1288 379 1303 q 431 1271 415 1274 q 442 1308 432 1286 q 465 1338 453 1329 q 477 1301 465 1322 q 501 1271 489 1279 q 528 1303 515 1281 q 540 1343 540 1326 q 565 1310 553 1333 q 578 1271 576 1288 q 615 1292 594 1274 q 644 1324 636 1310 q 655 1283 653 1310 q 653 1239 657 1256 q 699 1257 674 1243 q 735 1288 724 1271 q 715 1244 732 1267 q 679 1211 697 1222 q 715 1217 694 1208 q 747 1236 736 1226 q 738 1201 749 1221 q 717 1171 728 1182 q 760 1185 736 1171 q 797 1215 785 1200 q 779 1172 796 1196 q 746 1139 763 1149 q 792 1153 767 1140 q 828 1183 817 1167 q 807 1141 822 1164 q 775 1106 792 1118 q 805 1098 788 1106 q 829 1082 822 1090 q 802 1069 818 1079 q 781 1049 786 1058 q 763 1018 778 1036 q 738 994 747 1000 q 719 1025 735 1007 q 693 1049 704 1043 q 676 1015 689 1035 q 650 989 664 996 q 649 1026 654 1004 q 635 1061 644 1049 q 618 1039 631 1050 q 594 1024 606 1028 q 599 1051 600 1033 q 594 1079 599 1068 q 563 1064 582 1076 q 536 1042 544 1051 q 525 1074 529 1051 q 525 1110 521 1097 q 510 1076 515 1097 q 503 1007 513 1038 l 503 1006 l 503 1007 q 497 996 500 1000 q 460 1042 489 1018 q 410 1072 432 1067 q 397 1037 410 1060 q 375 1007 385 1014 q 349 1033 371 1018 q 315 1049 328 1047 q 299 1011 313 1033 q 272 979 285 989 q 258 1026 268 994 q 258 1122 247 1057 z "},"":{"ha":1018,"x_min":-74,"x_max":1092,"o":"m 499 14 q 480 -41 497 -10 q 443 -86 463 -72 q 432 -29 443 -62 q 404 21 421 4 q 363 -42 379 0 q 346 -117 347 -83 q 332 -74 336 -99 q 331 -22 328 -49 q 293 -79 315 -58 q 313 -20 308 -56 q 311 43 318 15 q 288 -2 306 21 q 247 -44 269 -25 q 203 -69 224 -62 q 224 7 218 -40 q 221 86 229 54 q 164 72 197 88 q 114 39 131 57 q 124 97 111 63 q 151 150 136 131 q 73 122 115 144 q 11 67 31 99 q 63 133 28 100 q 135 172 99 165 q 49 177 100 185 q -32 150 -1 169 q 22 216 -17 182 q 96 258 60 250 q 47 263 76 256 q 4 282 18 269 q 47 303 22 286 q 81 336 71 319 q 3 351 49 349 q -74 339 -42 353 q 1 367 -44 358 q 79 364 46 375 q 14 401 57 386 q -61 413 -29 417 q -8 447 -42 431 q 57 467 26 463 q 9 478 33 468 q -31 501 -15 489 q 26 508 -7 497 q 78 535 60 519 q 32 553 58 536 q -4 585 6 569 q 42 601 14 588 q 81 631 71 614 q 35 665 67 650 q -22 682 3 679 q 15 696 -7 690 q 57 701 36 701 q -6 729 25 710 q -54 771 -37 749 q 25 744 -22 753 q 108 744 72 735 q 73 793 97 767 q 26 831 49 819 q 82 831 49 836 q 136 811 115 825 q 94 851 121 824 q 38 910 67 878 q -11 972 10 943 q -36 1015 -32 1001 q 2 976 -28 1001 q 69 924 32 951 q 140 878 107 897 q 188 857 172 858 q 184 915 193 881 q 163 968 175 949 q 215 945 186 967 q 257 904 243 924 q 242 937 250 913 q 226 992 233 961 q 215 1048 218 1022 q 213 1085 211 1074 q 228 1051 215 1074 q 257 1002 240 1028 q 290 956 274 976 q 314 928 306 935 q 313 986 318 953 q 293 1039 308 1019 q 338 958 328 1008 q 346 1016 338 985 q 367 1065 354 1047 q 393 1004 369 1038 q 439 954 417 971 q 465 1031 457 985 q 464 1111 472 1078 q 498 1040 488 1086 q 506 958 508 993 q 536 1014 522 979 q 546 1075 550 1049 q 572 1027 563 1058 q 579 969 581 996 q 603 1031 585 999 q 642 1081 621 1064 q 642 1010 633 1051 q 667 943 651 968 q 709 987 689 957 q 733 1042 729 1017 q 744 983 743 1018 q 738 924 746 947 q 799 972 767 939 q 839 1039 832 1006 q 838 960 846 1006 q 813 886 829 915 q 858 926 828 906 q 914 946 889 946 q 886 892 899 926 q 878 835 874 858 q 946 866 903 853 q 1021 874 989 879 q 965 822 993 857 q 931 756 938 786 q 997 749 957 746 q 1058 769 1036 753 q 1009 726 1042 747 q 949 703 976 704 q 999 681 965 688 q 1054 679 1032 675 q 1010 646 1040 661 q 957 631 981 631 q 935 588 943 617 q 932 540 928 560 q 908 581 918 554 q 899 628 897 608 q 872 563 882 603 q 868 493 861 522 q 840 558 850 517 q 838 628 829 599 q 812 571 821 607 q 810 510 803 535 q 787 567 794 532 q 782 628 779 601 q 749 579 764 613 q 732 522 733 546 q 699 572 715 539 q 682 628 682 604 q 625 567 664 596 q 550 528 586 538 q 609 588 582 546 q 639 667 636 631 q 599 633 625 649 q 547 607 574 617 l 547 607 l 547 607 q 517 600 531 603 q 515 588 515 593 q 513 600 514 593 q 508 599 510 600 q 507 599 506 599 q 511 589 508 594 q 501 599 507 593 l 501 599 l 501 599 q 499 603 500 601 q 439 598 471 596 q 385 610 407 600 q 433 581 404 594 q 491 560 461 567 q 544 558 521 553 q 497 531 526 543 q 437 513 468 518 q 383 513 406 507 q 440 493 404 497 q 503 499 476 489 q 444 481 479 483 q 383 485 408 479 q 459 453 411 464 q 542 453 507 443 q 467 422 513 433 q 524 406 500 418 q 452 409 494 415 q 385 385 410 403 q 437 391 407 392 q 494 385 467 390 l 496 390 q 501 383 499 386 q 519 378 511 381 q 535 386 526 382 q 522 376 529 382 q 543 368 533 372 q 515 368 531 369 q 531 354 522 361 l 535 358 q 532 353 533 356 q 583 319 556 333 q 635 297 611 304 q 590 342 619 319 q 533 365 560 364 q 595 364 560 371 q 653 340 631 357 q 685 406 674 364 q 696 481 697 449 q 726 439 713 465 q 746 386 739 413 q 765 456 749 426 q 763 399 758 432 q 782 344 768 365 q 785 399 779 368 q 807 447 792 431 q 812 394 804 424 q 832 344 819 364 q 859 388 847 360 q 868 438 871 417 q 891 404 881 426 q 904 363 901 382 q 910 400 904 381 q 926 431 917 419 q 931 385 924 411 q 949 344 938 360 q 1019 322 976 329 q 1092 324 1061 315 q 1024 295 1065 306 q 951 288 983 285 q 994 241 965 265 q 1047 213 1022 217 q 987 201 1024 203 q 926 208 950 199 q 956 160 933 185 q 1000 125 978 135 q 944 131 976 122 q 893 157 911 140 q 902 96 890 132 q 931 42 914 60 q 870 56 906 40 q 819 90 835 71 q 847 23 838 64 q 851 -49 856 -18 q 815 14 844 -18 q 756 57 785 46 q 746 4 747 36 q 753 -49 744 -28 q 714 -13 733 -37 q 689 31 694 11 q 701 -46 700 -1 q 688 -121 701 -90 q 669 -44 686 -86 q 628 22 651 -1 q 617 -60 631 -12 q 583 -136 603 -108 q 562 -56 586 -101 q 499 14 538 -10 m 501 743 q 493 667 492 710 q 514 650 504 658 q 522 682 517 665 q 501 743 517 718 m 588 726 q 549 685 567 713 q 531 632 543 656 q 533 628 532 631 q 568 676 553 650 q 588 726 583 703 m 426 707 l 426 707 q 424 708 425 707 q 426 707 424 708 m 389 643 q 436 619 407 628 q 493 610 465 611 q 476 638 483 622 q 430 647 453 644 q 389 643 407 649 m 497 631 q 503 610 500 619 q 510 610 507 610 q 511 610 513 610 q 511 625 511 618 q 497 631 504 629 m 521 622 q 519 614 519 618 q 521 621 521 618 l 521 622 m 524 621 q 519 614 521 615 q 525 619 522 617 l 524 621 m 504 606 l 506 603 q 513 607 508 604 l 513 608 q 504 606 508 607 m 392 315 q 447 321 417 313 q 496 364 469 346 q 496 365 496 365 q 439 346 467 360 q 392 315 411 332 m 499 351 q 483 331 490 342 q 501 339 493 335 q 499 351 500 344 m 450 243 q 472 287 453 261 q 507 319 492 313 q 506 321 507 321 q 463 290 488 304 q 450 243 451 264 m 556 233 q 511 308 529 261 q 530 266 517 289 q 556 233 543 243 m 404 1051 q 374 1057 393 1056 q 344 1053 356 1058 q 364 1076 350 1064 q 390 1090 378 1088 q 340 1122 374 1108 q 281 1138 306 1136 q 331 1169 297 1156 q 390 1185 365 1183 q 363 1197 379 1186 q 340 1218 346 1208 q 368 1231 351 1219 q 390 1251 385 1242 q 352 1281 371 1260 q 326 1322 333 1303 q 367 1297 340 1307 q 415 1288 394 1288 q 443 1310 426 1293 q 463 1339 460 1328 q 490 1317 474 1335 q 510 1288 507 1299 q 540 1338 528 1304 q 549 1396 553 1372 q 578 1346 567 1379 q 588 1288 589 1313 q 619 1277 597 1282 q 651 1274 640 1272 q 644 1242 651 1263 q 629 1213 638 1221 q 672 1198 646 1203 q 718 1199 699 1193 q 675 1184 701 1189 q 629 1185 649 1179 q 663 1160 639 1171 q 703 1146 686 1149 q 669 1119 693 1132 q 629 1107 646 1107 q 647 1069 640 1096 q 653 1025 653 1042 q 614 1044 640 1038 q 571 1049 588 1050 q 554 1018 568 1036 q 529 993 540 1000 q 513 1024 526 1006 q 488 1049 499 1042 q 463 1013 474 1038 q 451 972 453 989 q 426 1008 439 983 q 404 1051 413 1032 z "},"D":{"ha":1028,"x_min":-60,"x_max":1111,"o":"m 104 99 q 27 93 71 90 q -46 113 -17 96 q 31 106 -14 101 q 104 126 75 110 q 51 159 88 146 q -11 174 15 172 q 43 206 8 190 q 103 221 78 222 q 52 232 81 221 q 11 260 24 243 q 61 270 32 258 q 104 297 90 282 q 26 331 75 321 q -60 336 -24 342 q 19 372 -31 360 q 104 375 68 383 q 44 406 82 393 q -21 419 7 419 q 14 444 -8 433 q 60 460 36 454 q 7 467 33 460 q -37 486 -19 474 q 36 482 -7 475 q 104 508 79 489 q 55 516 83 506 q 13 542 26 526 q 62 550 33 540 q 104 575 90 560 q 62 607 92 592 q 11 625 32 622 q 53 658 24 642 q 104 675 83 674 q 40 710 82 696 q -33 718 -3 725 q -1 741 -21 732 q 40 756 19 750 q -12 763 14 757 q -57 782 -39 769 q 26 776 -22 772 q 104 801 75 781 q 25 826 72 819 q -58 824 -22 832 q 22 850 -26 843 q 104 846 69 857 q 58 876 86 863 q -2 897 29 890 q -57 899 -33 903 q -8 926 -37 914 q 53 942 22 938 q 107 942 83 947 q 103 1005 100 968 q 122 1065 107 1042 q 126 1001 119 1038 q 153 944 133 964 q 174 1015 169 972 q 167 1089 179 1058 q 189 1019 185 1063 q 181 944 193 975 q 201 1012 194 972 q 197 1081 207 1051 q 217 1014 213 1054 q 214 944 221 974 q 231 997 222 958 q 247 1083 240 1036 q 258 1170 254 1131 q 258 1225 261 1210 q 276 1172 267 1211 q 294 1086 286 1133 q 304 999 301 1039 q 303 944 307 960 q 331 997 321 963 q 339 1056 340 1031 q 357 1025 349 1043 q 369 988 365 1007 q 392 1063 371 1035 q 390 1001 386 1036 q 408 944 394 967 q 413 1014 404 974 q 442 1075 421 1054 q 447 1006 439 1046 q 475 944 456 967 q 509 994 493 960 q 525 1051 525 1028 q 556 1000 542 1033 q 569 942 569 967 q 595 999 586 964 q 600 1063 604 1035 q 615 1001 614 1038 q 603 939 615 964 q 628 981 618 954 q 638 1029 638 1007 q 648 981 647 1010 q 642 932 649 953 q 678 986 651 957 q 728 1028 704 1015 q 723 963 718 1003 q 743 900 728 922 q 781 946 751 924 q 835 975 811 968 q 817 919 822 954 q 815 858 811 883 q 874 885 842 864 q 922 928 907 906 q 904 865 921 900 q 864 814 888 829 q 914 827 882 824 q 964 824 946 831 q 933 783 949 811 q 917 735 918 754 q 1000 751 949 751 q 1086 738 1051 750 q 1033 721 1061 735 q 980 686 1004 707 q 944 644 956 665 q 997 629 965 644 q 1040 597 1029 614 q 991 574 1021 593 q 951 536 961 554 q 1003 512 969 519 q 1060 510 1036 504 q 986 481 1029 488 q 1033 468 1010 478 q 1072 447 1057 458 q 1010 443 1046 453 q 951 418 974 433 q 1036 413 988 425 q 1111 376 1085 401 q 1027 379 1076 388 q 947 351 978 371 q 994 326 964 335 q 1047 324 1025 318 q 1005 315 1029 317 q 960 318 981 314 q 1017 281 988 307 q 1060 233 1046 256 q 985 242 1031 244 q 913 222 939 239 q 992 191 950 217 q 1053 133 1035 165 q 982 181 1026 160 q 900 199 938 201 q 910 144 899 176 q 938 97 922 111 q 883 99 917 90 q 831 118 849 107 q 846 60 843 97 q 839 0 849 22 q 794 40 825 19 q 740 65 763 60 q 735 -11 729 33 q 756 -85 740 -56 q 701 -17 724 -61 q 702 -70 704 -43 q 693 -118 700 -97 q 680 -35 694 -82 q 638 36 665 13 q 620 -32 622 10 q 629 -103 618 -74 q 597 -40 610 -79 q 588 31 583 0 q 560 -14 571 17 q 549 -67 549 -44 q 521 -28 533 -56 q 506 21 508 0 q 499 -30 507 -1 q 476 -75 492 -58 q 472 -22 482 -53 q 450 28 463 8 q 422 -47 428 0 q 422 -128 415 -93 q 402 -93 410 -114 q 392 -50 394 -72 q 367 -111 383 -87 q 366 -40 375 -81 q 339 28 357 1 q 340 -42 346 -3 q 318 -108 333 -82 q 319 -39 328 -79 q 296 28 311 1 q 274 -44 276 0 q 279 -121 271 -89 q 256 -49 260 -93 q 263 28 253 -4 q 233 -24 246 10 q 221 -82 221 -57 q 194 -39 207 -67 q 181 14 182 -11 q 168 -26 178 -6 q 147 -60 158 -47 q 137 -4 147 -40 q 104 99 126 32 m 440 729 q 431 704 433 719 q 438 702 435 703 q 442 701 442 701 q 440 729 438 718 m 476 321 q 481 279 475 303 q 497 243 486 256 q 500 276 494 257 q 515 306 506 296 q 522 273 515 292 q 538 244 528 254 q 531 283 532 260 q 539 321 531 306 q 554 286 542 306 q 581 257 567 267 q 557 294 567 269 q 549 338 547 318 q 575 302 556 319 q 613 281 594 285 q 605 306 613 290 q 589 326 597 321 q 617 328 599 329 q 589 342 603 333 q 568 363 575 351 q 608 353 583 353 q 650 360 633 353 q 624 365 639 358 q 600 379 608 371 q 628 379 611 376 q 653 389 644 382 q 624 393 640 388 q 597 406 607 399 q 627 407 610 404 q 654 418 644 410 q 635 429 649 425 q 614 433 622 433 q 656 446 632 447 q 629 458 646 453 q 600 464 613 464 q 642 479 614 476 q 603 493 619 482 q 631 496 615 492 q 656 507 646 500 q 601 521 632 525 q 632 535 614 529 q 592 547 610 536 q 624 550 606 546 q 654 564 643 554 q 617 565 639 560 q 582 579 594 569 q 619 585 597 578 q 651 604 640 593 q 615 601 638 600 q 579 611 592 603 q 612 626 594 613 q 639 653 629 640 q 605 633 628 640 q 564 626 582 625 q 598 647 581 631 q 621 681 615 664 q 591 653 611 667 q 554 638 571 640 q 575 672 565 650 q 582 713 585 694 q 573 683 582 703 q 552 640 564 663 q 529 598 540 617 q 511 574 518 579 q 522 602 517 581 q 530 649 526 624 q 535 697 533 675 q 535 728 536 718 q 517 695 524 715 q 510 660 510 675 q 494 692 500 671 q 490 729 488 714 q 470 690 476 715 q 465 644 464 664 q 442 697 449 665 q 428 689 436 693 q 426 661 425 675 q 449 657 439 657 q 426 643 440 650 q 431 621 428 631 q 438 615 432 621 q 415 610 428 617 q 396 597 401 604 q 437 598 413 603 q 476 583 461 593 q 435 583 458 588 q 396 569 411 579 q 426 556 407 561 q 458 556 444 551 q 428 542 447 546 q 396 542 410 538 q 432 522 408 529 q 472 517 456 515 q 436 499 460 506 q 396 492 413 492 q 419 476 403 482 q 449 469 436 469 q 424 453 440 460 q 396 447 407 446 q 429 431 408 438 q 465 428 450 425 q 433 412 454 417 q 396 408 411 407 q 434 392 410 397 q 476 389 458 388 q 438 372 463 378 q 396 369 414 367 q 417 356 403 363 q 443 351 432 350 q 411 333 432 339 q 443 328 425 333 l 442 333 q 446 326 442 333 q 472 314 464 321 q 476 321 472 315 m 396 679 q 397 678 396 679 q 403 674 397 678 q 401 681 403 676 l 396 679 m 396 635 q 429 622 413 635 q 418 639 424 629 q 396 635 406 635 m 451 313 q 458 281 457 297 q 471 313 463 299 q 451 313 463 314 m 396 293 q 419 285 406 293 q 439 268 433 276 q 444 311 446 290 q 417 305 431 310 q 396 293 404 300 m 428 243 q 439 268 435 253 q 419 258 429 267 q 428 243 410 250 z "},"":{"ha":1064,"x_min":-79,"x_max":1129,"o":"m 138 82 q 101 110 125 97 q 52 129 78 122 q 7 135 26 136 q 62 169 26 153 q 126 188 97 186 q 75 203 103 190 q 32 231 47 217 q 88 244 56 229 q 138 275 119 260 q 99 279 121 274 q 60 294 76 285 q 53 274 56 283 q 50 300 51 285 l 46 303 q 50 303 49 303 q 54 353 50 326 l 50 356 q 56 356 53 356 q 74 408 61 388 q 19 419 53 417 q -35 413 -14 422 q 0 456 -25 433 q 47 483 25 478 q 1 483 28 478 q -42 501 -26 489 q 5 502 -22 496 q 47 521 32 508 q -17 519 19 514 q -79 539 -54 525 q -14 537 -51 532 q 47 558 24 542 q 54 601 53 576 q 14 611 33 604 q -19 629 -6 618 q 54 629 11 622 q 44 683 51 658 q 35 682 39 683 q 43 688 39 685 q 42 692 42 690 l 38 696 q 40 694 39 694 q 35 707 38 701 q 47 692 42 700 l 49 690 q 119 707 81 707 q 63 722 93 710 q 14 749 32 733 q 79 758 42 744 q 138 790 117 772 q 65 790 107 782 q -1 818 22 797 q 71 818 29 810 q 138 846 113 826 q 70 891 114 871 q -8 910 26 911 q 67 940 19 929 q 147 944 114 950 q 161 1008 144 971 q 197 1063 178 1044 q 211 999 194 1036 q 247 944 228 963 q 264 994 249 965 q 294 1035 279 1022 q 311 985 297 1014 q 342 944 325 957 q 364 1014 361 971 q 358 1088 367 1057 q 381 1018 376 1061 q 375 944 386 975 q 397 1016 392 972 q 392 1092 401 1060 q 412 1019 407 1063 q 408 944 417 976 q 435 1025 428 976 q 431 1108 443 1074 q 457 1011 453 1068 q 492 1097 468 1063 q 497 1018 483 1064 q 531 944 511 972 q 549 1003 532 969 q 586 1050 567 1036 q 599 992 585 1026 q 632 939 614 957 q 667 1013 654 967 q 672 1093 679 1058 q 683 1014 685 1060 q 667 938 681 968 q 696 979 675 957 q 735 1011 717 1001 q 738 958 731 990 q 757 910 746 926 q 788 948 768 918 q 826 1015 807 978 q 860 1085 846 1053 q 872 1132 874 1118 q 867 1083 875 1118 q 845 1008 858 1049 q 818 938 832 968 q 854 965 836 958 q 833 923 840 950 q 826 875 825 896 q 863 910 838 893 q 910 931 889 926 q 888 885 896 914 q 881 835 879 856 q 945 860 910 840 q 997 904 981 879 q 968 841 990 875 q 918 794 946 807 q 991 794 947 785 q 1058 821 1035 803 q 1019 762 1049 793 q 963 717 989 731 q 1015 710 983 708 q 1064 724 1046 713 q 994 678 1039 693 q 1031 679 1013 681 q 1063 672 1050 678 q 1019 665 1044 674 q 982 640 994 656 q 1049 630 1010 643 q 1110 596 1089 617 q 1042 579 1081 594 q 985 543 1003 564 q 1047 504 1006 522 q 1117 489 1088 486 q 1070 457 1100 471 q 1011 438 1040 443 q 1065 431 1038 438 q 1110 408 1093 424 q 1044 410 1083 418 q 985 383 1006 401 q 1024 350 999 365 q 1078 325 1050 335 q 1129 315 1107 315 q 1083 292 1111 301 q 1026 281 1056 283 q 974 283 996 279 q 1026 263 999 279 q 1075 222 1053 246 q 1107 176 1097 199 q 1055 197 1086 189 q 992 206 1024 206 q 936 196 960 206 q 988 133 950 163 q 1060 90 1025 103 q 981 117 1024 94 q 917 169 938 139 q 936 122 929 154 q 939 71 943 90 q 893 94 924 85 q 843 101 863 104 q 882 33 867 76 q 892 -44 897 -11 q 853 24 882 -12 q 794 74 825 61 q 781 12 785 50 q 789 -49 778 -26 q 742 -9 765 -39 q 710 44 718 21 q 715 -28 721 15 q 694 -99 710 -71 q 674 -27 692 -67 q 632 32 657 13 q 615 -34 619 6 q 624 -101 611 -74 q 596 -39 606 -78 q 593 29 586 0 q 567 -25 576 10 q 563 -85 557 -60 q 541 -47 550 -69 q 528 0 532 -24 q 514 -72 526 -35 q 482 -131 501 -108 q 474 -48 488 -96 q 439 28 461 0 q 441 -19 443 15 q 433 -93 439 -53 q 418 -167 426 -133 q 403 -211 410 -200 q 405 -165 407 -199 q 397 -90 403 -131 q 382 -17 390 -50 q 367 28 374 17 q 335 -51 344 -1 q 332 -136 325 -100 q 300 -69 311 -111 q 292 8 289 -26 q 274 -35 286 -12 q 249 -69 263 -58 q 233 -17 249 -47 q 203 28 218 14 q 204 -52 213 -6 q 175 -126 196 -99 q 172 -40 181 -92 q 138 82 164 13 m 504 296 q 519 272 513 288 q 526 243 525 256 q 542 269 535 251 q 549 300 549 288 q 571 268 561 290 q 576 314 569 294 q 594 284 581 300 q 619 261 607 268 q 600 291 608 272 q 590 324 592 310 q 613 299 596 311 q 646 283 631 286 q 631 309 643 296 q 608 326 619 322 q 637 321 621 328 q 663 307 653 314 q 631 334 651 321 q 594 351 611 347 q 632 357 610 358 q 618 368 624 361 q 649 366 631 363 q 679 378 668 369 q 651 384 667 378 q 626 399 635 390 q 655 405 639 399 q 679 419 671 411 q 653 427 668 419 q 631 442 638 435 q 657 449 642 442 q 679 465 672 456 q 655 468 669 464 q 633 479 640 472 q 679 493 660 478 q 646 495 665 492 q 615 507 626 499 q 649 510 629 506 q 679 522 668 514 q 658 534 671 529 q 633 539 644 539 q 655 552 640 547 q 679 556 669 557 q 654 563 669 556 q 633 576 639 569 q 658 583 643 576 q 679 599 672 590 q 647 598 667 594 q 617 610 628 601 q 648 618 631 610 q 674 638 665 626 q 636 626 660 628 q 596 629 613 624 q 629 651 613 635 q 653 683 646 668 q 626 664 643 674 q 596 653 610 654 q 613 681 606 663 q 618 713 621 700 q 602 683 614 699 q 578 658 590 667 q 587 692 586 671 q 581 726 588 713 q 564 698 571 717 q 558 665 557 679 q 547 694 551 678 q 531 656 543 669 q 531 694 535 671 q 515 729 526 717 q 513 706 517 719 q 504 688 508 692 q 513 671 510 679 q 469 694 499 686 q 467 683 468 689 q 490 682 481 681 q 467 668 482 674 l 467 667 q 467 668 467 667 q 429 663 444 660 q 458 646 439 653 q 492 640 478 639 q 443 618 475 622 q 465 615 454 618 l 467 618 l 467 615 l 468 615 l 471 617 l 471 614 q 500 603 489 610 q 510 622 504 615 q 512 594 508 610 q 524 568 515 578 q 549 566 533 564 q 574 572 565 568 q 563 550 572 563 q 544 532 553 538 q 584 526 561 533 q 621 510 607 519 q 581 506 604 513 q 544 489 558 499 q 574 481 557 488 q 600 464 592 474 q 570 457 588 465 q 544 440 553 449 q 573 435 557 442 q 597 419 589 429 q 568 421 585 424 q 542 411 551 418 q 543 376 546 396 q 533 342 540 356 q 530 377 536 357 q 513 408 524 397 q 503 372 508 400 q 497 315 499 343 q 499 278 494 288 q 490 306 494 285 q 484 351 486 326 q 482 390 482 375 q 475 369 481 379 l 476 365 l 474 368 q 468 358 472 365 q 467 372 468 365 q 429 381 446 383 q 449 365 435 374 q 471 356 463 357 q 453 340 467 349 q 429 331 439 332 q 453 317 438 322 q 482 313 469 311 q 457 297 474 303 q 429 293 440 292 q 458 274 440 282 q 467 285 461 278 q 468 271 465 278 q 485 268 478 267 q 483 267 485 268 q 474 258 482 265 q 483 243 478 249 q 499 268 492 251 q 504 296 506 285 m 489 729 q 478 714 482 724 q 501 690 492 703 q 489 729 500 717 m 429 701 q 454 688 439 693 q 450 700 451 693 q 429 701 439 701 m 138 657 q 104 675 125 668 q 64 683 83 682 q 110 643 89 668 q 138 657 125 650 m 496 568 q 499 599 494 582 q 475 597 488 600 q 496 568 485 576 m 429 579 q 443 588 436 582 q 429 579 435 585 m 138 381 q 122 371 129 376 q 138 381 131 375 m 138 331 q 88 338 117 326 q 64 303 72 319 q 104 312 83 304 q 138 331 125 319 z "},"":{"ha":1028,"x_min":-60,"x_max":1111,"o":"m 104 99 q 27 93 71 90 q -46 113 -17 96 q 31 106 -14 101 q 104 126 75 110 q 51 159 88 146 q -11 174 15 172 q 43 206 8 190 q 103 221 78 222 q 52 232 81 221 q 11 260 24 243 q 61 270 32 258 q 104 297 90 282 q 26 331 75 321 q -60 336 -24 342 q 19 372 -31 360 q 104 375 68 383 q 44 406 82 393 q -21 419 7 419 q 14 444 -8 433 q 60 460 36 454 q 7 467 33 460 q -37 486 -19 474 q 36 482 -7 475 q 104 508 79 489 q 55 516 83 506 q 13 542 26 526 q 62 550 33 540 q 104 575 90 560 q 62 607 92 592 q 11 625 32 622 q 53 658 24 642 q 104 675 83 674 q 40 710 82 696 q -33 718 -3 725 q -1 741 -21 732 q 40 756 19 750 q -12 763 14 757 q -57 782 -39 769 q 26 776 -22 772 q 104 801 75 781 q 25 826 72 819 q -58 824 -22 832 q 22 850 -26 843 q 104 846 69 857 q 58 876 86 863 q -2 897 29 890 q -57 899 -33 903 q -8 926 -37 914 q 53 942 22 938 q 107 942 83 947 q 103 1005 100 968 q 122 1065 107 1042 q 126 1001 119 1038 q 153 944 133 964 q 174 1015 169 972 q 167 1089 179 1058 q 189 1019 185 1063 q 181 944 193 975 q 201 1012 194 972 q 197 1081 207 1051 q 217 1014 213 1054 q 214 944 221 974 q 231 997 222 958 q 247 1083 240 1036 q 258 1170 254 1131 q 258 1225 261 1210 q 276 1172 267 1211 q 294 1086 286 1133 q 304 999 301 1039 q 303 944 307 960 q 331 997 321 963 q 339 1056 340 1031 q 357 1025 349 1043 q 369 988 365 1007 q 392 1063 371 1035 q 390 1001 386 1036 q 408 944 394 967 q 413 1014 404 974 q 442 1075 421 1054 q 447 1006 439 1046 q 475 944 456 967 q 509 994 493 960 q 525 1051 525 1028 q 556 1000 542 1033 q 569 942 569 967 q 595 999 586 964 q 600 1063 604 1035 q 615 1001 614 1038 q 603 939 615 964 q 628 981 618 954 q 638 1029 638 1007 q 648 981 647 1010 q 642 932 649 953 q 678 986 651 957 q 728 1028 704 1015 q 723 963 718 1003 q 743 900 728 922 q 781 946 751 924 q 835 975 811 968 q 817 919 822 954 q 815 858 811 883 q 874 885 842 864 q 922 928 907 906 q 904 865 921 900 q 864 814 888 829 q 914 827 882 824 q 964 824 946 831 q 933 783 949 811 q 917 735 918 754 q 1000 751 949 751 q 1086 738 1051 750 q 1033 721 1061 735 q 980 686 1004 707 q 944 644 956 665 q 997 629 965 644 q 1040 597 1029 614 q 991 574 1021 593 q 951 536 961 554 q 1003 512 969 519 q 1060 510 1036 504 q 986 481 1029 488 q 1033 468 1010 478 q 1072 447 1057 458 q 1010 443 1046 453 q 951 418 974 433 q 1036 413 988 425 q 1111 376 1085 401 q 1027 379 1076 388 q 947 351 978 371 q 994 326 964 335 q 1047 324 1025 318 q 1005 315 1029 317 q 960 318 981 314 q 1017 281 988 307 q 1060 233 1046 256 q 985 242 1031 244 q 913 222 939 239 q 992 191 950 217 q 1053 133 1035 165 q 982 181 1026 160 q 900 199 938 201 q 910 144 899 176 q 938 97 922 111 q 883 99 917 90 q 831 118 849 107 q 846 60 843 97 q 839 0 849 22 q 794 40 825 19 q 740 65 763 60 q 735 -11 729 33 q 756 -85 740 -56 q 701 -17 724 -61 q 702 -70 704 -43 q 693 -118 700 -97 q 680 -35 694 -82 q 638 36 665 13 q 620 -32 622 10 q 629 -103 618 -74 q 597 -40 610 -79 q 588 31 583 0 q 560 -14 571 17 q 549 -67 549 -44 q 521 -28 533 -56 q 506 21 508 0 q 499 -30 507 -1 q 476 -75 492 -58 q 472 -22 482 -53 q 450 28 463 8 q 422 -47 428 0 q 422 -128 415 -93 q 402 -93 410 -114 q 392 -50 394 -72 q 367 -111 383 -87 q 366 -40 375 -81 q 339 28 357 1 q 340 -42 346 -3 q 318 -108 333 -82 q 319 -39 328 -79 q 296 28 311 1 q 274 -44 276 0 q 279 -121 271 -89 q 256 -49 260 -93 q 263 28 253 -4 q 233 -24 246 10 q 221 -82 221 -57 q 194 -39 207 -67 q 181 14 182 -11 q 168 -26 178 -6 q 147 -60 158 -47 q 137 -4 147 -40 q 104 99 126 32 m 440 729 q 431 704 433 719 q 438 702 435 703 q 442 701 442 701 q 440 729 438 718 m 476 321 q 481 279 475 303 q 497 243 486 256 q 500 276 494 257 q 515 306 506 296 q 522 273 515 292 q 538 244 528 254 q 531 283 532 260 q 539 321 531 306 q 554 286 542 306 q 581 257 567 267 q 557 294 567 269 q 549 338 547 318 q 575 302 556 319 q 613 281 594 285 q 605 306 613 290 q 589 326 597 321 q 617 328 599 329 q 589 342 603 333 q 568 363 575 351 q 608 353 583 353 q 650 360 633 353 q 624 365 639 358 q 600 379 608 371 q 628 379 611 376 q 653 389 644 382 q 624 393 640 388 q 597 406 607 399 q 627 407 610 404 q 654 418 644 410 q 635 429 649 425 q 614 433 622 433 q 656 446 632 447 q 629 458 646 453 q 600 464 613 464 q 642 479 614 476 q 603 493 619 482 q 631 496 615 492 q 656 507 646 500 q 601 521 632 525 q 632 535 614 529 q 592 547 610 536 q 624 550 606 546 q 654 564 643 554 q 617 565 639 560 q 582 579 594 569 q 619 585 597 578 q 651 604 640 593 q 615 601 638 600 q 579 611 592 603 q 612 626 594 613 q 639 653 629 640 q 605 633 628 640 q 564 626 582 625 q 598 647 581 631 q 621 681 615 664 q 591 653 611 667 q 554 638 571 640 q 575 672 565 650 q 582 713 585 694 q 573 683 582 703 q 552 640 564 663 q 529 598 540 617 q 511 574 518 579 q 522 602 517 581 q 530 649 526 624 q 535 697 533 675 q 535 728 536 718 q 517 695 524 715 q 510 660 510 675 q 494 692 500 671 q 490 729 488 714 q 470 690 476 715 q 465 644 464 664 q 442 697 449 665 q 428 689 436 693 q 426 661 425 675 q 449 657 439 657 q 426 643 440 650 q 431 621 428 631 q 438 615 432 621 q 415 610 428 617 q 396 597 401 604 q 437 598 413 603 q 476 583 461 593 q 435 583 458 588 q 396 569 411 579 q 426 556 407 561 q 458 556 444 551 q 428 542 447 546 q 396 542 410 538 q 432 522 408 529 q 472 517 456 515 q 436 499 460 506 q 396 492 413 492 q 419 476 403 482 q 449 469 436 469 q 424 453 440 460 q 396 447 407 446 q 429 431 408 438 q 465 428 450 425 q 433 412 454 417 q 396 408 411 407 q 434 392 410 397 q 476 389 458 388 q 438 372 463 378 q 396 369 414 367 q 417 356 403 363 q 443 351 432 350 q 411 333 432 339 q 443 328 425 333 l 442 333 q 446 326 442 333 q 472 314 464 321 q 476 321 472 315 m 396 679 q 397 678 396 679 q 403 674 397 678 q 401 681 403 676 l 396 679 m 396 635 q 429 622 413 635 q 418 639 424 629 q 396 635 406 635 m 451 313 q 458 281 457 297 q 471 313 463 299 q 451 313 463 314 m 396 293 q 419 285 406 293 q 439 268 433 276 q 444 311 446 290 q 417 305 431 310 q 396 293 404 300 m 428 243 q 439 268 435 253 q 419 258 429 267 q 428 243 410 250 m 347 1096 q 302 1072 332 1082 q 251 1065 272 1063 q 280 1108 267 1079 q 292 1157 293 1136 q 260 1137 282 1144 q 221 1129 238 1129 q 243 1161 232 1140 q 254 1197 254 1182 q 216 1206 242 1204 q 175 1203 190 1208 q 190 1240 176 1218 q 218 1269 204 1263 q 243 1308 232 1282 q 256 1353 254 1333 q 282 1315 269 1340 q 294 1271 294 1289 q 316 1320 300 1292 q 351 1361 332 1349 q 356 1308 347 1340 q 381 1258 365 1275 q 412 1296 389 1276 q 453 1321 435 1315 q 446 1273 444 1303 q 456 1225 447 1243 q 476 1254 460 1239 q 506 1275 492 1269 q 501 1240 500 1261 q 508 1210 503 1219 q 503 1246 503 1224 q 510 1282 504 1268 q 533 1250 515 1267 q 565 1229 550 1233 q 571 1278 571 1249 q 560 1325 571 1308 q 599 1297 578 1318 q 626 1257 619 1276 q 628 1297 632 1274 q 615 1336 625 1321 q 643 1306 629 1325 q 660 1269 657 1286 q 671 1321 658 1290 q 700 1367 683 1351 q 714 1316 700 1346 q 743 1271 728 1286 q 779 1290 760 1274 q 807 1322 799 1307 q 809 1281 813 1307 q 797 1242 806 1256 q 831 1213 815 1233 q 851 1174 846 1192 q 821 1205 843 1190 q 779 1221 799 1219 q 803 1170 783 1197 q 843 1129 822 1143 q 813 1136 829 1129 q 782 1153 796 1143 q 806 1107 801 1129 q 769 1142 793 1125 q 724 1161 744 1158 q 733 1128 729 1151 q 732 1093 736 1104 q 699 1099 722 1099 q 664 1096 675 1100 q 676 1058 672 1083 q 675 1018 679 1032 q 640 1040 664 1029 q 601 1049 617 1050 q 581 1019 590 1040 q 572 982 572 997 q 551 1013 561 993 q 542 1049 542 1033 q 522 1015 539 1035 q 492 989 504 994 q 472 1022 488 1001 q 443 1049 456 1043 q 443 1010 447 1032 q 429 974 439 988 q 421 1019 433 990 q 347 1096 408 1047 z "}}}
